<svg width="244" height="99" viewBox="0 0 244 99" fill="none" xmlns="http://www.w3.org/2000/svg">
<g filter="url(#filter0_f_186_2911)">
<path d="M69.868 48.852V46.852L69.7146 50.8461L69.868 48.852ZM76.872 54.36L78.8491 54.662L78.8505 54.6524L78.8519 54.6428L76.872 54.36ZM74.016 73.06V75.06H75.7337L75.9931 73.362L74.016 73.06ZM61.096 73.06L59.1188 72.759L58.7685 75.06H61.096V73.06ZM64.088 53.408L66.0652 53.709L66.4155 51.408H64.088V53.408ZM41.308 53.408V51.408H39.5895L39.3308 53.107L41.308 53.408ZM38.316 73.06V75.06H40.0345L40.2932 73.361L38.316 73.06ZM25.464 73.06L23.4866 72.7601L23.1378 75.06H25.464V73.06ZM32.672 25.528V23.528H30.9524L30.6946 25.2281L32.672 25.528ZM45.592 25.528L47.5683 25.8348L47.9264 23.528H45.592V25.528ZM42.668 44.364L40.6917 44.0572L40.3336 46.364H42.668V44.364ZM65.448 44.364V46.364H67.1676L67.4254 44.6638L65.448 44.364ZM68.304 25.528V23.528H66.5844L66.3266 25.2282L68.304 25.528ZM81.224 25.528L83.2013 25.8287L83.5512 23.528H81.224V25.528ZM78.504 43.412L80.4782 43.7321L80.4798 43.7224L80.4813 43.7127L78.504 43.412ZM75.172 47.492L74.2287 45.7284L74.221 45.7326L75.172 47.492ZM69.7146 50.8461C71.9266 51.0163 73.2866 51.4655 74.0443 51.9828C74.6768 52.4145 74.94 52.9124 74.94 53.68H78.94C78.94 51.5916 78.0246 49.8568 76.2997 48.6792C74.7001 47.5872 72.5241 47.0504 70.0214 46.8579L69.7146 50.8461ZM74.94 53.68C74.94 53.6522 74.9414 53.6681 74.9329 53.753C74.9253 53.8296 74.9123 53.9361 74.8921 54.0772L78.8519 54.6428C78.8976 54.3232 78.94 53.9719 78.94 53.68H74.94ZM74.8949 54.058L72.0389 72.758L75.9931 73.362L78.8491 54.662L74.8949 54.058ZM74.016 71.06H61.096V75.06H74.016V71.06ZM63.0732 73.361L66.0652 53.709L62.1108 53.107L59.1188 72.759L63.0732 73.361ZM64.088 51.408H41.308V55.408H64.088V51.408ZM39.3308 53.107L36.3388 72.759L40.2932 73.361L43.2852 53.709L39.3308 53.107ZM38.316 71.06H25.464V75.06H38.316V71.06ZM27.4414 73.3599L34.6494 25.8279L30.6946 25.2281L23.4866 72.7601L27.4414 73.3599ZM32.672 27.528H45.592V23.528H32.672V27.528ZM43.6157 25.2212L40.6917 44.0572L44.6443 44.6708L47.5683 25.8348L43.6157 25.2212ZM42.668 46.364H65.448V42.364H42.668V46.364ZM67.4254 44.6638L70.2814 25.8278L66.3266 25.2282L63.4706 44.0642L67.4254 44.6638ZM68.304 27.528H81.224V23.528H68.304V27.528ZM79.2467 25.2273L76.5267 43.1113L80.4813 43.7127L83.2013 25.8287L79.2467 25.2273ZM76.5298 43.0919C76.3864 43.9764 75.8087 44.8833 74.2287 45.7284L76.1153 49.2556C78.434 48.0153 80.0777 46.2023 80.4782 43.7321L76.5298 43.0919ZM74.221 45.7326C72.8279 46.4856 71.3858 46.852 69.868 46.852V50.852C72.0676 50.852 74.1614 50.3117 76.123 49.2514L74.221 45.7326ZM95.9832 66.26V68.26H97.5998L97.9387 66.6793L95.9832 66.26ZM83.1312 66.26L81.1748 65.8444L80.6617 68.26H83.1312V66.26ZM90.3392 32.328V30.328H88.7194L88.3828 31.9124L90.3392 32.328ZM103.259 32.328L105.215 32.7473L105.734 30.328H103.259V32.328ZM95.9832 64.26H83.1312V68.26H95.9832V64.26ZM85.0875 66.6756L92.2955 32.7436L88.3828 31.9124L81.1748 65.8444L85.0875 66.6756ZM90.3392 34.328H103.259V30.328H90.3392V34.328ZM101.304 31.9087L94.0276 65.8407L97.9387 66.6793L105.215 32.7473L101.304 31.9087ZM154.221 66.26V68.26H155.839L156.177 66.6785L154.221 66.26ZM141.301 66.26L139.345 65.8436L138.831 68.26H141.301V66.26ZM147.149 38.788L149.106 39.2044L149.62 36.788H147.149V38.788ZM124.369 38.788V36.788H122.75L122.413 38.3716L124.369 38.788ZM118.521 66.26V68.26H120.141L120.478 66.6764L118.521 66.26ZM105.669 66.26L103.713 65.8444L103.2 68.26H105.669V66.26ZM112.877 32.328V30.328H111.258L110.921 31.9124L112.877 32.328ZM157.485 33.076L158.094 31.1707L158.085 31.168L157.485 33.076ZM154.221 64.26H141.301V68.26H154.221V64.26ZM143.258 66.6764L149.106 39.2044L145.193 38.3716L139.345 65.8436L143.258 66.6764ZM147.149 36.788H124.369V40.788H147.149V36.788ZM122.413 38.3716L116.565 65.8436L120.478 66.6764L126.326 39.2044L122.413 38.3716ZM118.521 64.26H105.669V68.26H118.521V64.26ZM107.626 66.6756L114.834 32.7436L110.921 31.9124L103.713 65.8444L107.626 66.6756ZM112.877 34.328H152.793V30.328H112.877V34.328ZM152.793 34.328C154.116 34.328 155.478 34.5415 156.886 34.984L158.085 31.168C156.32 30.6132 154.554 30.328 152.793 30.328V34.328ZM156.877 34.9813C157.824 35.2834 158.34 35.5795 158.586 35.7891C158.786 35.9594 158.681 35.9504 158.681 35.796H162.681C162.681 34.5083 162.044 33.4793 161.179 32.7429C160.36 32.0458 159.278 31.5486 158.094 31.1707L156.877 34.9813ZM158.681 35.796C158.681 35.5948 158.719 35.4126 158.703 35.5123C158.702 35.5174 158.698 35.5366 158.691 35.5764C158.676 35.6534 158.653 35.7721 158.62 35.9369C158.554 36.2644 158.454 36.7492 158.32 37.3941C158.051 38.6825 157.648 40.595 157.11 43.1331C156.034 48.2086 154.419 55.7778 152.266 65.8415L156.177 66.6785C158.331 56.6142 159.946 49.0421 161.023 43.9629C161.561 41.4237 161.966 39.5055 162.236 38.2099C162.37 37.5627 162.473 37.0673 162.541 36.7261C162.575 36.5566 162.602 36.4188 162.622 36.3173C162.631 36.2679 162.64 36.2174 162.648 36.1721C162.651 36.1505 162.657 36.1183 162.662 36.0823C162.664 36.0645 162.668 36.0356 162.671 36.0007C162.673 35.9781 162.681 35.8979 162.681 35.796H158.681ZM166.873 65.512L167.556 63.6324L167.545 63.6285L166.873 65.512ZM169.661 36.34L171.616 36.7604L171.618 36.7528L171.619 36.7452L169.661 36.34ZM173.673 33.212L174.284 35.1164L174.291 35.1141L173.673 33.212ZM215.153 33.076L214.537 34.9789L214.545 34.9813L215.153 33.076ZM217.261 41.168V43.168H218.879L219.217 41.5853L217.261 41.168ZM204.273 41.168L202.323 40.7223L201.764 43.168H204.273V41.168ZM204.817 38.788L206.766 39.2336L207.325 36.788H204.817V38.788ZM182.037 38.788V36.788H180.414L180.079 38.3763L182.037 38.788ZM177.617 59.8L175.659 59.3883L175.152 61.8H177.617V59.8ZM200.329 59.8V61.8H201.942L202.283 60.2227L200.329 59.8ZM201.961 52.252L203.915 52.6747L204.439 50.252H201.961V52.252ZM192.917 52.252L190.96 51.84L190.452 54.252H192.917V52.252ZM194.277 45.792V43.792H192.654L192.32 45.38L194.277 45.792ZM216.241 45.792L218.198 46.2028L218.704 43.792H216.241V45.792ZM212.773 62.316L214.728 62.7351L214.73 62.7268L212.773 62.316ZM209.033 65.376L208.377 63.4865L208.372 63.4883L209.033 65.376ZM203.865 64.328H171.293V68.328H203.865V64.328ZM171.293 64.328C170.097 64.328 168.854 64.1045 167.556 63.6324L166.189 67.3916C167.883 68.0075 169.587 68.328 171.293 68.328V64.328ZM167.545 63.6285C166.737 63.3398 166.319 63.0603 166.128 62.8739C166.042 62.7899 166.02 62.7426 166.018 62.7381C166.016 62.7348 166.017 62.7352 166.017 62.7373C166.018 62.7392 166.017 62.7357 166.017 62.724H162.017C162.017 65.2656 164.134 66.6576 166.2 67.3955L167.545 63.6285ZM166.017 62.724C166.017 62.8145 166.01 62.8847 166.008 62.907C166.005 62.9386 166.002 62.9636 166 62.9775C165.997 63.0054 165.993 63.0262 165.992 63.0334C165.99 63.0495 165.988 63.0587 165.989 63.0543C165.99 63.0481 165.993 63.0304 166 62.9963C166.013 62.9303 166.034 62.8287 166.063 62.6883C166.121 62.4091 166.209 61.993 166.326 61.4383C166.561 60.3297 166.913 58.6767 167.383 56.4784C168.324 52.0821 169.735 45.5096 171.616 36.7604L167.705 35.9196C165.824 44.669 164.413 51.2432 163.472 55.6416C163.001 57.8406 162.648 59.4969 162.413 60.6097C162.295 61.1657 162.206 61.5882 162.147 61.8757C162.117 62.0187 162.094 62.1323 162.077 62.2137C162.069 62.2533 162.062 62.2922 162.056 62.3257C162.053 62.3411 162.048 62.3659 162.044 62.3933C162.042 62.4062 162.038 62.4317 162.034 62.4631C162.032 62.4787 162.028 62.5052 162.025 62.5381C162.023 62.5616 162.017 62.6328 162.017 62.724H166.017ZM171.619 36.7452C171.652 36.5868 171.974 35.8574 174.284 35.1164L173.062 31.3076C170.566 32.108 168.213 33.4639 167.702 35.9348L171.619 36.7452ZM174.291 35.1141C175.915 34.5863 177.52 34.328 179.113 34.328V30.328C177.079 30.328 175.057 30.6591 173.054 31.3099L174.291 35.1141ZM179.113 34.328H210.461V30.328H179.113V34.328ZM210.461 34.328C211.834 34.328 213.19 34.5432 214.537 34.9789L215.768 31.1731C214.032 30.6115 212.261 30.328 210.461 30.328V34.328ZM214.545 34.9813C215.491 35.2834 216.007 35.5795 216.253 35.7891C216.454 35.9594 216.349 35.9504 216.349 35.796H220.349C220.349 34.5083 219.711 33.4793 218.846 32.7429C218.027 32.0458 216.945 31.5486 215.761 31.1707L214.545 34.9813ZM216.349 35.796C216.349 35.6355 216.372 35.5243 216.355 35.6324C216.348 35.6789 216.335 35.7563 216.314 35.872C216.272 36.1009 216.206 36.4342 216.116 36.878C215.937 37.763 215.667 39.0526 215.305 40.7507L219.217 41.5853C219.58 39.8834 219.853 38.5777 220.037 37.672C220.128 37.2204 220.199 36.8596 220.248 36.5955C220.272 36.4647 220.292 36.3459 220.308 36.2464C220.314 36.2087 220.349 36.0019 220.349 35.796H216.349ZM217.261 39.168H204.273V43.168H217.261V39.168ZM206.222 41.6136L206.766 39.2336L202.867 38.3423L202.323 40.7223L206.222 41.6136ZM204.817 36.788H182.037V40.788H204.817V36.788ZM180.079 38.3763L175.659 59.3883L179.574 60.2117L183.994 39.1997L180.079 38.3763ZM177.617 61.8H200.329V57.8H177.617V61.8ZM202.283 60.2227L203.915 52.6747L200.006 51.8293L198.374 59.3773L202.283 60.2227ZM201.961 50.252H192.917V54.252H201.961V50.252ZM194.874 52.664L196.234 46.204L192.32 45.38L190.96 51.84L194.874 52.664ZM194.277 47.792H216.241V43.792H194.277V47.792ZM214.283 45.3812L210.815 61.9052L214.73 62.7268L218.198 46.2028L214.283 45.3812ZM210.817 61.8969C210.78 62.0714 210.468 62.761 208.377 63.4865L209.688 67.2655C212.04 66.4496 214.222 65.0993 214.728 62.7351L210.817 61.8969ZM208.372 63.4883C206.734 64.0615 205.236 64.328 203.865 64.328V68.328C205.758 68.328 207.704 67.9598 209.693 67.2637L208.372 63.4883Z" fill="url(#paint0_linear_186_2911)"/>
</g>
<g filter="url(#filter1_f_186_2911)">
<path d="M69.868 48.852V46.852L69.7146 50.8461L69.868 48.852ZM76.872 54.36L78.8491 54.662L78.8505 54.6524L78.8519 54.6428L76.872 54.36ZM74.016 73.06V75.06H75.7337L75.9931 73.362L74.016 73.06ZM61.096 73.06L59.1188 72.759L58.7685 75.06H61.096V73.06ZM64.088 53.408L66.0652 53.709L66.4155 51.408H64.088V53.408ZM41.308 53.408V51.408H39.5895L39.3308 53.107L41.308 53.408ZM38.316 73.06V75.06H40.0345L40.2932 73.361L38.316 73.06ZM25.464 73.06L23.4866 72.7601L23.1378 75.06H25.464V73.06ZM32.672 25.528V23.528H30.9524L30.6946 25.2281L32.672 25.528ZM45.592 25.528L47.5683 25.8348L47.9264 23.528H45.592V25.528ZM42.668 44.364L40.6917 44.0572L40.3336 46.364H42.668V44.364ZM65.448 44.364V46.364H67.1676L67.4254 44.6638L65.448 44.364ZM68.304 25.528V23.528H66.5844L66.3266 25.2282L68.304 25.528ZM81.224 25.528L83.2013 25.8287L83.5512 23.528H81.224V25.528ZM78.504 43.412L80.4782 43.7321L80.4798 43.7224L80.4813 43.7127L78.504 43.412ZM75.172 47.492L74.2287 45.7284L74.221 45.7326L75.172 47.492ZM69.7146 50.8461C71.9266 51.0163 73.2866 51.4655 74.0443 51.9828C74.6768 52.4145 74.94 52.9124 74.94 53.68H78.94C78.94 51.5916 78.0246 49.8568 76.2997 48.6792C74.7001 47.5872 72.5241 47.0504 70.0214 46.8579L69.7146 50.8461ZM74.94 53.68C74.94 53.6522 74.9414 53.6681 74.9329 53.753C74.9253 53.8296 74.9123 53.9361 74.8921 54.0772L78.8519 54.6428C78.8976 54.3232 78.94 53.9719 78.94 53.68H74.94ZM74.8949 54.058L72.0389 72.758L75.9931 73.362L78.8491 54.662L74.8949 54.058ZM74.016 71.06H61.096V75.06H74.016V71.06ZM63.0732 73.361L66.0652 53.709L62.1108 53.107L59.1188 72.759L63.0732 73.361ZM64.088 51.408H41.308V55.408H64.088V51.408ZM39.3308 53.107L36.3388 72.759L40.2932 73.361L43.2852 53.709L39.3308 53.107ZM38.316 71.06H25.464V75.06H38.316V71.06ZM27.4414 73.3599L34.6494 25.8279L30.6946 25.2281L23.4866 72.7601L27.4414 73.3599ZM32.672 27.528H45.592V23.528H32.672V27.528ZM43.6157 25.2212L40.6917 44.0572L44.6443 44.6708L47.5683 25.8348L43.6157 25.2212ZM42.668 46.364H65.448V42.364H42.668V46.364ZM67.4254 44.6638L70.2814 25.8278L66.3266 25.2282L63.4706 44.0642L67.4254 44.6638ZM68.304 27.528H81.224V23.528H68.304V27.528ZM79.2467 25.2273L76.5267 43.1113L80.4813 43.7127L83.2013 25.8287L79.2467 25.2273ZM76.5298 43.0919C76.3864 43.9764 75.8087 44.8833 74.2287 45.7284L76.1153 49.2556C78.434 48.0153 80.0777 46.2023 80.4782 43.7321L76.5298 43.0919ZM74.221 45.7326C72.8279 46.4856 71.3858 46.852 69.868 46.852V50.852C72.0676 50.852 74.1614 50.3117 76.123 49.2514L74.221 45.7326ZM95.9832 66.26V68.26H97.5998L97.9387 66.6793L95.9832 66.26ZM83.1312 66.26L81.1748 65.8444L80.6617 68.26H83.1312V66.26ZM90.3392 32.328V30.328H88.7194L88.3828 31.9124L90.3392 32.328ZM103.259 32.328L105.215 32.7473L105.734 30.328H103.259V32.328ZM95.9832 64.26H83.1312V68.26H95.9832V64.26ZM85.0875 66.6756L92.2955 32.7436L88.3828 31.9124L81.1748 65.8444L85.0875 66.6756ZM90.3392 34.328H103.259V30.328H90.3392V34.328ZM101.304 31.9087L94.0276 65.8407L97.9387 66.6793L105.215 32.7473L101.304 31.9087ZM154.221 66.26V68.26H155.839L156.177 66.6785L154.221 66.26ZM141.301 66.26L139.345 65.8436L138.831 68.26H141.301V66.26ZM147.149 38.788L149.106 39.2044L149.62 36.788H147.149V38.788ZM124.369 38.788V36.788H122.75L122.413 38.3716L124.369 38.788ZM118.521 66.26V68.26H120.141L120.478 66.6764L118.521 66.26ZM105.669 66.26L103.713 65.8444L103.2 68.26H105.669V66.26ZM112.877 32.328V30.328H111.258L110.921 31.9124L112.877 32.328ZM157.485 33.076L158.094 31.1707L158.085 31.168L157.485 33.076ZM154.221 64.26H141.301V68.26H154.221V64.26ZM143.258 66.6764L149.106 39.2044L145.193 38.3716L139.345 65.8436L143.258 66.6764ZM147.149 36.788H124.369V40.788H147.149V36.788ZM122.413 38.3716L116.565 65.8436L120.478 66.6764L126.326 39.2044L122.413 38.3716ZM118.521 64.26H105.669V68.26H118.521V64.26ZM107.626 66.6756L114.834 32.7436L110.921 31.9124L103.713 65.8444L107.626 66.6756ZM112.877 34.328H152.793V30.328H112.877V34.328ZM152.793 34.328C154.116 34.328 155.478 34.5415 156.886 34.984L158.085 31.168C156.32 30.6132 154.554 30.328 152.793 30.328V34.328ZM156.877 34.9813C157.824 35.2834 158.34 35.5795 158.586 35.7891C158.786 35.9594 158.681 35.9504 158.681 35.796H162.681C162.681 34.5083 162.044 33.4793 161.179 32.7429C160.36 32.0458 159.278 31.5486 158.094 31.1707L156.877 34.9813ZM158.681 35.796C158.681 35.5948 158.719 35.4126 158.703 35.5123C158.702 35.5174 158.698 35.5366 158.691 35.5764C158.676 35.6534 158.653 35.7721 158.62 35.9369C158.554 36.2644 158.454 36.7492 158.32 37.3941C158.051 38.6825 157.648 40.595 157.11 43.1331C156.034 48.2086 154.419 55.7778 152.266 65.8415L156.177 66.6785C158.331 56.6142 159.946 49.0421 161.023 43.9629C161.561 41.4237 161.966 39.5055 162.236 38.2099C162.37 37.5627 162.473 37.0673 162.541 36.7261C162.575 36.5566 162.602 36.4188 162.622 36.3173C162.631 36.2679 162.64 36.2174 162.648 36.1721C162.651 36.1505 162.657 36.1183 162.662 36.0823C162.664 36.0645 162.668 36.0356 162.671 36.0007C162.673 35.9781 162.681 35.8979 162.681 35.796H158.681ZM166.873 65.512L167.556 63.6324L167.545 63.6285L166.873 65.512ZM169.661 36.34L171.616 36.7604L171.618 36.7528L171.619 36.7452L169.661 36.34ZM173.673 33.212L174.284 35.1164L174.291 35.1141L173.673 33.212ZM215.153 33.076L214.537 34.9789L214.545 34.9813L215.153 33.076ZM217.261 41.168V43.168H218.879L219.217 41.5853L217.261 41.168ZM204.273 41.168L202.323 40.7223L201.764 43.168H204.273V41.168ZM204.817 38.788L206.766 39.2336L207.325 36.788H204.817V38.788ZM182.037 38.788V36.788H180.414L180.079 38.3763L182.037 38.788ZM177.617 59.8L175.659 59.3883L175.152 61.8H177.617V59.8ZM200.329 59.8V61.8H201.942L202.283 60.2227L200.329 59.8ZM201.961 52.252L203.915 52.6747L204.439 50.252H201.961V52.252ZM192.917 52.252L190.96 51.84L190.452 54.252H192.917V52.252ZM194.277 45.792V43.792H192.654L192.32 45.38L194.277 45.792ZM216.241 45.792L218.198 46.2028L218.704 43.792H216.241V45.792ZM212.773 62.316L214.728 62.7351L214.73 62.7268L212.773 62.316ZM209.033 65.376L208.377 63.4865L208.372 63.4883L209.033 65.376ZM203.865 64.328H171.293V68.328H203.865V64.328ZM171.293 64.328C170.097 64.328 168.854 64.1045 167.556 63.6324L166.189 67.3916C167.883 68.0075 169.587 68.328 171.293 68.328V64.328ZM167.545 63.6285C166.737 63.3398 166.319 63.0603 166.128 62.8739C166.042 62.7899 166.02 62.7426 166.018 62.7381C166.016 62.7348 166.017 62.7352 166.017 62.7373C166.018 62.7392 166.017 62.7357 166.017 62.724H162.017C162.017 65.2656 164.134 66.6576 166.2 67.3955L167.545 63.6285ZM166.017 62.724C166.017 62.8145 166.01 62.8847 166.008 62.907C166.005 62.9386 166.002 62.9636 166 62.9775C165.997 63.0054 165.993 63.0262 165.992 63.0334C165.99 63.0495 165.988 63.0587 165.989 63.0543C165.99 63.0481 165.993 63.0304 166 62.9963C166.013 62.9303 166.034 62.8287 166.063 62.6883C166.121 62.4091 166.209 61.993 166.326 61.4383C166.561 60.3297 166.913 58.6767 167.383 56.4784C168.324 52.0821 169.735 45.5096 171.616 36.7604L167.705 35.9196C165.824 44.669 164.413 51.2432 163.472 55.6416C163.001 57.8406 162.648 59.4969 162.413 60.6097C162.295 61.1657 162.206 61.5882 162.147 61.8757C162.117 62.0187 162.094 62.1323 162.077 62.2137C162.069 62.2533 162.062 62.2922 162.056 62.3257C162.053 62.3411 162.048 62.3659 162.044 62.3933C162.042 62.4062 162.038 62.4317 162.034 62.4631C162.032 62.4787 162.028 62.5052 162.025 62.5381C162.023 62.5616 162.017 62.6328 162.017 62.724H166.017ZM171.619 36.7452C171.652 36.5868 171.974 35.8574 174.284 35.1164L173.062 31.3076C170.566 32.108 168.213 33.4639 167.702 35.9348L171.619 36.7452ZM174.291 35.1141C175.915 34.5863 177.52 34.328 179.113 34.328V30.328C177.079 30.328 175.057 30.6591 173.054 31.3099L174.291 35.1141ZM179.113 34.328H210.461V30.328H179.113V34.328ZM210.461 34.328C211.834 34.328 213.19 34.5432 214.537 34.9789L215.768 31.1731C214.032 30.6115 212.261 30.328 210.461 30.328V34.328ZM214.545 34.9813C215.491 35.2834 216.007 35.5795 216.253 35.7891C216.454 35.9594 216.349 35.9504 216.349 35.796H220.349C220.349 34.5083 219.711 33.4793 218.846 32.7429C218.027 32.0458 216.945 31.5486 215.761 31.1707L214.545 34.9813ZM216.349 35.796C216.349 35.6355 216.372 35.5243 216.355 35.6324C216.348 35.6789 216.335 35.7563 216.314 35.872C216.272 36.1009 216.206 36.4342 216.116 36.878C215.937 37.763 215.667 39.0526 215.305 40.7507L219.217 41.5853C219.58 39.8834 219.853 38.5777 220.037 37.672C220.128 37.2204 220.199 36.8596 220.248 36.5955C220.272 36.4647 220.292 36.3459 220.308 36.2464C220.314 36.2087 220.349 36.0019 220.349 35.796H216.349ZM217.261 39.168H204.273V43.168H217.261V39.168ZM206.222 41.6136L206.766 39.2336L202.867 38.3423L202.323 40.7223L206.222 41.6136ZM204.817 36.788H182.037V40.788H204.817V36.788ZM180.079 38.3763L175.659 59.3883L179.574 60.2117L183.994 39.1997L180.079 38.3763ZM177.617 61.8H200.329V57.8H177.617V61.8ZM202.283 60.2227L203.915 52.6747L200.006 51.8293L198.374 59.3773L202.283 60.2227ZM201.961 50.252H192.917V54.252H201.961V50.252ZM194.874 52.664L196.234 46.204L192.32 45.38L190.96 51.84L194.874 52.664ZM194.277 47.792H216.241V43.792H194.277V47.792ZM214.283 45.3812L210.815 61.9052L214.73 62.7268L218.198 46.2028L214.283 45.3812ZM210.817 61.8969C210.78 62.0714 210.468 62.761 208.377 63.4865L209.688 67.2655C212.04 66.4496 214.222 65.0993 214.728 62.7351L210.817 61.8969ZM208.372 63.4883C206.734 64.0615 205.236 64.328 203.865 64.328V68.328C205.758 68.328 207.704 67.9598 209.693 67.2637L208.372 63.4883Z" fill="url(#paint1_linear_186_2911)"/>
</g>
<g filter="url(#filter2_f_186_2911)">
<path d="M69.868 48.852V46.852L69.7146 50.8461L69.868 48.852ZM76.872 54.36L78.8491 54.662L78.8505 54.6524L78.8519 54.6428L76.872 54.36ZM74.016 73.06V75.06H75.7337L75.9931 73.362L74.016 73.06ZM61.096 73.06L59.1188 72.759L58.7685 75.06H61.096V73.06ZM64.088 53.408L66.0652 53.709L66.4155 51.408H64.088V53.408ZM41.308 53.408V51.408H39.5895L39.3308 53.107L41.308 53.408ZM38.316 73.06V75.06H40.0345L40.2932 73.361L38.316 73.06ZM25.464 73.06L23.4866 72.7601L23.1378 75.06H25.464V73.06ZM32.672 25.528V23.528H30.9524L30.6946 25.2281L32.672 25.528ZM45.592 25.528L47.5683 25.8348L47.9264 23.528H45.592V25.528ZM42.668 44.364L40.6917 44.0572L40.3336 46.364H42.668V44.364ZM65.448 44.364V46.364H67.1676L67.4254 44.6638L65.448 44.364ZM68.304 25.528V23.528H66.5844L66.3266 25.2282L68.304 25.528ZM81.224 25.528L83.2013 25.8287L83.5512 23.528H81.224V25.528ZM78.504 43.412L80.4782 43.7321L80.4798 43.7224L80.4813 43.7127L78.504 43.412ZM75.172 47.492L74.2287 45.7284L74.221 45.7326L75.172 47.492ZM69.7146 50.8461C71.9266 51.0163 73.2866 51.4655 74.0443 51.9828C74.6768 52.4145 74.94 52.9124 74.94 53.68H78.94C78.94 51.5916 78.0246 49.8568 76.2997 48.6792C74.7001 47.5872 72.5241 47.0504 70.0214 46.8579L69.7146 50.8461ZM74.94 53.68C74.94 53.6522 74.9414 53.6681 74.9329 53.753C74.9253 53.8296 74.9123 53.9361 74.8921 54.0772L78.8519 54.6428C78.8976 54.3232 78.94 53.9719 78.94 53.68H74.94ZM74.8949 54.058L72.0389 72.758L75.9931 73.362L78.8491 54.662L74.8949 54.058ZM74.016 71.06H61.096V75.06H74.016V71.06ZM63.0732 73.361L66.0652 53.709L62.1108 53.107L59.1188 72.759L63.0732 73.361ZM64.088 51.408H41.308V55.408H64.088V51.408ZM39.3308 53.107L36.3388 72.759L40.2932 73.361L43.2852 53.709L39.3308 53.107ZM38.316 71.06H25.464V75.06H38.316V71.06ZM27.4414 73.3599L34.6494 25.8279L30.6946 25.2281L23.4866 72.7601L27.4414 73.3599ZM32.672 27.528H45.592V23.528H32.672V27.528ZM43.6157 25.2212L40.6917 44.0572L44.6443 44.6708L47.5683 25.8348L43.6157 25.2212ZM42.668 46.364H65.448V42.364H42.668V46.364ZM67.4254 44.6638L70.2814 25.8278L66.3266 25.2282L63.4706 44.0642L67.4254 44.6638ZM68.304 27.528H81.224V23.528H68.304V27.528ZM79.2467 25.2273L76.5267 43.1113L80.4813 43.7127L83.2013 25.8287L79.2467 25.2273ZM76.5298 43.0919C76.3864 43.9764 75.8087 44.8833 74.2287 45.7284L76.1153 49.2556C78.434 48.0153 80.0777 46.2023 80.4782 43.7321L76.5298 43.0919ZM74.221 45.7326C72.8279 46.4856 71.3858 46.852 69.868 46.852V50.852C72.0676 50.852 74.1614 50.3117 76.123 49.2514L74.221 45.7326ZM95.9832 66.26V68.26H97.5998L97.9387 66.6793L95.9832 66.26ZM83.1312 66.26L81.1748 65.8444L80.6617 68.26H83.1312V66.26ZM90.3392 32.328V30.328H88.7194L88.3828 31.9124L90.3392 32.328ZM103.259 32.328L105.215 32.7473L105.734 30.328H103.259V32.328ZM95.9832 64.26H83.1312V68.26H95.9832V64.26ZM85.0875 66.6756L92.2955 32.7436L88.3828 31.9124L81.1748 65.8444L85.0875 66.6756ZM90.3392 34.328H103.259V30.328H90.3392V34.328ZM101.304 31.9087L94.0276 65.8407L97.9387 66.6793L105.215 32.7473L101.304 31.9087ZM154.221 66.26V68.26H155.839L156.177 66.6785L154.221 66.26ZM141.301 66.26L139.345 65.8436L138.831 68.26H141.301V66.26ZM147.149 38.788L149.106 39.2044L149.62 36.788H147.149V38.788ZM124.369 38.788V36.788H122.75L122.413 38.3716L124.369 38.788ZM118.521 66.26V68.26H120.141L120.478 66.6764L118.521 66.26ZM105.669 66.26L103.713 65.8444L103.2 68.26H105.669V66.26ZM112.877 32.328V30.328H111.258L110.921 31.9124L112.877 32.328ZM157.485 33.076L158.094 31.1707L158.085 31.168L157.485 33.076ZM154.221 64.26H141.301V68.26H154.221V64.26ZM143.258 66.6764L149.106 39.2044L145.193 38.3716L139.345 65.8436L143.258 66.6764ZM147.149 36.788H124.369V40.788H147.149V36.788ZM122.413 38.3716L116.565 65.8436L120.478 66.6764L126.326 39.2044L122.413 38.3716ZM118.521 64.26H105.669V68.26H118.521V64.26ZM107.626 66.6756L114.834 32.7436L110.921 31.9124L103.713 65.8444L107.626 66.6756ZM112.877 34.328H152.793V30.328H112.877V34.328ZM152.793 34.328C154.116 34.328 155.478 34.5415 156.886 34.984L158.085 31.168C156.32 30.6132 154.554 30.328 152.793 30.328V34.328ZM156.877 34.9813C157.824 35.2834 158.34 35.5795 158.586 35.7891C158.786 35.9594 158.681 35.9504 158.681 35.796H162.681C162.681 34.5083 162.044 33.4793 161.179 32.7429C160.36 32.0458 159.278 31.5486 158.094 31.1707L156.877 34.9813ZM158.681 35.796C158.681 35.5948 158.719 35.4126 158.703 35.5123C158.702 35.5174 158.698 35.5366 158.691 35.5764C158.676 35.6534 158.653 35.7721 158.62 35.9369C158.554 36.2644 158.454 36.7492 158.32 37.3941C158.051 38.6825 157.648 40.595 157.11 43.1331C156.034 48.2086 154.419 55.7778 152.266 65.8415L156.177 66.6785C158.331 56.6142 159.946 49.0421 161.023 43.9629C161.561 41.4237 161.966 39.5055 162.236 38.2099C162.37 37.5627 162.473 37.0673 162.541 36.7261C162.575 36.5566 162.602 36.4188 162.622 36.3173C162.631 36.2679 162.64 36.2174 162.648 36.1721C162.651 36.1505 162.657 36.1183 162.662 36.0823C162.664 36.0645 162.668 36.0356 162.671 36.0007C162.673 35.9781 162.681 35.8979 162.681 35.796H158.681ZM166.873 65.512L167.556 63.6324L167.545 63.6285L166.873 65.512ZM169.661 36.34L171.616 36.7604L171.618 36.7528L171.619 36.7452L169.661 36.34ZM173.673 33.212L174.284 35.1164L174.291 35.1141L173.673 33.212ZM215.153 33.076L214.537 34.9789L214.545 34.9813L215.153 33.076ZM217.261 41.168V43.168H218.879L219.217 41.5853L217.261 41.168ZM204.273 41.168L202.323 40.7223L201.764 43.168H204.273V41.168ZM204.817 38.788L206.766 39.2336L207.325 36.788H204.817V38.788ZM182.037 38.788V36.788H180.414L180.079 38.3763L182.037 38.788ZM177.617 59.8L175.659 59.3883L175.152 61.8H177.617V59.8ZM200.329 59.8V61.8H201.942L202.283 60.2227L200.329 59.8ZM201.961 52.252L203.915 52.6747L204.439 50.252H201.961V52.252ZM192.917 52.252L190.96 51.84L190.452 54.252H192.917V52.252ZM194.277 45.792V43.792H192.654L192.32 45.38L194.277 45.792ZM216.241 45.792L218.198 46.2028L218.704 43.792H216.241V45.792ZM212.773 62.316L214.728 62.7351L214.73 62.7268L212.773 62.316ZM209.033 65.376L208.377 63.4865L208.372 63.4883L209.033 65.376ZM203.865 64.328H171.293V68.328H203.865V64.328ZM171.293 64.328C170.097 64.328 168.854 64.1045 167.556 63.6324L166.189 67.3916C167.883 68.0075 169.587 68.328 171.293 68.328V64.328ZM167.545 63.6285C166.737 63.3398 166.319 63.0603 166.128 62.8739C166.042 62.7899 166.02 62.7426 166.018 62.7381C166.016 62.7348 166.017 62.7352 166.017 62.7373C166.018 62.7392 166.017 62.7357 166.017 62.724H162.017C162.017 65.2656 164.134 66.6576 166.2 67.3955L167.545 63.6285ZM166.017 62.724C166.017 62.8145 166.01 62.8847 166.008 62.907C166.005 62.9386 166.002 62.9636 166 62.9775C165.997 63.0054 165.993 63.0262 165.992 63.0334C165.99 63.0495 165.988 63.0587 165.989 63.0543C165.99 63.0481 165.993 63.0304 166 62.9963C166.013 62.9303 166.034 62.8287 166.063 62.6883C166.121 62.4091 166.209 61.993 166.326 61.4383C166.561 60.3297 166.913 58.6767 167.383 56.4784C168.324 52.0821 169.735 45.5096 171.616 36.7604L167.705 35.9196C165.824 44.669 164.413 51.2432 163.472 55.6416C163.001 57.8406 162.648 59.4969 162.413 60.6097C162.295 61.1657 162.206 61.5882 162.147 61.8757C162.117 62.0187 162.094 62.1323 162.077 62.2137C162.069 62.2533 162.062 62.2922 162.056 62.3257C162.053 62.3411 162.048 62.3659 162.044 62.3933C162.042 62.4062 162.038 62.4317 162.034 62.4631C162.032 62.4787 162.028 62.5052 162.025 62.5381C162.023 62.5616 162.017 62.6328 162.017 62.724H166.017ZM171.619 36.7452C171.652 36.5868 171.974 35.8574 174.284 35.1164L173.062 31.3076C170.566 32.108 168.213 33.4639 167.702 35.9348L171.619 36.7452ZM174.291 35.1141C175.915 34.5863 177.52 34.328 179.113 34.328V30.328C177.079 30.328 175.057 30.6591 173.054 31.3099L174.291 35.1141ZM179.113 34.328H210.461V30.328H179.113V34.328ZM210.461 34.328C211.834 34.328 213.19 34.5432 214.537 34.9789L215.768 31.1731C214.032 30.6115 212.261 30.328 210.461 30.328V34.328ZM214.545 34.9813C215.491 35.2834 216.007 35.5795 216.253 35.7891C216.454 35.9594 216.349 35.9504 216.349 35.796H220.349C220.349 34.5083 219.711 33.4793 218.846 32.7429C218.027 32.0458 216.945 31.5486 215.761 31.1707L214.545 34.9813ZM216.349 35.796C216.349 35.6355 216.372 35.5243 216.355 35.6324C216.348 35.6789 216.335 35.7563 216.314 35.872C216.272 36.1009 216.206 36.4342 216.116 36.878C215.937 37.763 215.667 39.0526 215.305 40.7507L219.217 41.5853C219.58 39.8834 219.853 38.5777 220.037 37.672C220.128 37.2204 220.199 36.8596 220.248 36.5955C220.272 36.4647 220.292 36.3459 220.308 36.2464C220.314 36.2087 220.349 36.0019 220.349 35.796H216.349ZM217.261 39.168H204.273V43.168H217.261V39.168ZM206.222 41.6136L206.766 39.2336L202.867 38.3423L202.323 40.7223L206.222 41.6136ZM204.817 36.788H182.037V40.788H204.817V36.788ZM180.079 38.3763L175.659 59.3883L179.574 60.2117L183.994 39.1997L180.079 38.3763ZM177.617 61.8H200.329V57.8H177.617V61.8ZM202.283 60.2227L203.915 52.6747L200.006 51.8293L198.374 59.3773L202.283 60.2227ZM201.961 50.252H192.917V54.252H201.961V50.252ZM194.874 52.664L196.234 46.204L192.32 45.38L190.96 51.84L194.874 52.664ZM194.277 47.792H216.241V43.792H194.277V47.792ZM214.283 45.3812L210.815 61.9052L214.73 62.7268L218.198 46.2028L214.283 45.3812ZM210.817 61.8969C210.78 62.0714 210.468 62.761 208.377 63.4865L209.688 67.2655C212.04 66.4496 214.222 65.0993 214.728 62.7351L210.817 61.8969ZM208.372 63.4883C206.734 64.0615 205.236 64.328 203.865 64.328V68.328C205.758 68.328 207.704 67.9598 209.693 67.2637L208.372 63.4883Z" fill="url(#paint2_linear_186_2911)"/>
</g>
<path d="M69.868 48.852V46.852L69.7146 50.8461L69.868 48.852ZM76.872 54.36L78.8491 54.662L78.8505 54.6524L78.8519 54.6428L76.872 54.36ZM74.016 73.06V75.06H75.7337L75.9931 73.362L74.016 73.06ZM61.096 73.06L59.1188 72.759L58.7685 75.06H61.096V73.06ZM64.088 53.408L66.0652 53.709L66.4155 51.408H64.088V53.408ZM41.308 53.408V51.408H39.5895L39.3308 53.107L41.308 53.408ZM38.316 73.06V75.06H40.0345L40.2932 73.361L38.316 73.06ZM25.464 73.06L23.4866 72.7601L23.1378 75.06H25.464V73.06ZM32.672 25.528V23.528H30.9524L30.6946 25.2281L32.672 25.528ZM45.592 25.528L47.5683 25.8348L47.9264 23.528H45.592V25.528ZM42.668 44.364L40.6917 44.0572L40.3336 46.364H42.668V44.364ZM65.448 44.364V46.364H67.1676L67.4254 44.6638L65.448 44.364ZM68.304 25.528V23.528H66.5844L66.3266 25.2282L68.304 25.528ZM81.224 25.528L83.2013 25.8287L83.5512 23.528H81.224V25.528ZM78.504 43.412L80.4782 43.7321L80.4798 43.7224L80.4813 43.7127L78.504 43.412ZM75.172 47.492L74.2287 45.7284L74.221 45.7326L75.172 47.492ZM69.7146 50.8461C71.9266 51.0163 73.2866 51.4655 74.0443 51.9828C74.6768 52.4145 74.94 52.9124 74.94 53.68H78.94C78.94 51.5916 78.0246 49.8568 76.2997 48.6792C74.7001 47.5872 72.5241 47.0504 70.0214 46.8579L69.7146 50.8461ZM74.94 53.68C74.94 53.6522 74.9414 53.6681 74.9329 53.753C74.9253 53.8296 74.9123 53.9361 74.8921 54.0772L78.8519 54.6428C78.8976 54.3232 78.94 53.9719 78.94 53.68H74.94ZM74.8949 54.058L72.0389 72.758L75.9931 73.362L78.8491 54.662L74.8949 54.058ZM74.016 71.06H61.096V75.06H74.016V71.06ZM63.0732 73.361L66.0652 53.709L62.1108 53.107L59.1188 72.759L63.0732 73.361ZM64.088 51.408H41.308V55.408H64.088V51.408ZM39.3308 53.107L36.3388 72.759L40.2932 73.361L43.2852 53.709L39.3308 53.107ZM38.316 71.06H25.464V75.06H38.316V71.06ZM27.4414 73.3599L34.6494 25.8279L30.6946 25.2281L23.4866 72.7601L27.4414 73.3599ZM32.672 27.528H45.592V23.528H32.672V27.528ZM43.6157 25.2212L40.6917 44.0572L44.6443 44.6708L47.5683 25.8348L43.6157 25.2212ZM42.668 46.364H65.448V42.364H42.668V46.364ZM67.4254 44.6638L70.2814 25.8278L66.3266 25.2282L63.4706 44.0642L67.4254 44.6638ZM68.304 27.528H81.224V23.528H68.304V27.528ZM79.2467 25.2273L76.5267 43.1113L80.4813 43.7127L83.2013 25.8287L79.2467 25.2273ZM76.5298 43.0919C76.3864 43.9764 75.8087 44.8833 74.2287 45.7284L76.1153 49.2556C78.434 48.0153 80.0777 46.2023 80.4782 43.7321L76.5298 43.0919ZM74.221 45.7326C72.8279 46.4856 71.3858 46.852 69.868 46.852V50.852C72.0676 50.852 74.1614 50.3117 76.123 49.2514L74.221 45.7326ZM95.9832 66.26V68.26H97.5998L97.9387 66.6793L95.9832 66.26ZM83.1312 66.26L81.1748 65.8444L80.6617 68.26H83.1312V66.26ZM90.3392 32.328V30.328H88.7194L88.3828 31.9124L90.3392 32.328ZM103.259 32.328L105.215 32.7473L105.734 30.328H103.259V32.328ZM95.9832 64.26H83.1312V68.26H95.9832V64.26ZM85.0875 66.6756L92.2955 32.7436L88.3828 31.9124L81.1748 65.8444L85.0875 66.6756ZM90.3392 34.328H103.259V30.328H90.3392V34.328ZM101.304 31.9087L94.0276 65.8407L97.9387 66.6793L105.215 32.7473L101.304 31.9087ZM154.221 66.26V68.26H155.839L156.177 66.6785L154.221 66.26ZM141.301 66.26L139.345 65.8436L138.831 68.26H141.301V66.26ZM147.149 38.788L149.106 39.2044L149.62 36.788H147.149V38.788ZM124.369 38.788V36.788H122.75L122.413 38.3716L124.369 38.788ZM118.521 66.26V68.26H120.141L120.478 66.6764L118.521 66.26ZM105.669 66.26L103.713 65.8444L103.2 68.26H105.669V66.26ZM112.877 32.328V30.328H111.258L110.921 31.9124L112.877 32.328ZM157.485 33.076L158.094 31.1707L158.085 31.168L157.485 33.076ZM154.221 64.26H141.301V68.26H154.221V64.26ZM143.258 66.6764L149.106 39.2044L145.193 38.3716L139.345 65.8436L143.258 66.6764ZM147.149 36.788H124.369V40.788H147.149V36.788ZM122.413 38.3716L116.565 65.8436L120.478 66.6764L126.326 39.2044L122.413 38.3716ZM118.521 64.26H105.669V68.26H118.521V64.26ZM107.626 66.6756L114.834 32.7436L110.921 31.9124L103.713 65.8444L107.626 66.6756ZM112.877 34.328H152.793V30.328H112.877V34.328ZM152.793 34.328C154.116 34.328 155.478 34.5415 156.886 34.984L158.085 31.168C156.32 30.6132 154.554 30.328 152.793 30.328V34.328ZM156.877 34.9813C157.824 35.2834 158.34 35.5795 158.586 35.7891C158.786 35.9594 158.681 35.9504 158.681 35.796H162.681C162.681 34.5083 162.044 33.4793 161.179 32.7429C160.36 32.0458 159.278 31.5486 158.094 31.1707L156.877 34.9813ZM158.681 35.796C158.681 35.5948 158.719 35.4126 158.703 35.5123C158.702 35.5174 158.698 35.5366 158.691 35.5764C158.676 35.6534 158.653 35.7721 158.62 35.9369C158.554 36.2644 158.454 36.7492 158.32 37.3941C158.051 38.6825 157.648 40.595 157.11 43.1331C156.034 48.2086 154.419 55.7778 152.266 65.8415L156.177 66.6785C158.331 56.6142 159.946 49.0421 161.023 43.9629C161.561 41.4237 161.966 39.5055 162.236 38.2099C162.37 37.5627 162.473 37.0673 162.541 36.7261C162.575 36.5566 162.602 36.4188 162.622 36.3173C162.631 36.2679 162.64 36.2174 162.648 36.1721C162.651 36.1505 162.657 36.1183 162.662 36.0823C162.664 36.0645 162.668 36.0356 162.671 36.0007C162.673 35.9781 162.681 35.8979 162.681 35.796H158.681ZM166.873 65.512L167.556 63.6324L167.545 63.6285L166.873 65.512ZM169.661 36.34L171.616 36.7604L171.618 36.7528L171.619 36.7452L169.661 36.34ZM173.673 33.212L174.284 35.1164L174.291 35.1141L173.673 33.212ZM215.153 33.076L214.537 34.9789L214.545 34.9813L215.153 33.076ZM217.261 41.168V43.168H218.879L219.217 41.5853L217.261 41.168ZM204.273 41.168L202.323 40.7223L201.764 43.168H204.273V41.168ZM204.817 38.788L206.766 39.2336L207.325 36.788H204.817V38.788ZM182.037 38.788V36.788H180.414L180.079 38.3763L182.037 38.788ZM177.617 59.8L175.659 59.3883L175.152 61.8H177.617V59.8ZM200.329 59.8V61.8H201.942L202.283 60.2227L200.329 59.8ZM201.961 52.252L203.915 52.6747L204.439 50.252H201.961V52.252ZM192.917 52.252L190.96 51.84L190.452 54.252H192.917V52.252ZM194.277 45.792V43.792H192.654L192.32 45.38L194.277 45.792ZM216.241 45.792L218.198 46.2028L218.704 43.792H216.241V45.792ZM212.773 62.316L214.728 62.7351L214.73 62.7268L212.773 62.316ZM209.033 65.376L208.377 63.4865L208.372 63.4883L209.033 65.376ZM203.865 64.328H171.293V68.328H203.865V64.328ZM171.293 64.328C170.097 64.328 168.854 64.1045 167.556 63.6324L166.189 67.3916C167.883 68.0075 169.587 68.328 171.293 68.328V64.328ZM167.545 63.6285C166.737 63.3398 166.319 63.0603 166.128 62.8739C166.042 62.7899 166.02 62.7426 166.018 62.7381C166.016 62.7348 166.017 62.7352 166.017 62.7373C166.018 62.7392 166.017 62.7357 166.017 62.724H162.017C162.017 65.2656 164.134 66.6576 166.2 67.3955L167.545 63.6285ZM166.017 62.724C166.017 62.8145 166.01 62.8847 166.008 62.907C166.005 62.9386 166.002 62.9636 166 62.9775C165.997 63.0054 165.993 63.0262 165.992 63.0334C165.99 63.0495 165.988 63.0587 165.989 63.0543C165.99 63.0481 165.993 63.0304 166 62.9963C166.013 62.9303 166.034 62.8287 166.063 62.6883C166.121 62.4091 166.209 61.993 166.326 61.4383C166.561 60.3297 166.913 58.6767 167.383 56.4784C168.324 52.0821 169.735 45.5096 171.616 36.7604L167.705 35.9196C165.824 44.669 164.413 51.2432 163.472 55.6416C163.001 57.8406 162.648 59.4969 162.413 60.6097C162.295 61.1657 162.206 61.5882 162.147 61.8757C162.117 62.0187 162.094 62.1323 162.077 62.2137C162.069 62.2533 162.062 62.2922 162.056 62.3257C162.053 62.3411 162.048 62.3659 162.044 62.3933C162.042 62.4062 162.038 62.4317 162.034 62.4631C162.032 62.4787 162.028 62.5052 162.025 62.5381C162.023 62.5616 162.017 62.6328 162.017 62.724H166.017ZM171.619 36.7452C171.652 36.5868 171.974 35.8574 174.284 35.1164L173.062 31.3076C170.566 32.108 168.213 33.4639 167.702 35.9348L171.619 36.7452ZM174.291 35.1141C175.915 34.5863 177.52 34.328 179.113 34.328V30.328C177.079 30.328 175.057 30.6591 173.054 31.3099L174.291 35.1141ZM179.113 34.328H210.461V30.328H179.113V34.328ZM210.461 34.328C211.834 34.328 213.19 34.5432 214.537 34.9789L215.768 31.1731C214.032 30.6115 212.261 30.328 210.461 30.328V34.328ZM214.545 34.9813C215.491 35.2834 216.007 35.5795 216.253 35.7891C216.454 35.9594 216.349 35.9504 216.349 35.796H220.349C220.349 34.5083 219.711 33.4793 218.846 32.7429C218.027 32.0458 216.945 31.5486 215.761 31.1707L214.545 34.9813ZM216.349 35.796C216.349 35.6355 216.372 35.5243 216.355 35.6324C216.348 35.6789 216.335 35.7563 216.314 35.872C216.272 36.1009 216.206 36.4342 216.116 36.878C215.937 37.763 215.667 39.0526 215.305 40.7507L219.217 41.5853C219.58 39.8834 219.853 38.5777 220.037 37.672C220.128 37.2204 220.199 36.8596 220.248 36.5955C220.272 36.4647 220.292 36.3459 220.308 36.2464C220.314 36.2087 220.349 36.0019 220.349 35.796H216.349ZM217.261 39.168H204.273V43.168H217.261V39.168ZM206.222 41.6136L206.766 39.2336L202.867 38.3423L202.323 40.7223L206.222 41.6136ZM204.817 36.788H182.037V40.788H204.817V36.788ZM180.079 38.3763L175.659 59.3883L179.574 60.2117L183.994 39.1997L180.079 38.3763ZM177.617 61.8H200.329V57.8H177.617V61.8ZM202.283 60.2227L203.915 52.6747L200.006 51.8293L198.374 59.3773L202.283 60.2227ZM201.961 50.252H192.917V54.252H201.961V50.252ZM194.874 52.664L196.234 46.204L192.32 45.38L190.96 51.84L194.874 52.664ZM194.277 47.792H216.241V43.792H194.277V47.792ZM214.283 45.3812L210.815 61.9052L214.73 62.7268L218.198 46.2028L214.283 45.3812ZM210.817 61.8969C210.78 62.0714 210.468 62.761 208.377 63.4865L209.688 67.2655C212.04 66.4496 214.222 65.0993 214.728 62.7351L210.817 61.8969ZM208.372 63.4883C206.734 64.0615 205.236 64.328 203.865 64.328V68.328C205.758 68.328 207.704 67.9598 209.693 67.2637L208.372 63.4883Z" fill="white"/>
<defs>
<filter id="filter0_f_186_2911" x="15.4641" y="15.528" width="212.885" height="67.532" filterUnits="userSpaceOnUse" color-interpolation-filters="sRGB">
<feFlood flood-opacity="0" result="BackgroundImageFix"/>
<feBlend mode="normal" in="SourceGraphic" in2="BackgroundImageFix" result="shape"/>
<feGaussianBlur stdDeviation="5" result="effect1_foregroundBlur_186_2911"/>
</filter>
<filter id="filter1_f_186_2911" x="5.46411" y="5.52802" width="232.885" height="87.532" filterUnits="userSpaceOnUse" color-interpolation-filters="sRGB">
<feFlood flood-opacity="0" result="BackgroundImageFix"/>
<feBlend mode="normal" in="SourceGraphic" in2="BackgroundImageFix" result="shape"/>
<feGaussianBlur stdDeviation="10" result="effect1_foregroundBlur_186_2911"/>
</filter>
<filter id="filter2_f_186_2911" x="0.464111" y="0.528015" width="242.885" height="97.532" filterUnits="userSpaceOnUse" color-interpolation-filters="sRGB">
<feFlood flood-opacity="0" result="BackgroundImageFix"/>
<feBlend mode="normal" in="SourceGraphic" in2="BackgroundImageFix" result="shape"/>
<feGaussianBlur stdDeviation="12.5" result="effect1_foregroundBlur_186_2911"/>
</filter>
<linearGradient id="paint0_linear_186_2911" x1="123.5" y1="16" x2="123.5" y2="84" gradientUnits="userSpaceOnUse">
<stop stop-color="#3BEDF9"/>
<stop offset="1" stop-color="#164FFF"/>
</linearGradient>
<linearGradient id="paint1_linear_186_2911" x1="123.5" y1="16" x2="123.5" y2="84" gradientUnits="userSpaceOnUse">
<stop stop-color="#3BEDF9"/>
<stop offset="1" stop-color="#164FFF"/>
</linearGradient>
<linearGradient id="paint2_linear_186_2911" x1="123.5" y1="16" x2="123.5" y2="84" gradientUnits="userSpaceOnUse">
<stop stop-color="#3BEDF9"/>
<stop offset="1" stop-color="#164FFF"/>
</linearGradient>
</defs>
</svg>
