<svg width="469" height="99" viewBox="0 0 469 99" fill="none" xmlns="http://www.w3.org/2000/svg">
<g filter="url(#filter0_f_186_2931)">
<path d="M74.016 73.06V75.06H75.7348L75.9933 73.3607L74.016 73.06ZM61.096 73.06L59.1187 72.7596L58.7692 75.06H61.096V73.06ZM66.944 34.572L68.9213 34.8724L69.2708 32.572H66.944V34.572ZM62.592 34.572V32.572H60.8729L60.6147 34.2716L62.592 34.572ZM56.744 73.06V75.06H58.4631L58.7213 73.3604L56.744 73.06ZM43.892 73.06L41.9147 72.7596L41.5652 75.06H43.892V73.06ZM49.74 34.572L51.7173 34.8724L52.0668 32.572H49.74V34.572ZM44.164 34.572V32.572H42.4449L42.1867 34.2716L44.164 34.572ZM38.316 73.06V75.06H40.0351L40.2933 73.3604L38.316 73.06ZM25.464 73.06L23.4866 72.7601L23.1378 75.06H25.464V73.06ZM32.672 25.528V23.528H30.9524L30.6946 25.2281L32.672 25.528ZM77.552 26.684L78.4297 24.8869L78.4258 24.885L77.552 26.684ZM80.408 31.036L78.4677 30.5509L78.4449 30.6422L78.4307 30.7353L80.408 31.036ZM74.016 71.06H61.096V75.06H74.016V71.06ZM63.0733 73.3604L68.9213 34.8724L64.9667 34.2716L59.1187 72.7596L63.0733 73.3604ZM66.944 32.572H62.592V36.572H66.944V32.572ZM60.6147 34.2716L54.7667 72.7596L58.7213 73.3604L64.5693 34.8724L60.6147 34.2716ZM56.744 71.06H43.892V75.06H56.744V71.06ZM45.8693 73.3604L51.7173 34.8724L47.7627 34.2716L41.9147 72.7596L45.8693 73.3604ZM49.74 32.572H44.164V36.572H49.74V32.572ZM42.1867 34.2716L36.3387 72.7596L40.2933 73.3604L46.1413 34.8724L42.1867 34.2716ZM38.316 71.06H25.464V75.06H38.316V71.06ZM27.4414 73.3599L34.6494 25.8279L30.6946 25.2281L23.4866 72.7601L27.4414 73.3599ZM32.672 27.528H72.588V23.528H32.672V27.528ZM72.588 27.528C74.0005 27.528 75.3571 27.8413 76.6782 28.483L78.4258 24.885C76.5736 23.9853 74.6208 23.528 72.588 23.528V27.528ZM76.6743 28.4811C78.2589 29.255 78.476 29.9495 78.476 30.424H82.476C82.476 27.8158 80.7438 26.017 78.4297 24.8869L76.6743 28.4811ZM78.476 30.424C78.476 30.5205 78.466 30.5576 78.4677 30.5509L82.3483 31.5211C82.4406 31.1517 82.476 30.7809 82.476 30.424H78.476ZM78.4307 30.7353L72.0387 72.7593L75.9933 73.3607L82.3853 31.3367L78.4307 30.7353ZM117.403 52.252L117.475 50.2533L115.798 50.1934L115.447 51.8342L117.403 52.252ZM114.411 66.26V68.26H116.029L116.367 66.6778L114.411 66.26ZM101.559 66.26L99.6033 65.8422L99.0869 68.26H101.559V66.26ZM104.551 52.252L106.507 52.6698L107.023 50.252H104.551V52.252ZM89.6592 51.504L90.3685 49.634L90.3614 49.6313L89.6592 51.504ZM88.4352 40.692L90.3885 41.1217L90.3887 41.1208L88.4352 40.692ZM90.2712 32.328V30.328H88.6626L88.3177 31.8992L90.2712 32.328ZM103.259 32.328L105.214 32.7524L105.74 30.328H103.259V32.328ZM100.335 45.792L98.3807 45.3675L97.8542 47.792H100.335V45.792ZM123.115 45.792V47.792H124.735L125.072 46.207L123.115 45.792ZM125.971 32.328V30.328H124.351L124.015 31.913L125.971 32.328ZM138.891 32.328L140.847 32.7459L141.364 30.328H138.891V32.328ZM135.491 48.24L133.535 47.8221L133.535 47.8231L135.491 48.24ZM119.307 52.32L119.379 50.3213L119.307 52.32ZM115.447 51.8342L112.455 65.8422L116.367 66.6778L119.359 52.6698L115.447 51.8342ZM114.411 64.26H101.559V68.26H114.411V64.26ZM103.515 66.6778L106.507 52.6698L102.595 51.8342L99.6033 65.8422L103.515 66.6778ZM104.551 50.252H94.0792V54.252H104.551V50.252ZM94.0792 50.252C92.6512 50.252 91.4233 50.0341 90.3685 49.634L88.9499 53.374C90.5244 53.9712 92.2432 54.252 94.0792 54.252V50.252ZM90.3614 49.6313C89.631 49.3574 89.266 49.0843 89.0991 48.9007C88.9711 48.7599 88.9392 48.6581 88.9392 48.512H84.9392C84.9392 51.0461 86.8003 52.5679 88.9569 53.3767L90.3614 49.6313ZM88.9392 48.512C88.9392 48.531 88.9386 48.4969 88.9511 48.3801C88.9626 48.2731 88.9816 48.1283 89.0101 47.9408C89.067 47.5656 89.1552 47.0622 89.2776 46.4228C89.5218 45.146 89.8913 43.3816 90.3885 41.1217L86.4819 40.2623C85.9817 42.5358 85.6032 44.3414 85.3488 45.6712C85.1123 46.9074 84.9392 47.9402 84.9392 48.512H88.9392ZM90.3887 41.1208L92.2247 32.7568L88.3177 31.8992L86.4817 40.2632L90.3887 41.1208ZM90.2712 34.328H103.259V30.328H90.2712V34.328ZM101.305 31.9035L98.3807 45.3675L102.29 46.2164L105.214 32.7524L101.305 31.9035ZM100.335 47.792H123.115V43.792H100.335V47.792ZM125.072 46.207L127.928 32.743L124.015 31.913L121.159 45.377L125.072 46.207ZM125.971 34.328H138.891V30.328H125.971V34.328ZM136.935 31.9101L133.535 47.8221L137.447 48.6579L140.847 32.7459L136.935 31.9101ZM133.535 47.8231C133.465 48.1515 133.112 48.8353 131.208 49.4467C129.349 50.0436 126.51 50.388 122.571 50.388V54.388C126.656 54.388 129.983 54.041 132.431 53.2553C134.833 52.484 136.928 51.0939 137.447 48.6569L133.535 47.8231ZM122.571 50.388C121.696 50.388 120.633 50.3661 119.379 50.3213L119.236 54.3187C120.52 54.3646 121.633 54.388 122.571 54.388V50.388ZM119.379 50.3213L117.475 50.2533L117.332 54.2507L119.236 54.3187L119.379 50.3213ZM144.402 65.512L145.086 63.6324L145.075 63.6285L144.402 65.512ZM142.634 57.42V55.42H141.016L140.678 57.0027L142.634 57.42ZM155.554 57.42L157.516 57.8122L157.994 55.42H155.554V57.42ZM155.078 59.8L153.117 59.4078L152.639 61.8H155.078V59.8ZM177.79 59.8V61.8H179.404L179.745 60.2227L177.79 59.8ZM179.422 52.252L181.377 52.6747L181.901 50.252H179.422V52.252ZM147.394 51.436L148.06 49.55L148.053 49.5476L147.394 51.436ZM147.122 36.34L149.077 36.7635L149.079 36.7544L149.081 36.7452L147.122 36.34ZM151.134 33.212L151.745 35.1164L151.753 35.1141L151.134 33.212ZM192.614 33.076L193.222 31.1707L193.214 31.168L192.614 33.076ZM194.722 41.168V43.168H196.341L196.678 41.5853L194.722 41.168ZM181.734 41.168L179.785 40.7223L179.226 43.168H181.734V41.168ZM182.278 38.788L184.228 39.2336L184.787 36.788H182.278V38.788ZM159.498 38.788V36.788H157.865L157.539 38.3885L159.498 38.788ZM158.07 45.792L156.111 45.3925L155.621 47.792H158.07V45.792ZM190.03 46.608L189.365 48.494L189.372 48.4964L190.03 46.608ZM190.234 62.316L192.19 62.7351L192.191 62.7322L190.234 62.316ZM186.494 65.376L185.839 63.4865L185.834 63.4883L186.494 65.376ZM181.326 64.328H148.754V68.328H181.326V64.328ZM148.754 64.328C147.611 64.328 146.392 64.1072 145.086 63.6324L143.719 67.3916C145.405 68.0048 147.087 68.328 148.754 68.328V64.328ZM145.075 63.6285C144.267 63.3398 143.848 63.0603 143.657 62.8739C143.571 62.7899 143.55 62.7426 143.548 62.7381C143.546 62.7348 143.547 62.7352 143.547 62.7373C143.547 62.7392 143.546 62.7357 143.546 62.724H139.546C139.546 65.2656 141.664 66.6576 143.73 67.3955L145.075 63.6285ZM143.546 62.724C143.546 62.9105 143.514 63.0563 143.536 62.9253C143.544 62.8797 143.557 62.8036 143.579 62.6902C143.622 62.4662 143.687 62.1371 143.778 61.6979C143.957 60.8218 144.228 59.5359 144.59 57.8373L140.678 57.0027C140.315 58.7041 140.042 60.0022 139.859 60.8941C139.768 61.3389 139.698 61.6898 139.65 61.9418C139.626 62.0664 139.606 62.1773 139.591 62.2677C139.59 62.2727 139.546 62.5035 139.546 62.724H143.546ZM142.634 59.42H155.554V55.42H142.634V59.42ZM153.593 57.0278L153.117 59.4078L157.04 60.1922L157.516 57.8122L153.593 57.0278ZM155.078 61.8H177.79V57.8H155.078V61.8ZM179.745 60.2227L181.377 52.6747L177.468 51.8293L175.836 59.3773L179.745 60.2227ZM179.422 50.252H151.746V54.252H179.422V50.252ZM151.746 50.252C150.654 50.252 149.429 50.0333 148.06 49.55L146.729 53.322C148.442 53.9267 150.119 54.252 151.746 54.252V50.252ZM148.053 49.5476C147.211 49.2537 146.768 48.9715 146.564 48.7816C146.406 48.6347 146.47 48.6296 146.47 48.716H142.47C142.47 51.267 144.699 52.6139 146.736 53.3244L148.053 49.5476ZM146.47 48.716C146.47 48.8021 146.465 48.8688 146.463 48.8921C146.46 48.9234 146.457 48.948 146.455 48.9617C146.451 48.9889 146.448 49.0085 146.447 49.0139C146.446 49.0262 146.445 49.0295 146.447 49.0169C146.451 48.9943 146.459 48.9527 146.473 48.8871C146.499 48.7579 146.539 48.564 146.594 48.3019C146.703 47.7794 146.868 47.0037 147.089 45.9731C147.53 43.9127 148.193 40.8432 149.077 36.7635L145.168 35.9165C144.284 39.9968 143.62 43.07 143.178 45.1349C142.957 46.167 142.79 46.9496 142.679 47.4811C142.623 47.746 142.58 47.953 142.551 48.0987C142.537 48.1704 142.524 48.2347 142.514 48.2865C142.51 48.3111 142.504 48.3437 142.498 48.3775C142.496 48.3935 142.491 48.4219 142.487 48.4559C142.487 48.4593 142.47 48.5744 142.47 48.716H146.47ZM149.081 36.7452C149.114 36.5868 149.435 35.8574 151.745 35.1164L150.524 31.3076C148.028 32.108 145.675 33.4639 145.164 35.9348L149.081 36.7452ZM151.753 35.1141C153.377 34.5863 154.982 34.328 156.574 34.328V30.328C154.541 30.328 152.519 30.6591 150.516 31.3099L151.753 35.1141ZM156.574 34.328H187.922V30.328H156.574V34.328ZM187.922 34.328C189.245 34.328 190.607 34.5415 192.015 34.984L193.214 31.168C191.449 30.6132 189.683 30.328 187.922 30.328V34.328ZM192.006 34.9813C192.953 35.2834 193.469 35.5795 193.715 35.7891C193.915 35.9594 193.81 35.9504 193.81 35.796H197.81C197.81 34.5083 197.173 33.4793 196.308 32.7429C195.488 32.0458 194.407 31.5486 193.222 31.1707L192.006 34.9813ZM193.81 35.796C193.81 35.6355 193.834 35.5243 193.817 35.6324C193.81 35.6789 193.797 35.7563 193.775 35.872C193.733 36.1009 193.668 36.4342 193.578 36.878C193.399 37.763 193.129 39.0526 192.766 40.7507L196.678 41.5853C197.041 39.8834 197.315 38.5777 197.499 37.672C197.59 37.2204 197.661 36.8596 197.709 36.5955C197.733 36.4647 197.754 36.3459 197.77 36.2464C197.776 36.2087 197.81 36.0019 197.81 35.796H193.81ZM194.722 39.168H181.734V43.168H194.722V39.168ZM183.684 41.6136L184.228 39.2336L180.329 38.3423L179.785 40.7223L183.684 41.6136ZM182.278 36.788H159.498V40.788H182.278V36.788ZM157.539 38.3885L156.111 45.3925L160.03 46.1915L161.458 39.1875L157.539 38.3885ZM158.07 47.792H185.678V43.792H158.07V47.792ZM185.678 47.792C186.771 47.792 187.995 48.0107 189.365 48.494L190.696 44.722C188.983 44.1173 187.306 43.792 185.678 43.792V47.792ZM189.372 48.4964C190.214 48.7903 190.657 49.0725 190.861 49.2624C191.019 49.4093 190.954 49.4144 190.954 49.328H194.954C194.954 46.777 192.726 45.4301 190.689 44.7196L189.372 48.4964ZM190.954 49.328C190.954 49.2209 190.964 49.1388 190.965 49.1264C190.968 49.0984 190.971 49.0782 190.972 49.0712C190.974 49.0565 190.975 49.0518 190.973 49.0642C190.969 49.0868 190.961 49.1299 190.948 49.1996C190.921 49.3365 190.881 49.5413 190.824 49.8183C190.712 50.3703 190.543 51.1857 190.317 52.267C189.864 54.4285 189.185 57.639 188.278 61.8998L192.191 62.7322C193.097 58.4704 193.778 55.2548 194.232 53.087C194.459 52.0036 194.63 51.1785 194.744 50.6142C194.801 50.333 194.846 50.1107 194.876 49.9515C194.891 49.8732 194.905 49.801 194.915 49.741C194.92 49.7122 194.926 49.6745 194.932 49.6349C194.935 49.6154 194.939 49.5848 194.943 49.5485C194.945 49.5278 194.954 49.4393 194.954 49.328H190.954ZM188.279 61.8969C188.241 62.0714 187.93 62.761 185.839 63.4865L187.15 67.2655C189.502 66.4496 191.683 65.0993 192.19 62.7351L188.279 61.8969ZM185.834 63.4883C184.196 64.0615 182.698 64.328 181.326 64.328V68.328C183.219 68.328 185.166 67.9598 187.155 67.2637L185.834 63.4883ZM252.866 38.788V40.788H254.488L254.823 39.2L252.866 38.788ZM235.594 38.788V36.788H233.974L233.637 38.3716L235.594 38.788ZM229.746 66.26V68.26H231.365L231.702 66.6764L229.746 66.26ZM216.894 66.26L214.937 65.8436L214.423 68.26H216.894V66.26ZM222.742 38.788L224.698 39.2044L225.212 36.788H222.742V38.788ZM204.314 38.788L202.356 38.376L201.849 40.788H204.314V38.788ZM205.674 32.328V30.328H204.051L203.716 31.916L205.674 32.328ZM254.226 32.328L256.183 32.74L256.69 30.328H254.226V32.328ZM252.866 36.788H235.594V40.788H252.866V36.788ZM233.637 38.3716L227.789 65.8436L231.702 66.6764L237.55 39.2044L233.637 38.3716ZM229.746 64.26H216.894V68.26H229.746V64.26ZM218.85 66.6764L224.698 39.2044L220.785 38.3716L214.937 65.8436L218.85 66.6764ZM222.742 36.788H204.314V40.788H222.742V36.788ZM206.271 39.2L207.631 32.74L203.716 31.916L202.356 38.376L206.271 39.2ZM205.674 34.328H254.226V30.328H205.674V34.328ZM252.268 31.916L250.908 38.376L254.823 39.2L256.183 32.74L252.268 31.916ZM268.985 66.26V68.26H270.601L270.94 66.6793L268.985 66.26ZM256.133 66.26L254.176 65.8444L253.663 68.26H256.133V66.26ZM263.341 32.328V30.328H261.721L261.384 31.9124L263.341 32.328ZM276.261 32.328L278.216 32.7473L278.735 30.328H276.261V32.328ZM268.985 64.26H256.133V68.26H268.985V64.26ZM258.089 66.6756L265.297 32.7436L261.384 31.9124L254.176 65.8444L258.089 66.6756ZM263.341 34.328H276.261V30.328H263.341V34.328ZM274.305 31.9087L267.029 65.8407L270.94 66.6793L278.216 32.7473L274.305 31.9087ZM282.207 65.512L282.891 63.6324L282.88 63.6285L282.207 65.512ZM284.995 36.34L286.95 36.7604L286.952 36.7528L286.954 36.7452L284.995 36.34ZM289.007 33.212L289.618 35.1164L289.625 35.1141L289.007 33.212ZM330.487 33.076L329.871 34.9789L329.879 34.9813L330.487 33.076ZM332.595 41.168V43.168H334.213L334.551 41.5853L332.595 41.168ZM319.607 41.168L317.657 40.7223L317.098 43.168H319.607V41.168ZM320.151 38.788L322.101 39.2336L322.66 36.788H320.151V38.788ZM297.371 38.788V36.788H295.748L295.414 38.3763L297.371 38.788ZM292.951 59.8L290.994 59.3883L290.487 61.8H292.951V59.8ZM315.663 59.8V61.8H317.257L317.613 60.2456L315.663 59.8ZM316.207 57.42V55.42H314.613L314.257 56.9743L316.207 57.42ZM329.127 57.42L331.085 57.8279L331.587 55.42H329.127V57.42ZM328.107 62.316L330.063 62.7351L330.065 62.7239L328.107 62.316ZM324.367 65.376L323.711 63.4865L323.701 63.49L323.691 63.4936L324.367 65.376ZM319.199 64.328H286.627V68.328H319.199V64.328ZM286.627 64.328C285.431 64.328 284.189 64.1045 282.891 63.6324L281.524 67.3916C283.217 68.0075 284.922 68.328 286.627 68.328V64.328ZM282.88 63.6285C282.071 63.3398 281.653 63.0603 281.462 62.8739C281.376 62.7899 281.354 62.7426 281.352 62.7381C281.351 62.7348 281.351 62.7352 281.352 62.7373C281.352 62.7392 281.351 62.7357 281.351 62.724H277.351C277.351 65.2656 279.468 66.6576 281.534 67.3955L282.88 63.6285ZM281.351 62.724C281.351 62.8145 281.345 62.8847 281.343 62.907C281.34 62.9386 281.337 62.9636 281.335 62.9775C281.331 63.0054 281.328 63.0262 281.327 63.0334C281.324 63.0495 281.322 63.0587 281.323 63.0543C281.324 63.0481 281.328 63.0304 281.334 62.9963C281.348 62.9303 281.368 62.8287 281.398 62.6883C281.455 62.4091 281.543 61.993 281.66 61.4383C281.895 60.3297 282.248 58.6767 282.718 56.4784C283.658 52.0821 285.069 45.5096 286.95 36.7604L283.04 35.9196C281.158 44.669 279.747 51.2432 278.806 55.6416C278.336 57.8406 277.983 59.4969 277.747 60.6097C277.629 61.1657 277.541 61.5882 277.481 61.8757C277.451 62.0187 277.428 62.1323 277.412 62.2137C277.404 62.2533 277.396 62.2922 277.39 62.3257C277.387 62.3411 277.383 62.3659 277.378 62.3933C277.376 62.4062 277.372 62.4317 277.368 62.4631C277.366 62.4787 277.363 62.5052 277.36 62.5381C277.357 62.5616 277.351 62.6328 277.351 62.724H281.351ZM286.954 36.7452C286.986 36.5868 287.308 35.8574 289.618 35.1164L288.396 31.3076C285.901 32.108 283.548 33.4639 283.037 35.9348L286.954 36.7452ZM289.625 35.1141C291.249 34.5863 292.854 34.328 294.447 34.328V30.328C292.413 30.328 290.392 30.6591 288.389 31.3099L289.625 35.1141ZM294.447 34.328H325.795V30.328H294.447V34.328ZM325.795 34.328C327.168 34.328 328.525 34.5432 329.871 34.9789L331.103 31.1731C329.367 30.6115 327.595 30.328 325.795 30.328V34.328ZM329.879 34.9813C330.825 35.2834 331.342 35.5795 331.588 35.7891C331.788 35.9594 331.683 35.9504 331.683 35.796H335.683C335.683 34.5083 335.045 33.4793 334.18 32.7429C333.361 32.0458 332.279 31.5486 331.095 31.1707L329.879 34.9813ZM331.683 35.796C331.683 35.6355 331.707 35.5243 331.69 35.6324C331.683 35.6789 331.669 35.7563 331.648 35.872C331.606 36.1009 331.541 36.4342 331.451 36.878C331.272 37.763 331.001 39.0526 330.639 40.7507L334.551 41.5853C334.914 39.8834 335.188 38.5777 335.371 37.672C335.463 37.2204 335.533 36.8596 335.582 36.5955C335.606 36.4647 335.627 36.3459 335.642 36.2464C335.648 36.2087 335.683 36.0019 335.683 35.796H331.683ZM332.595 39.168H319.607V43.168H332.595V39.168ZM321.557 41.6136L322.101 39.2336L318.201 38.3423L317.657 40.7223L321.557 41.6136ZM320.151 36.788H297.371V40.788H320.151V36.788ZM295.414 38.3763L290.994 59.3883L294.908 60.2117L299.328 39.1997L295.414 38.3763ZM292.951 61.8H315.663V57.8H292.951V61.8ZM317.613 60.2456L318.157 57.8657L314.257 56.9743L313.713 59.3544L317.613 60.2456ZM316.207 59.42H329.127V55.42H316.207V59.42ZM327.169 57.0121L326.149 61.9081L330.065 62.7239L331.085 57.8279L327.169 57.0121ZM326.151 61.8969C326.114 62.0714 325.802 62.761 323.711 63.4865L325.023 67.2655C327.374 66.4496 329.556 65.0993 330.063 62.7351L326.151 61.8969ZM323.691 63.4936C322.114 64.0597 320.62 64.328 319.199 64.328V68.328C321.133 68.328 323.084 67.9616 325.043 67.2584L323.691 63.4936ZM384.89 66.26V68.26H386.508L386.846 66.6785L384.89 66.26ZM371.97 66.26L370.014 65.8442L369.5 68.26H371.97V66.26ZM374.962 52.184L376.918 52.5998L377.432 50.184H374.962V52.184ZM352.182 52.184V50.184H350.563L350.226 51.7682L352.182 52.184ZM349.19 66.26V68.26H350.81L351.147 66.6758L349.19 66.26ZM336.27 66.26L334.314 65.8422L333.798 68.26H336.27V66.26ZM342.662 36.34L344.618 36.7578L344.621 36.7451L344.623 36.7322L342.662 36.34ZM346.674 33.144L347.285 35.0484L347.292 35.0461L346.674 33.144ZM388.154 33.008L387.539 34.9109L387.546 34.9133L388.154 33.008ZM376.254 45.724V47.724H377.869L378.209 46.1457L376.254 45.724ZM377.75 38.788L379.705 39.2097L380.228 36.788H377.75V38.788ZM355.106 38.788V36.788H353.476L353.147 38.3847L355.106 38.788ZM353.678 45.724L351.719 45.3207L351.224 47.724H353.678V45.724ZM384.89 64.26H371.97V68.26H384.89V64.26ZM373.927 66.6758L376.918 52.5998L373.006 51.7682L370.014 65.8442L373.927 66.6758ZM374.962 50.184H352.182V54.184H374.962V50.184ZM350.226 51.7682L347.234 65.8442L351.147 66.6758L354.138 52.5998L350.226 51.7682ZM349.19 64.26H336.27V68.26H349.19V64.26ZM338.226 66.6778L344.618 36.7578L340.706 35.9222L334.314 65.8422L338.226 66.6778ZM344.623 36.7322C344.666 36.5212 345.006 35.7795 347.285 35.0484L346.063 31.2396C343.537 32.0498 341.203 33.4388 340.701 35.9478L344.623 36.7322ZM347.292 35.0461C348.916 34.5183 350.521 34.26 352.114 34.26V30.26C350.08 30.26 348.059 30.5911 346.056 31.2419L347.292 35.0461ZM352.114 34.26H383.462V30.26H352.114V34.26ZM383.462 34.26C384.835 34.26 386.192 34.4752 387.539 34.9109L388.77 31.1051C387.034 30.5435 385.262 30.26 383.462 30.26V34.26ZM387.546 34.9133C388.486 35.2132 388.995 35.5111 389.236 35.7221C389.429 35.8899 389.35 35.8996 389.35 35.796H393.35C393.35 34.5137 392.739 33.4694 391.866 32.7079C391.042 31.9895 389.953 31.4828 388.762 31.1027L387.546 34.9133ZM389.35 35.796C389.35 35.5948 389.388 35.4126 389.371 35.5123C389.37 35.5174 389.367 35.5366 389.36 35.5764C389.345 35.6534 389.322 35.7721 389.289 35.9369C389.223 36.2644 389.123 36.7492 388.988 37.3941C388.72 38.6825 388.317 40.595 387.779 43.1331C386.702 48.2086 385.088 55.7778 382.934 65.8415L386.846 66.6785C388.999 56.6142 390.615 49.0421 391.692 43.9629C392.23 41.4237 392.634 39.5055 392.904 38.2099C393.039 37.5627 393.141 37.0673 393.21 36.7261C393.244 36.5566 393.271 36.4188 393.29 36.3173C393.3 36.2679 393.309 36.2174 393.316 36.1721C393.32 36.1505 393.325 36.1183 393.33 36.0823C393.333 36.0645 393.336 36.0356 393.34 36.0007C393.342 35.9781 393.35 35.8979 393.35 35.796H389.35ZM378.209 46.1457L379.705 39.2097L375.795 38.3663L374.299 45.3023L378.209 46.1457ZM377.75 36.788H355.106V40.788H377.75V36.788ZM353.147 38.3847L351.719 45.3207L355.637 46.1273L357.065 39.1913L353.147 38.3847ZM353.678 47.724H376.254V43.724H353.678V47.724ZM442.557 66.26V68.26H444.18L444.515 66.672L442.557 66.26ZM394.005 66.26L392.049 65.8444L391.536 68.26H394.005V66.26ZM401.213 32.328V30.328H399.594L399.257 31.9124L401.213 32.328ZM414.133 32.328L416.09 32.7444L416.604 30.328H414.133V32.328ZM408.285 59.8L406.329 59.3836L405.815 61.8H408.285V59.8ZM443.917 59.8L445.875 60.212L446.382 57.8H443.917V59.8ZM442.557 64.26H394.005V68.26H442.557V64.26ZM395.962 66.6756L403.17 32.7436L399.257 31.9124L392.049 65.8444L395.962 66.6756ZM401.213 34.328H414.133V30.328H401.213V34.328ZM412.177 31.9116L406.329 59.3836L410.242 60.2164L416.09 32.7444L412.177 31.9116ZM408.285 61.8H443.917V57.8H408.285V61.8ZM441.96 59.388L440.6 65.848L444.515 66.672L445.875 60.212L441.96 59.388Z" fill="url(#paint0_linear_186_2931)"/>
</g>
<g filter="url(#filter1_f_186_2931)">
<path d="M74.016 73.06V75.06H75.7348L75.9933 73.3607L74.016 73.06ZM61.096 73.06L59.1187 72.7596L58.7692 75.06H61.096V73.06ZM66.944 34.572L68.9213 34.8724L69.2708 32.572H66.944V34.572ZM62.592 34.572V32.572H60.8729L60.6147 34.2716L62.592 34.572ZM56.744 73.06V75.06H58.4631L58.7213 73.3604L56.744 73.06ZM43.892 73.06L41.9147 72.7596L41.5652 75.06H43.892V73.06ZM49.74 34.572L51.7173 34.8724L52.0668 32.572H49.74V34.572ZM44.164 34.572V32.572H42.4449L42.1867 34.2716L44.164 34.572ZM38.316 73.06V75.06H40.0351L40.2933 73.3604L38.316 73.06ZM25.464 73.06L23.4866 72.7601L23.1378 75.06H25.464V73.06ZM32.672 25.528V23.528H30.9524L30.6946 25.2281L32.672 25.528ZM77.552 26.684L78.4297 24.8869L78.4258 24.885L77.552 26.684ZM80.408 31.036L78.4677 30.5509L78.4449 30.6422L78.4307 30.7353L80.408 31.036ZM74.016 71.06H61.096V75.06H74.016V71.06ZM63.0733 73.3604L68.9213 34.8724L64.9667 34.2716L59.1187 72.7596L63.0733 73.3604ZM66.944 32.572H62.592V36.572H66.944V32.572ZM60.6147 34.2716L54.7667 72.7596L58.7213 73.3604L64.5693 34.8724L60.6147 34.2716ZM56.744 71.06H43.892V75.06H56.744V71.06ZM45.8693 73.3604L51.7173 34.8724L47.7627 34.2716L41.9147 72.7596L45.8693 73.3604ZM49.74 32.572H44.164V36.572H49.74V32.572ZM42.1867 34.2716L36.3387 72.7596L40.2933 73.3604L46.1413 34.8724L42.1867 34.2716ZM38.316 71.06H25.464V75.06H38.316V71.06ZM27.4414 73.3599L34.6494 25.8279L30.6946 25.2281L23.4866 72.7601L27.4414 73.3599ZM32.672 27.528H72.588V23.528H32.672V27.528ZM72.588 27.528C74.0005 27.528 75.3571 27.8413 76.6782 28.483L78.4258 24.885C76.5736 23.9853 74.6208 23.528 72.588 23.528V27.528ZM76.6743 28.4811C78.2589 29.255 78.476 29.9495 78.476 30.424H82.476C82.476 27.8158 80.7438 26.017 78.4297 24.8869L76.6743 28.4811ZM78.476 30.424C78.476 30.5205 78.466 30.5576 78.4677 30.5509L82.3483 31.5211C82.4406 31.1517 82.476 30.7809 82.476 30.424H78.476ZM78.4307 30.7353L72.0387 72.7593L75.9933 73.3607L82.3853 31.3367L78.4307 30.7353ZM117.403 52.252L117.475 50.2533L115.798 50.1934L115.447 51.8342L117.403 52.252ZM114.411 66.26V68.26H116.029L116.367 66.6778L114.411 66.26ZM101.559 66.26L99.6033 65.8422L99.0869 68.26H101.559V66.26ZM104.551 52.252L106.507 52.6698L107.023 50.252H104.551V52.252ZM89.6592 51.504L90.3685 49.634L90.3614 49.6313L89.6592 51.504ZM88.4352 40.692L90.3885 41.1217L90.3887 41.1208L88.4352 40.692ZM90.2712 32.328V30.328H88.6626L88.3177 31.8992L90.2712 32.328ZM103.259 32.328L105.214 32.7524L105.74 30.328H103.259V32.328ZM100.335 45.792L98.3807 45.3675L97.8542 47.792H100.335V45.792ZM123.115 45.792V47.792H124.735L125.072 46.207L123.115 45.792ZM125.971 32.328V30.328H124.351L124.015 31.913L125.971 32.328ZM138.891 32.328L140.847 32.7459L141.364 30.328H138.891V32.328ZM135.491 48.24L133.535 47.8221L133.535 47.8231L135.491 48.24ZM119.307 52.32L119.379 50.3213L119.307 52.32ZM115.447 51.8342L112.455 65.8422L116.367 66.6778L119.359 52.6698L115.447 51.8342ZM114.411 64.26H101.559V68.26H114.411V64.26ZM103.515 66.6778L106.507 52.6698L102.595 51.8342L99.6033 65.8422L103.515 66.6778ZM104.551 50.252H94.0792V54.252H104.551V50.252ZM94.0792 50.252C92.6512 50.252 91.4233 50.0341 90.3685 49.634L88.9499 53.374C90.5244 53.9712 92.2432 54.252 94.0792 54.252V50.252ZM90.3614 49.6313C89.631 49.3574 89.266 49.0843 89.0991 48.9007C88.9711 48.7599 88.9392 48.6581 88.9392 48.512H84.9392C84.9392 51.0461 86.8003 52.5679 88.9569 53.3767L90.3614 49.6313ZM88.9392 48.512C88.9392 48.531 88.9386 48.4969 88.9511 48.3801C88.9626 48.2731 88.9816 48.1283 89.0101 47.9408C89.067 47.5656 89.1552 47.0622 89.2776 46.4228C89.5218 45.146 89.8913 43.3816 90.3885 41.1217L86.4819 40.2623C85.9817 42.5358 85.6032 44.3414 85.3488 45.6712C85.1123 46.9074 84.9392 47.9402 84.9392 48.512H88.9392ZM90.3887 41.1208L92.2247 32.7568L88.3177 31.8992L86.4817 40.2632L90.3887 41.1208ZM90.2712 34.328H103.259V30.328H90.2712V34.328ZM101.305 31.9035L98.3807 45.3675L102.29 46.2164L105.214 32.7524L101.305 31.9035ZM100.335 47.792H123.115V43.792H100.335V47.792ZM125.072 46.207L127.928 32.743L124.015 31.913L121.159 45.377L125.072 46.207ZM125.971 34.328H138.891V30.328H125.971V34.328ZM136.935 31.9101L133.535 47.8221L137.447 48.6579L140.847 32.7459L136.935 31.9101ZM133.535 47.8231C133.465 48.1515 133.112 48.8353 131.208 49.4467C129.349 50.0436 126.51 50.388 122.571 50.388V54.388C126.656 54.388 129.983 54.041 132.431 53.2553C134.833 52.484 136.928 51.0939 137.447 48.6569L133.535 47.8231ZM122.571 50.388C121.696 50.388 120.633 50.3661 119.379 50.3213L119.236 54.3187C120.52 54.3646 121.633 54.388 122.571 54.388V50.388ZM119.379 50.3213L117.475 50.2533L117.332 54.2507L119.236 54.3187L119.379 50.3213ZM144.402 65.512L145.086 63.6324L145.075 63.6285L144.402 65.512ZM142.634 57.42V55.42H141.016L140.678 57.0027L142.634 57.42ZM155.554 57.42L157.516 57.8122L157.994 55.42H155.554V57.42ZM155.078 59.8L153.117 59.4078L152.639 61.8H155.078V59.8ZM177.79 59.8V61.8H179.404L179.745 60.2227L177.79 59.8ZM179.422 52.252L181.377 52.6747L181.901 50.252H179.422V52.252ZM147.394 51.436L148.06 49.55L148.053 49.5476L147.394 51.436ZM147.122 36.34L149.077 36.7635L149.079 36.7544L149.081 36.7452L147.122 36.34ZM151.134 33.212L151.745 35.1164L151.753 35.1141L151.134 33.212ZM192.614 33.076L193.222 31.1707L193.214 31.168L192.614 33.076ZM194.722 41.168V43.168H196.341L196.678 41.5853L194.722 41.168ZM181.734 41.168L179.785 40.7223L179.226 43.168H181.734V41.168ZM182.278 38.788L184.228 39.2336L184.787 36.788H182.278V38.788ZM159.498 38.788V36.788H157.865L157.539 38.3885L159.498 38.788ZM158.07 45.792L156.111 45.3925L155.621 47.792H158.07V45.792ZM190.03 46.608L189.365 48.494L189.372 48.4964L190.03 46.608ZM190.234 62.316L192.19 62.7351L192.191 62.7322L190.234 62.316ZM186.494 65.376L185.839 63.4865L185.834 63.4883L186.494 65.376ZM181.326 64.328H148.754V68.328H181.326V64.328ZM148.754 64.328C147.611 64.328 146.392 64.1072 145.086 63.6324L143.719 67.3916C145.405 68.0048 147.087 68.328 148.754 68.328V64.328ZM145.075 63.6285C144.267 63.3398 143.848 63.0603 143.657 62.8739C143.571 62.7899 143.55 62.7426 143.548 62.7381C143.546 62.7348 143.547 62.7352 143.547 62.7373C143.547 62.7392 143.546 62.7357 143.546 62.724H139.546C139.546 65.2656 141.664 66.6576 143.73 67.3955L145.075 63.6285ZM143.546 62.724C143.546 62.9105 143.514 63.0563 143.536 62.9253C143.544 62.8797 143.557 62.8036 143.579 62.6902C143.622 62.4662 143.687 62.1371 143.778 61.6979C143.957 60.8218 144.228 59.5359 144.59 57.8373L140.678 57.0027C140.315 58.7041 140.042 60.0022 139.859 60.8941C139.768 61.3389 139.698 61.6898 139.65 61.9418C139.626 62.0664 139.606 62.1773 139.591 62.2677C139.59 62.2727 139.546 62.5035 139.546 62.724H143.546ZM142.634 59.42H155.554V55.42H142.634V59.42ZM153.593 57.0278L153.117 59.4078L157.04 60.1922L157.516 57.8122L153.593 57.0278ZM155.078 61.8H177.79V57.8H155.078V61.8ZM179.745 60.2227L181.377 52.6747L177.468 51.8293L175.836 59.3773L179.745 60.2227ZM179.422 50.252H151.746V54.252H179.422V50.252ZM151.746 50.252C150.654 50.252 149.429 50.0333 148.06 49.55L146.729 53.322C148.442 53.9267 150.119 54.252 151.746 54.252V50.252ZM148.053 49.5476C147.211 49.2537 146.768 48.9715 146.564 48.7816C146.406 48.6347 146.47 48.6296 146.47 48.716H142.47C142.47 51.267 144.699 52.6139 146.736 53.3244L148.053 49.5476ZM146.47 48.716C146.47 48.8021 146.465 48.8688 146.463 48.8921C146.46 48.9234 146.457 48.948 146.455 48.9617C146.451 48.9889 146.448 49.0085 146.447 49.0139C146.446 49.0262 146.445 49.0295 146.447 49.0169C146.451 48.9943 146.459 48.9527 146.473 48.8871C146.499 48.7579 146.539 48.564 146.594 48.3019C146.703 47.7794 146.868 47.0037 147.089 45.9731C147.53 43.9127 148.193 40.8432 149.077 36.7635L145.168 35.9165C144.284 39.9968 143.62 43.07 143.178 45.1349C142.957 46.167 142.79 46.9496 142.679 47.4811C142.623 47.746 142.58 47.953 142.551 48.0987C142.537 48.1704 142.524 48.2347 142.514 48.2865C142.51 48.3111 142.504 48.3437 142.498 48.3775C142.496 48.3935 142.491 48.4219 142.487 48.4559C142.487 48.4593 142.47 48.5744 142.47 48.716H146.47ZM149.081 36.7452C149.114 36.5868 149.435 35.8574 151.745 35.1164L150.524 31.3076C148.028 32.108 145.675 33.4639 145.164 35.9348L149.081 36.7452ZM151.753 35.1141C153.377 34.5863 154.982 34.328 156.574 34.328V30.328C154.541 30.328 152.519 30.6591 150.516 31.3099L151.753 35.1141ZM156.574 34.328H187.922V30.328H156.574V34.328ZM187.922 34.328C189.245 34.328 190.607 34.5415 192.015 34.984L193.214 31.168C191.449 30.6132 189.683 30.328 187.922 30.328V34.328ZM192.006 34.9813C192.953 35.2834 193.469 35.5795 193.715 35.7891C193.915 35.9594 193.81 35.9504 193.81 35.796H197.81C197.81 34.5083 197.173 33.4793 196.308 32.7429C195.488 32.0458 194.407 31.5486 193.222 31.1707L192.006 34.9813ZM193.81 35.796C193.81 35.6355 193.834 35.5243 193.817 35.6324C193.81 35.6789 193.797 35.7563 193.775 35.872C193.733 36.1009 193.668 36.4342 193.578 36.878C193.399 37.763 193.129 39.0526 192.766 40.7507L196.678 41.5853C197.041 39.8834 197.315 38.5777 197.499 37.672C197.59 37.2204 197.661 36.8596 197.709 36.5955C197.733 36.4647 197.754 36.3459 197.77 36.2464C197.776 36.2087 197.81 36.0019 197.81 35.796H193.81ZM194.722 39.168H181.734V43.168H194.722V39.168ZM183.684 41.6136L184.228 39.2336L180.329 38.3423L179.785 40.7223L183.684 41.6136ZM182.278 36.788H159.498V40.788H182.278V36.788ZM157.539 38.3885L156.111 45.3925L160.03 46.1915L161.458 39.1875L157.539 38.3885ZM158.07 47.792H185.678V43.792H158.07V47.792ZM185.678 47.792C186.771 47.792 187.995 48.0107 189.365 48.494L190.696 44.722C188.983 44.1173 187.306 43.792 185.678 43.792V47.792ZM189.372 48.4964C190.214 48.7903 190.657 49.0725 190.861 49.2624C191.019 49.4093 190.954 49.4144 190.954 49.328H194.954C194.954 46.777 192.726 45.4301 190.689 44.7196L189.372 48.4964ZM190.954 49.328C190.954 49.2209 190.964 49.1388 190.965 49.1264C190.968 49.0984 190.971 49.0782 190.972 49.0712C190.974 49.0565 190.975 49.0518 190.973 49.0642C190.969 49.0868 190.961 49.1299 190.948 49.1996C190.921 49.3365 190.881 49.5413 190.824 49.8183C190.712 50.3703 190.543 51.1857 190.317 52.267C189.864 54.4285 189.185 57.639 188.278 61.8998L192.191 62.7322C193.097 58.4704 193.778 55.2548 194.232 53.087C194.459 52.0036 194.63 51.1785 194.744 50.6142C194.801 50.333 194.846 50.1107 194.876 49.9515C194.891 49.8732 194.905 49.801 194.915 49.741C194.92 49.7122 194.926 49.6745 194.932 49.6349C194.935 49.6154 194.939 49.5848 194.943 49.5485C194.945 49.5278 194.954 49.4393 194.954 49.328H190.954ZM188.279 61.8969C188.241 62.0714 187.93 62.761 185.839 63.4865L187.15 67.2655C189.502 66.4496 191.683 65.0993 192.19 62.7351L188.279 61.8969ZM185.834 63.4883C184.196 64.0615 182.698 64.328 181.326 64.328V68.328C183.219 68.328 185.166 67.9598 187.155 67.2637L185.834 63.4883ZM252.866 38.788V40.788H254.488L254.823 39.2L252.866 38.788ZM235.594 38.788V36.788H233.974L233.637 38.3716L235.594 38.788ZM229.746 66.26V68.26H231.365L231.702 66.6764L229.746 66.26ZM216.894 66.26L214.937 65.8436L214.423 68.26H216.894V66.26ZM222.742 38.788L224.698 39.2044L225.212 36.788H222.742V38.788ZM204.314 38.788L202.356 38.376L201.849 40.788H204.314V38.788ZM205.674 32.328V30.328H204.051L203.716 31.916L205.674 32.328ZM254.226 32.328L256.183 32.74L256.69 30.328H254.226V32.328ZM252.866 36.788H235.594V40.788H252.866V36.788ZM233.637 38.3716L227.789 65.8436L231.702 66.6764L237.55 39.2044L233.637 38.3716ZM229.746 64.26H216.894V68.26H229.746V64.26ZM218.85 66.6764L224.698 39.2044L220.785 38.3716L214.937 65.8436L218.85 66.6764ZM222.742 36.788H204.314V40.788H222.742V36.788ZM206.271 39.2L207.631 32.74L203.716 31.916L202.356 38.376L206.271 39.2ZM205.674 34.328H254.226V30.328H205.674V34.328ZM252.268 31.916L250.908 38.376L254.823 39.2L256.183 32.74L252.268 31.916ZM268.985 66.26V68.26H270.601L270.94 66.6793L268.985 66.26ZM256.133 66.26L254.176 65.8444L253.663 68.26H256.133V66.26ZM263.341 32.328V30.328H261.721L261.384 31.9124L263.341 32.328ZM276.261 32.328L278.216 32.7473L278.735 30.328H276.261V32.328ZM268.985 64.26H256.133V68.26H268.985V64.26ZM258.089 66.6756L265.297 32.7436L261.384 31.9124L254.176 65.8444L258.089 66.6756ZM263.341 34.328H276.261V30.328H263.341V34.328ZM274.305 31.9087L267.029 65.8407L270.94 66.6793L278.216 32.7473L274.305 31.9087ZM282.207 65.512L282.891 63.6324L282.88 63.6285L282.207 65.512ZM284.995 36.34L286.95 36.7604L286.952 36.7528L286.954 36.7452L284.995 36.34ZM289.007 33.212L289.618 35.1164L289.625 35.1141L289.007 33.212ZM330.487 33.076L329.871 34.9789L329.879 34.9813L330.487 33.076ZM332.595 41.168V43.168H334.213L334.551 41.5853L332.595 41.168ZM319.607 41.168L317.657 40.7223L317.098 43.168H319.607V41.168ZM320.151 38.788L322.101 39.2336L322.66 36.788H320.151V38.788ZM297.371 38.788V36.788H295.748L295.414 38.3763L297.371 38.788ZM292.951 59.8L290.994 59.3883L290.487 61.8H292.951V59.8ZM315.663 59.8V61.8H317.257L317.613 60.2456L315.663 59.8ZM316.207 57.42V55.42H314.613L314.257 56.9743L316.207 57.42ZM329.127 57.42L331.085 57.8279L331.587 55.42H329.127V57.42ZM328.107 62.316L330.063 62.7351L330.065 62.7239L328.107 62.316ZM324.367 65.376L323.711 63.4865L323.701 63.49L323.691 63.4936L324.367 65.376ZM319.199 64.328H286.627V68.328H319.199V64.328ZM286.627 64.328C285.431 64.328 284.189 64.1045 282.891 63.6324L281.524 67.3916C283.217 68.0075 284.922 68.328 286.627 68.328V64.328ZM282.88 63.6285C282.071 63.3398 281.653 63.0603 281.462 62.8739C281.376 62.7899 281.354 62.7426 281.352 62.7381C281.351 62.7348 281.351 62.7352 281.352 62.7373C281.352 62.7392 281.351 62.7357 281.351 62.724H277.351C277.351 65.2656 279.468 66.6576 281.534 67.3955L282.88 63.6285ZM281.351 62.724C281.351 62.8145 281.345 62.8847 281.343 62.907C281.34 62.9386 281.337 62.9636 281.335 62.9775C281.331 63.0054 281.328 63.0262 281.327 63.0334C281.324 63.0495 281.322 63.0587 281.323 63.0543C281.324 63.0481 281.328 63.0304 281.334 62.9963C281.348 62.9303 281.368 62.8287 281.398 62.6883C281.455 62.4091 281.543 61.993 281.66 61.4383C281.895 60.3297 282.248 58.6767 282.718 56.4784C283.658 52.0821 285.069 45.5096 286.95 36.7604L283.04 35.9196C281.158 44.669 279.747 51.2432 278.806 55.6416C278.336 57.8406 277.983 59.4969 277.747 60.6097C277.629 61.1657 277.541 61.5882 277.481 61.8757C277.451 62.0187 277.428 62.1323 277.412 62.2137C277.404 62.2533 277.396 62.2922 277.39 62.3257C277.387 62.3411 277.383 62.3659 277.378 62.3933C277.376 62.4062 277.372 62.4317 277.368 62.4631C277.366 62.4787 277.363 62.5052 277.36 62.5381C277.357 62.5616 277.351 62.6328 277.351 62.724H281.351ZM286.954 36.7452C286.986 36.5868 287.308 35.8574 289.618 35.1164L288.396 31.3076C285.901 32.108 283.548 33.4639 283.037 35.9348L286.954 36.7452ZM289.625 35.1141C291.249 34.5863 292.854 34.328 294.447 34.328V30.328C292.413 30.328 290.392 30.6591 288.389 31.3099L289.625 35.1141ZM294.447 34.328H325.795V30.328H294.447V34.328ZM325.795 34.328C327.168 34.328 328.525 34.5432 329.871 34.9789L331.103 31.1731C329.367 30.6115 327.595 30.328 325.795 30.328V34.328ZM329.879 34.9813C330.825 35.2834 331.342 35.5795 331.588 35.7891C331.788 35.9594 331.683 35.9504 331.683 35.796H335.683C335.683 34.5083 335.045 33.4793 334.18 32.7429C333.361 32.0458 332.279 31.5486 331.095 31.1707L329.879 34.9813ZM331.683 35.796C331.683 35.6355 331.707 35.5243 331.69 35.6324C331.683 35.6789 331.669 35.7563 331.648 35.872C331.606 36.1009 331.541 36.4342 331.451 36.878C331.272 37.763 331.001 39.0526 330.639 40.7507L334.551 41.5853C334.914 39.8834 335.188 38.5777 335.371 37.672C335.463 37.2204 335.533 36.8596 335.582 36.5955C335.606 36.4647 335.627 36.3459 335.642 36.2464C335.648 36.2087 335.683 36.0019 335.683 35.796H331.683ZM332.595 39.168H319.607V43.168H332.595V39.168ZM321.557 41.6136L322.101 39.2336L318.201 38.3423L317.657 40.7223L321.557 41.6136ZM320.151 36.788H297.371V40.788H320.151V36.788ZM295.414 38.3763L290.994 59.3883L294.908 60.2117L299.328 39.1997L295.414 38.3763ZM292.951 61.8H315.663V57.8H292.951V61.8ZM317.613 60.2456L318.157 57.8657L314.257 56.9743L313.713 59.3544L317.613 60.2456ZM316.207 59.42H329.127V55.42H316.207V59.42ZM327.169 57.0121L326.149 61.9081L330.065 62.7239L331.085 57.8279L327.169 57.0121ZM326.151 61.8969C326.114 62.0714 325.802 62.761 323.711 63.4865L325.023 67.2655C327.374 66.4496 329.556 65.0993 330.063 62.7351L326.151 61.8969ZM323.691 63.4936C322.114 64.0597 320.62 64.328 319.199 64.328V68.328C321.133 68.328 323.084 67.9616 325.043 67.2584L323.691 63.4936ZM384.89 66.26V68.26H386.508L386.846 66.6785L384.89 66.26ZM371.97 66.26L370.014 65.8442L369.5 68.26H371.97V66.26ZM374.962 52.184L376.918 52.5998L377.432 50.184H374.962V52.184ZM352.182 52.184V50.184H350.563L350.226 51.7682L352.182 52.184ZM349.19 66.26V68.26H350.81L351.147 66.6758L349.19 66.26ZM336.27 66.26L334.314 65.8422L333.798 68.26H336.27V66.26ZM342.662 36.34L344.618 36.7578L344.621 36.7451L344.623 36.7322L342.662 36.34ZM346.674 33.144L347.285 35.0484L347.292 35.0461L346.674 33.144ZM388.154 33.008L387.539 34.9109L387.546 34.9133L388.154 33.008ZM376.254 45.724V47.724H377.869L378.209 46.1457L376.254 45.724ZM377.75 38.788L379.705 39.2097L380.228 36.788H377.75V38.788ZM355.106 38.788V36.788H353.476L353.147 38.3847L355.106 38.788ZM353.678 45.724L351.719 45.3207L351.224 47.724H353.678V45.724ZM384.89 64.26H371.97V68.26H384.89V64.26ZM373.927 66.6758L376.918 52.5998L373.006 51.7682L370.014 65.8442L373.927 66.6758ZM374.962 50.184H352.182V54.184H374.962V50.184ZM350.226 51.7682L347.234 65.8442L351.147 66.6758L354.138 52.5998L350.226 51.7682ZM349.19 64.26H336.27V68.26H349.19V64.26ZM338.226 66.6778L344.618 36.7578L340.706 35.9222L334.314 65.8422L338.226 66.6778ZM344.623 36.7322C344.666 36.5212 345.006 35.7795 347.285 35.0484L346.063 31.2396C343.537 32.0498 341.203 33.4388 340.701 35.9478L344.623 36.7322ZM347.292 35.0461C348.916 34.5183 350.521 34.26 352.114 34.26V30.26C350.08 30.26 348.059 30.5911 346.056 31.2419L347.292 35.0461ZM352.114 34.26H383.462V30.26H352.114V34.26ZM383.462 34.26C384.835 34.26 386.192 34.4752 387.539 34.9109L388.77 31.1051C387.034 30.5435 385.262 30.26 383.462 30.26V34.26ZM387.546 34.9133C388.486 35.2132 388.995 35.5111 389.236 35.7221C389.429 35.8899 389.35 35.8996 389.35 35.796H393.35C393.35 34.5137 392.739 33.4694 391.866 32.7079C391.042 31.9895 389.953 31.4828 388.762 31.1027L387.546 34.9133ZM389.35 35.796C389.35 35.5948 389.388 35.4126 389.371 35.5123C389.37 35.5174 389.367 35.5366 389.36 35.5764C389.345 35.6534 389.322 35.7721 389.289 35.9369C389.223 36.2644 389.123 36.7492 388.988 37.3941C388.72 38.6825 388.317 40.595 387.779 43.1331C386.702 48.2086 385.088 55.7778 382.934 65.8415L386.846 66.6785C388.999 56.6142 390.615 49.0421 391.692 43.9629C392.23 41.4237 392.634 39.5055 392.904 38.2099C393.039 37.5627 393.141 37.0673 393.21 36.7261C393.244 36.5566 393.271 36.4188 393.29 36.3173C393.3 36.2679 393.309 36.2174 393.316 36.1721C393.32 36.1505 393.325 36.1183 393.33 36.0823C393.333 36.0645 393.336 36.0356 393.34 36.0007C393.342 35.9781 393.35 35.8979 393.35 35.796H389.35ZM378.209 46.1457L379.705 39.2097L375.795 38.3663L374.299 45.3023L378.209 46.1457ZM377.75 36.788H355.106V40.788H377.75V36.788ZM353.147 38.3847L351.719 45.3207L355.637 46.1273L357.065 39.1913L353.147 38.3847ZM353.678 47.724H376.254V43.724H353.678V47.724ZM442.557 66.26V68.26H444.18L444.515 66.672L442.557 66.26ZM394.005 66.26L392.049 65.8444L391.536 68.26H394.005V66.26ZM401.213 32.328V30.328H399.594L399.257 31.9124L401.213 32.328ZM414.133 32.328L416.09 32.7444L416.604 30.328H414.133V32.328ZM408.285 59.8L406.329 59.3836L405.815 61.8H408.285V59.8ZM443.917 59.8L445.875 60.212L446.382 57.8H443.917V59.8ZM442.557 64.26H394.005V68.26H442.557V64.26ZM395.962 66.6756L403.17 32.7436L399.257 31.9124L392.049 65.8444L395.962 66.6756ZM401.213 34.328H414.133V30.328H401.213V34.328ZM412.177 31.9116L406.329 59.3836L410.242 60.2164L416.09 32.7444L412.177 31.9116ZM408.285 61.8H443.917V57.8H408.285V61.8ZM441.96 59.388L440.6 65.848L444.515 66.672L445.875 60.212L441.96 59.388Z" fill="url(#paint1_linear_186_2931)"/>
</g>
<g filter="url(#filter2_f_186_2931)">
<path d="M74.016 73.06V75.06H75.7348L75.9933 73.3607L74.016 73.06ZM61.096 73.06L59.1187 72.7596L58.7692 75.06H61.096V73.06ZM66.944 34.572L68.9213 34.8724L69.2708 32.572H66.944V34.572ZM62.592 34.572V32.572H60.8729L60.6147 34.2716L62.592 34.572ZM56.744 73.06V75.06H58.4631L58.7213 73.3604L56.744 73.06ZM43.892 73.06L41.9147 72.7596L41.5652 75.06H43.892V73.06ZM49.74 34.572L51.7173 34.8724L52.0668 32.572H49.74V34.572ZM44.164 34.572V32.572H42.4449L42.1867 34.2716L44.164 34.572ZM38.316 73.06V75.06H40.0351L40.2933 73.3604L38.316 73.06ZM25.464 73.06L23.4866 72.7601L23.1378 75.06H25.464V73.06ZM32.672 25.528V23.528H30.9524L30.6946 25.2281L32.672 25.528ZM77.552 26.684L78.4297 24.8869L78.4258 24.885L77.552 26.684ZM80.408 31.036L78.4677 30.5509L78.4449 30.6422L78.4307 30.7353L80.408 31.036ZM74.016 71.06H61.096V75.06H74.016V71.06ZM63.0733 73.3604L68.9213 34.8724L64.9667 34.2716L59.1187 72.7596L63.0733 73.3604ZM66.944 32.572H62.592V36.572H66.944V32.572ZM60.6147 34.2716L54.7667 72.7596L58.7213 73.3604L64.5693 34.8724L60.6147 34.2716ZM56.744 71.06H43.892V75.06H56.744V71.06ZM45.8693 73.3604L51.7173 34.8724L47.7627 34.2716L41.9147 72.7596L45.8693 73.3604ZM49.74 32.572H44.164V36.572H49.74V32.572ZM42.1867 34.2716L36.3387 72.7596L40.2933 73.3604L46.1413 34.8724L42.1867 34.2716ZM38.316 71.06H25.464V75.06H38.316V71.06ZM27.4414 73.3599L34.6494 25.8279L30.6946 25.2281L23.4866 72.7601L27.4414 73.3599ZM32.672 27.528H72.588V23.528H32.672V27.528ZM72.588 27.528C74.0005 27.528 75.3571 27.8413 76.6782 28.483L78.4258 24.885C76.5736 23.9853 74.6208 23.528 72.588 23.528V27.528ZM76.6743 28.4811C78.2589 29.255 78.476 29.9495 78.476 30.424H82.476C82.476 27.8158 80.7438 26.017 78.4297 24.8869L76.6743 28.4811ZM78.476 30.424C78.476 30.5205 78.466 30.5576 78.4677 30.5509L82.3483 31.5211C82.4406 31.1517 82.476 30.7809 82.476 30.424H78.476ZM78.4307 30.7353L72.0387 72.7593L75.9933 73.3607L82.3853 31.3367L78.4307 30.7353ZM117.403 52.252L117.475 50.2533L115.798 50.1934L115.447 51.8342L117.403 52.252ZM114.411 66.26V68.26H116.029L116.367 66.6778L114.411 66.26ZM101.559 66.26L99.6033 65.8422L99.0869 68.26H101.559V66.26ZM104.551 52.252L106.507 52.6698L107.023 50.252H104.551V52.252ZM89.6592 51.504L90.3685 49.634L90.3614 49.6313L89.6592 51.504ZM88.4352 40.692L90.3885 41.1217L90.3887 41.1208L88.4352 40.692ZM90.2712 32.328V30.328H88.6626L88.3177 31.8992L90.2712 32.328ZM103.259 32.328L105.214 32.7524L105.74 30.328H103.259V32.328ZM100.335 45.792L98.3807 45.3675L97.8542 47.792H100.335V45.792ZM123.115 45.792V47.792H124.735L125.072 46.207L123.115 45.792ZM125.971 32.328V30.328H124.351L124.015 31.913L125.971 32.328ZM138.891 32.328L140.847 32.7459L141.364 30.328H138.891V32.328ZM135.491 48.24L133.535 47.8221L133.535 47.8231L135.491 48.24ZM119.307 52.32L119.379 50.3213L119.307 52.32ZM115.447 51.8342L112.455 65.8422L116.367 66.6778L119.359 52.6698L115.447 51.8342ZM114.411 64.26H101.559V68.26H114.411V64.26ZM103.515 66.6778L106.507 52.6698L102.595 51.8342L99.6033 65.8422L103.515 66.6778ZM104.551 50.252H94.0792V54.252H104.551V50.252ZM94.0792 50.252C92.6512 50.252 91.4233 50.0341 90.3685 49.634L88.9499 53.374C90.5244 53.9712 92.2432 54.252 94.0792 54.252V50.252ZM90.3614 49.6313C89.631 49.3574 89.266 49.0843 89.0991 48.9007C88.9711 48.7599 88.9392 48.6581 88.9392 48.512H84.9392C84.9392 51.0461 86.8003 52.5679 88.9569 53.3767L90.3614 49.6313ZM88.9392 48.512C88.9392 48.531 88.9386 48.4969 88.9511 48.3801C88.9626 48.2731 88.9816 48.1283 89.0101 47.9408C89.067 47.5656 89.1552 47.0622 89.2776 46.4228C89.5218 45.146 89.8913 43.3816 90.3885 41.1217L86.4819 40.2623C85.9817 42.5358 85.6032 44.3414 85.3488 45.6712C85.1123 46.9074 84.9392 47.9402 84.9392 48.512H88.9392ZM90.3887 41.1208L92.2247 32.7568L88.3177 31.8992L86.4817 40.2632L90.3887 41.1208ZM90.2712 34.328H103.259V30.328H90.2712V34.328ZM101.305 31.9035L98.3807 45.3675L102.29 46.2164L105.214 32.7524L101.305 31.9035ZM100.335 47.792H123.115V43.792H100.335V47.792ZM125.072 46.207L127.928 32.743L124.015 31.913L121.159 45.377L125.072 46.207ZM125.971 34.328H138.891V30.328H125.971V34.328ZM136.935 31.9101L133.535 47.8221L137.447 48.6579L140.847 32.7459L136.935 31.9101ZM133.535 47.8231C133.465 48.1515 133.112 48.8353 131.208 49.4467C129.349 50.0436 126.51 50.388 122.571 50.388V54.388C126.656 54.388 129.983 54.041 132.431 53.2553C134.833 52.484 136.928 51.0939 137.447 48.6569L133.535 47.8231ZM122.571 50.388C121.696 50.388 120.633 50.3661 119.379 50.3213L119.236 54.3187C120.52 54.3646 121.633 54.388 122.571 54.388V50.388ZM119.379 50.3213L117.475 50.2533L117.332 54.2507L119.236 54.3187L119.379 50.3213ZM144.402 65.512L145.086 63.6324L145.075 63.6285L144.402 65.512ZM142.634 57.42V55.42H141.016L140.678 57.0027L142.634 57.42ZM155.554 57.42L157.516 57.8122L157.994 55.42H155.554V57.42ZM155.078 59.8L153.117 59.4078L152.639 61.8H155.078V59.8ZM177.79 59.8V61.8H179.404L179.745 60.2227L177.79 59.8ZM179.422 52.252L181.377 52.6747L181.901 50.252H179.422V52.252ZM147.394 51.436L148.06 49.55L148.053 49.5476L147.394 51.436ZM147.122 36.34L149.077 36.7635L149.079 36.7544L149.081 36.7452L147.122 36.34ZM151.134 33.212L151.745 35.1164L151.753 35.1141L151.134 33.212ZM192.614 33.076L193.222 31.1707L193.214 31.168L192.614 33.076ZM194.722 41.168V43.168H196.341L196.678 41.5853L194.722 41.168ZM181.734 41.168L179.785 40.7223L179.226 43.168H181.734V41.168ZM182.278 38.788L184.228 39.2336L184.787 36.788H182.278V38.788ZM159.498 38.788V36.788H157.865L157.539 38.3885L159.498 38.788ZM158.07 45.792L156.111 45.3925L155.621 47.792H158.07V45.792ZM190.03 46.608L189.365 48.494L189.372 48.4964L190.03 46.608ZM190.234 62.316L192.19 62.7351L192.191 62.7322L190.234 62.316ZM186.494 65.376L185.839 63.4865L185.834 63.4883L186.494 65.376ZM181.326 64.328H148.754V68.328H181.326V64.328ZM148.754 64.328C147.611 64.328 146.392 64.1072 145.086 63.6324L143.719 67.3916C145.405 68.0048 147.087 68.328 148.754 68.328V64.328ZM145.075 63.6285C144.267 63.3398 143.848 63.0603 143.657 62.8739C143.571 62.7899 143.55 62.7426 143.548 62.7381C143.546 62.7348 143.547 62.7352 143.547 62.7373C143.547 62.7392 143.546 62.7357 143.546 62.724H139.546C139.546 65.2656 141.664 66.6576 143.73 67.3955L145.075 63.6285ZM143.546 62.724C143.546 62.9105 143.514 63.0563 143.536 62.9253C143.544 62.8797 143.557 62.8036 143.579 62.6902C143.622 62.4662 143.687 62.1371 143.778 61.6979C143.957 60.8218 144.228 59.5359 144.59 57.8373L140.678 57.0027C140.315 58.7041 140.042 60.0022 139.859 60.8941C139.768 61.3389 139.698 61.6898 139.65 61.9418C139.626 62.0664 139.606 62.1773 139.591 62.2677C139.59 62.2727 139.546 62.5035 139.546 62.724H143.546ZM142.634 59.42H155.554V55.42H142.634V59.42ZM153.593 57.0278L153.117 59.4078L157.04 60.1922L157.516 57.8122L153.593 57.0278ZM155.078 61.8H177.79V57.8H155.078V61.8ZM179.745 60.2227L181.377 52.6747L177.468 51.8293L175.836 59.3773L179.745 60.2227ZM179.422 50.252H151.746V54.252H179.422V50.252ZM151.746 50.252C150.654 50.252 149.429 50.0333 148.06 49.55L146.729 53.322C148.442 53.9267 150.119 54.252 151.746 54.252V50.252ZM148.053 49.5476C147.211 49.2537 146.768 48.9715 146.564 48.7816C146.406 48.6347 146.47 48.6296 146.47 48.716H142.47C142.47 51.267 144.699 52.6139 146.736 53.3244L148.053 49.5476ZM146.47 48.716C146.47 48.8021 146.465 48.8688 146.463 48.8921C146.46 48.9234 146.457 48.948 146.455 48.9617C146.451 48.9889 146.448 49.0085 146.447 49.0139C146.446 49.0262 146.445 49.0295 146.447 49.0169C146.451 48.9943 146.459 48.9527 146.473 48.8871C146.499 48.7579 146.539 48.564 146.594 48.3019C146.703 47.7794 146.868 47.0037 147.089 45.9731C147.53 43.9127 148.193 40.8432 149.077 36.7635L145.168 35.9165C144.284 39.9968 143.62 43.07 143.178 45.1349C142.957 46.167 142.79 46.9496 142.679 47.4811C142.623 47.746 142.58 47.953 142.551 48.0987C142.537 48.1704 142.524 48.2347 142.514 48.2865C142.51 48.3111 142.504 48.3437 142.498 48.3775C142.496 48.3935 142.491 48.4219 142.487 48.4559C142.487 48.4593 142.47 48.5744 142.47 48.716H146.47ZM149.081 36.7452C149.114 36.5868 149.435 35.8574 151.745 35.1164L150.524 31.3076C148.028 32.108 145.675 33.4639 145.164 35.9348L149.081 36.7452ZM151.753 35.1141C153.377 34.5863 154.982 34.328 156.574 34.328V30.328C154.541 30.328 152.519 30.6591 150.516 31.3099L151.753 35.1141ZM156.574 34.328H187.922V30.328H156.574V34.328ZM187.922 34.328C189.245 34.328 190.607 34.5415 192.015 34.984L193.214 31.168C191.449 30.6132 189.683 30.328 187.922 30.328V34.328ZM192.006 34.9813C192.953 35.2834 193.469 35.5795 193.715 35.7891C193.915 35.9594 193.81 35.9504 193.81 35.796H197.81C197.81 34.5083 197.173 33.4793 196.308 32.7429C195.488 32.0458 194.407 31.5486 193.222 31.1707L192.006 34.9813ZM193.81 35.796C193.81 35.6355 193.834 35.5243 193.817 35.6324C193.81 35.6789 193.797 35.7563 193.775 35.872C193.733 36.1009 193.668 36.4342 193.578 36.878C193.399 37.763 193.129 39.0526 192.766 40.7507L196.678 41.5853C197.041 39.8834 197.315 38.5777 197.499 37.672C197.59 37.2204 197.661 36.8596 197.709 36.5955C197.733 36.4647 197.754 36.3459 197.77 36.2464C197.776 36.2087 197.81 36.0019 197.81 35.796H193.81ZM194.722 39.168H181.734V43.168H194.722V39.168ZM183.684 41.6136L184.228 39.2336L180.329 38.3423L179.785 40.7223L183.684 41.6136ZM182.278 36.788H159.498V40.788H182.278V36.788ZM157.539 38.3885L156.111 45.3925L160.03 46.1915L161.458 39.1875L157.539 38.3885ZM158.07 47.792H185.678V43.792H158.07V47.792ZM185.678 47.792C186.771 47.792 187.995 48.0107 189.365 48.494L190.696 44.722C188.983 44.1173 187.306 43.792 185.678 43.792V47.792ZM189.372 48.4964C190.214 48.7903 190.657 49.0725 190.861 49.2624C191.019 49.4093 190.954 49.4144 190.954 49.328H194.954C194.954 46.777 192.726 45.4301 190.689 44.7196L189.372 48.4964ZM190.954 49.328C190.954 49.2209 190.964 49.1388 190.965 49.1264C190.968 49.0984 190.971 49.0782 190.972 49.0712C190.974 49.0565 190.975 49.0518 190.973 49.0642C190.969 49.0868 190.961 49.1299 190.948 49.1996C190.921 49.3365 190.881 49.5413 190.824 49.8183C190.712 50.3703 190.543 51.1857 190.317 52.267C189.864 54.4285 189.185 57.639 188.278 61.8998L192.191 62.7322C193.097 58.4704 193.778 55.2548 194.232 53.087C194.459 52.0036 194.63 51.1785 194.744 50.6142C194.801 50.333 194.846 50.1107 194.876 49.9515C194.891 49.8732 194.905 49.801 194.915 49.741C194.92 49.7122 194.926 49.6745 194.932 49.6349C194.935 49.6154 194.939 49.5848 194.943 49.5485C194.945 49.5278 194.954 49.4393 194.954 49.328H190.954ZM188.279 61.8969C188.241 62.0714 187.93 62.761 185.839 63.4865L187.15 67.2655C189.502 66.4496 191.683 65.0993 192.19 62.7351L188.279 61.8969ZM185.834 63.4883C184.196 64.0615 182.698 64.328 181.326 64.328V68.328C183.219 68.328 185.166 67.9598 187.155 67.2637L185.834 63.4883ZM252.866 38.788V40.788H254.488L254.823 39.2L252.866 38.788ZM235.594 38.788V36.788H233.974L233.637 38.3716L235.594 38.788ZM229.746 66.26V68.26H231.365L231.702 66.6764L229.746 66.26ZM216.894 66.26L214.937 65.8436L214.423 68.26H216.894V66.26ZM222.742 38.788L224.698 39.2044L225.212 36.788H222.742V38.788ZM204.314 38.788L202.356 38.376L201.849 40.788H204.314V38.788ZM205.674 32.328V30.328H204.051L203.716 31.916L205.674 32.328ZM254.226 32.328L256.183 32.74L256.69 30.328H254.226V32.328ZM252.866 36.788H235.594V40.788H252.866V36.788ZM233.637 38.3716L227.789 65.8436L231.702 66.6764L237.55 39.2044L233.637 38.3716ZM229.746 64.26H216.894V68.26H229.746V64.26ZM218.85 66.6764L224.698 39.2044L220.785 38.3716L214.937 65.8436L218.85 66.6764ZM222.742 36.788H204.314V40.788H222.742V36.788ZM206.271 39.2L207.631 32.74L203.716 31.916L202.356 38.376L206.271 39.2ZM205.674 34.328H254.226V30.328H205.674V34.328ZM252.268 31.916L250.908 38.376L254.823 39.2L256.183 32.74L252.268 31.916ZM268.985 66.26V68.26H270.601L270.94 66.6793L268.985 66.26ZM256.133 66.26L254.176 65.8444L253.663 68.26H256.133V66.26ZM263.341 32.328V30.328H261.721L261.384 31.9124L263.341 32.328ZM276.261 32.328L278.216 32.7473L278.735 30.328H276.261V32.328ZM268.985 64.26H256.133V68.26H268.985V64.26ZM258.089 66.6756L265.297 32.7436L261.384 31.9124L254.176 65.8444L258.089 66.6756ZM263.341 34.328H276.261V30.328H263.341V34.328ZM274.305 31.9087L267.029 65.8407L270.94 66.6793L278.216 32.7473L274.305 31.9087ZM282.207 65.512L282.891 63.6324L282.88 63.6285L282.207 65.512ZM284.995 36.34L286.95 36.7604L286.952 36.7528L286.954 36.7452L284.995 36.34ZM289.007 33.212L289.618 35.1164L289.625 35.1141L289.007 33.212ZM330.487 33.076L329.871 34.9789L329.879 34.9813L330.487 33.076ZM332.595 41.168V43.168H334.213L334.551 41.5853L332.595 41.168ZM319.607 41.168L317.657 40.7223L317.098 43.168H319.607V41.168ZM320.151 38.788L322.101 39.2336L322.66 36.788H320.151V38.788ZM297.371 38.788V36.788H295.748L295.414 38.3763L297.371 38.788ZM292.951 59.8L290.994 59.3883L290.487 61.8H292.951V59.8ZM315.663 59.8V61.8H317.257L317.613 60.2456L315.663 59.8ZM316.207 57.42V55.42H314.613L314.257 56.9743L316.207 57.42ZM329.127 57.42L331.085 57.8279L331.587 55.42H329.127V57.42ZM328.107 62.316L330.063 62.7351L330.065 62.7239L328.107 62.316ZM324.367 65.376L323.711 63.4865L323.701 63.49L323.691 63.4936L324.367 65.376ZM319.199 64.328H286.627V68.328H319.199V64.328ZM286.627 64.328C285.431 64.328 284.189 64.1045 282.891 63.6324L281.524 67.3916C283.217 68.0075 284.922 68.328 286.627 68.328V64.328ZM282.88 63.6285C282.071 63.3398 281.653 63.0603 281.462 62.8739C281.376 62.7899 281.354 62.7426 281.352 62.7381C281.351 62.7348 281.351 62.7352 281.352 62.7373C281.352 62.7392 281.351 62.7357 281.351 62.724H277.351C277.351 65.2656 279.468 66.6576 281.534 67.3955L282.88 63.6285ZM281.351 62.724C281.351 62.8145 281.345 62.8847 281.343 62.907C281.34 62.9386 281.337 62.9636 281.335 62.9775C281.331 63.0054 281.328 63.0262 281.327 63.0334C281.324 63.0495 281.322 63.0587 281.323 63.0543C281.324 63.0481 281.328 63.0304 281.334 62.9963C281.348 62.9303 281.368 62.8287 281.398 62.6883C281.455 62.4091 281.543 61.993 281.66 61.4383C281.895 60.3297 282.248 58.6767 282.718 56.4784C283.658 52.0821 285.069 45.5096 286.95 36.7604L283.04 35.9196C281.158 44.669 279.747 51.2432 278.806 55.6416C278.336 57.8406 277.983 59.4969 277.747 60.6097C277.629 61.1657 277.541 61.5882 277.481 61.8757C277.451 62.0187 277.428 62.1323 277.412 62.2137C277.404 62.2533 277.396 62.2922 277.39 62.3257C277.387 62.3411 277.383 62.3659 277.378 62.3933C277.376 62.4062 277.372 62.4317 277.368 62.4631C277.366 62.4787 277.363 62.5052 277.36 62.5381C277.357 62.5616 277.351 62.6328 277.351 62.724H281.351ZM286.954 36.7452C286.986 36.5868 287.308 35.8574 289.618 35.1164L288.396 31.3076C285.901 32.108 283.548 33.4639 283.037 35.9348L286.954 36.7452ZM289.625 35.1141C291.249 34.5863 292.854 34.328 294.447 34.328V30.328C292.413 30.328 290.392 30.6591 288.389 31.3099L289.625 35.1141ZM294.447 34.328H325.795V30.328H294.447V34.328ZM325.795 34.328C327.168 34.328 328.525 34.5432 329.871 34.9789L331.103 31.1731C329.367 30.6115 327.595 30.328 325.795 30.328V34.328ZM329.879 34.9813C330.825 35.2834 331.342 35.5795 331.588 35.7891C331.788 35.9594 331.683 35.9504 331.683 35.796H335.683C335.683 34.5083 335.045 33.4793 334.18 32.7429C333.361 32.0458 332.279 31.5486 331.095 31.1707L329.879 34.9813ZM331.683 35.796C331.683 35.6355 331.707 35.5243 331.69 35.6324C331.683 35.6789 331.669 35.7563 331.648 35.872C331.606 36.1009 331.541 36.4342 331.451 36.878C331.272 37.763 331.001 39.0526 330.639 40.7507L334.551 41.5853C334.914 39.8834 335.188 38.5777 335.371 37.672C335.463 37.2204 335.533 36.8596 335.582 36.5955C335.606 36.4647 335.627 36.3459 335.642 36.2464C335.648 36.2087 335.683 36.0019 335.683 35.796H331.683ZM332.595 39.168H319.607V43.168H332.595V39.168ZM321.557 41.6136L322.101 39.2336L318.201 38.3423L317.657 40.7223L321.557 41.6136ZM320.151 36.788H297.371V40.788H320.151V36.788ZM295.414 38.3763L290.994 59.3883L294.908 60.2117L299.328 39.1997L295.414 38.3763ZM292.951 61.8H315.663V57.8H292.951V61.8ZM317.613 60.2456L318.157 57.8657L314.257 56.9743L313.713 59.3544L317.613 60.2456ZM316.207 59.42H329.127V55.42H316.207V59.42ZM327.169 57.0121L326.149 61.9081L330.065 62.7239L331.085 57.8279L327.169 57.0121ZM326.151 61.8969C326.114 62.0714 325.802 62.761 323.711 63.4865L325.023 67.2655C327.374 66.4496 329.556 65.0993 330.063 62.7351L326.151 61.8969ZM323.691 63.4936C322.114 64.0597 320.62 64.328 319.199 64.328V68.328C321.133 68.328 323.084 67.9616 325.043 67.2584L323.691 63.4936ZM384.89 66.26V68.26H386.508L386.846 66.6785L384.89 66.26ZM371.97 66.26L370.014 65.8442L369.5 68.26H371.97V66.26ZM374.962 52.184L376.918 52.5998L377.432 50.184H374.962V52.184ZM352.182 52.184V50.184H350.563L350.226 51.7682L352.182 52.184ZM349.19 66.26V68.26H350.81L351.147 66.6758L349.19 66.26ZM336.27 66.26L334.314 65.8422L333.798 68.26H336.27V66.26ZM342.662 36.34L344.618 36.7578L344.621 36.7451L344.623 36.7322L342.662 36.34ZM346.674 33.144L347.285 35.0484L347.292 35.0461L346.674 33.144ZM388.154 33.008L387.539 34.9109L387.546 34.9133L388.154 33.008ZM376.254 45.724V47.724H377.869L378.209 46.1457L376.254 45.724ZM377.75 38.788L379.705 39.2097L380.228 36.788H377.75V38.788ZM355.106 38.788V36.788H353.476L353.147 38.3847L355.106 38.788ZM353.678 45.724L351.719 45.3207L351.224 47.724H353.678V45.724ZM384.89 64.26H371.97V68.26H384.89V64.26ZM373.927 66.6758L376.918 52.5998L373.006 51.7682L370.014 65.8442L373.927 66.6758ZM374.962 50.184H352.182V54.184H374.962V50.184ZM350.226 51.7682L347.234 65.8442L351.147 66.6758L354.138 52.5998L350.226 51.7682ZM349.19 64.26H336.27V68.26H349.19V64.26ZM338.226 66.6778L344.618 36.7578L340.706 35.9222L334.314 65.8422L338.226 66.6778ZM344.623 36.7322C344.666 36.5212 345.006 35.7795 347.285 35.0484L346.063 31.2396C343.537 32.0498 341.203 33.4388 340.701 35.9478L344.623 36.7322ZM347.292 35.0461C348.916 34.5183 350.521 34.26 352.114 34.26V30.26C350.08 30.26 348.059 30.5911 346.056 31.2419L347.292 35.0461ZM352.114 34.26H383.462V30.26H352.114V34.26ZM383.462 34.26C384.835 34.26 386.192 34.4752 387.539 34.9109L388.77 31.1051C387.034 30.5435 385.262 30.26 383.462 30.26V34.26ZM387.546 34.9133C388.486 35.2132 388.995 35.5111 389.236 35.7221C389.429 35.8899 389.35 35.8996 389.35 35.796H393.35C393.35 34.5137 392.739 33.4694 391.866 32.7079C391.042 31.9895 389.953 31.4828 388.762 31.1027L387.546 34.9133ZM389.35 35.796C389.35 35.5948 389.388 35.4126 389.371 35.5123C389.37 35.5174 389.367 35.5366 389.36 35.5764C389.345 35.6534 389.322 35.7721 389.289 35.9369C389.223 36.2644 389.123 36.7492 388.988 37.3941C388.72 38.6825 388.317 40.595 387.779 43.1331C386.702 48.2086 385.088 55.7778 382.934 65.8415L386.846 66.6785C388.999 56.6142 390.615 49.0421 391.692 43.9629C392.23 41.4237 392.634 39.5055 392.904 38.2099C393.039 37.5627 393.141 37.0673 393.21 36.7261C393.244 36.5566 393.271 36.4188 393.29 36.3173C393.3 36.2679 393.309 36.2174 393.316 36.1721C393.32 36.1505 393.325 36.1183 393.33 36.0823C393.333 36.0645 393.336 36.0356 393.34 36.0007C393.342 35.9781 393.35 35.8979 393.35 35.796H389.35ZM378.209 46.1457L379.705 39.2097L375.795 38.3663L374.299 45.3023L378.209 46.1457ZM377.75 36.788H355.106V40.788H377.75V36.788ZM353.147 38.3847L351.719 45.3207L355.637 46.1273L357.065 39.1913L353.147 38.3847ZM353.678 47.724H376.254V43.724H353.678V47.724ZM442.557 66.26V68.26H444.18L444.515 66.672L442.557 66.26ZM394.005 66.26L392.049 65.8444L391.536 68.26H394.005V66.26ZM401.213 32.328V30.328H399.594L399.257 31.9124L401.213 32.328ZM414.133 32.328L416.09 32.7444L416.604 30.328H414.133V32.328ZM408.285 59.8L406.329 59.3836L405.815 61.8H408.285V59.8ZM443.917 59.8L445.875 60.212L446.382 57.8H443.917V59.8ZM442.557 64.26H394.005V68.26H442.557V64.26ZM395.962 66.6756L403.17 32.7436L399.257 31.9124L392.049 65.8444L395.962 66.6756ZM401.213 34.328H414.133V30.328H401.213V34.328ZM412.177 31.9116L406.329 59.3836L410.242 60.2164L416.09 32.7444L412.177 31.9116ZM408.285 61.8H443.917V57.8H408.285V61.8ZM441.96 59.388L440.6 65.848L444.515 66.672L445.875 60.212L441.96 59.388Z" fill="url(#paint2_linear_186_2931)"/>
</g>
<path d="M74.016 73.06V75.06H75.7348L75.9933 73.3607L74.016 73.06ZM61.096 73.06L59.1187 72.7596L58.7692 75.06H61.096V73.06ZM66.944 34.572L68.9213 34.8724L69.2708 32.572H66.944V34.572ZM62.592 34.572V32.572H60.8729L60.6147 34.2716L62.592 34.572ZM56.744 73.06V75.06H58.4631L58.7213 73.3604L56.744 73.06ZM43.892 73.06L41.9147 72.7596L41.5652 75.06H43.892V73.06ZM49.74 34.572L51.7173 34.8724L52.0668 32.572H49.74V34.572ZM44.164 34.572V32.572H42.4449L42.1867 34.2716L44.164 34.572ZM38.316 73.06V75.06H40.0351L40.2933 73.3604L38.316 73.06ZM25.464 73.06L23.4866 72.7601L23.1378 75.06H25.464V73.06ZM32.672 25.528V23.528H30.9524L30.6946 25.2281L32.672 25.528ZM77.552 26.684L78.4297 24.8869L78.4258 24.885L77.552 26.684ZM80.408 31.036L78.4677 30.5509L78.4449 30.6422L78.4307 30.7353L80.408 31.036ZM74.016 71.06H61.096V75.06H74.016V71.06ZM63.0733 73.3604L68.9213 34.8724L64.9667 34.2716L59.1187 72.7596L63.0733 73.3604ZM66.944 32.572H62.592V36.572H66.944V32.572ZM60.6147 34.2716L54.7667 72.7596L58.7213 73.3604L64.5693 34.8724L60.6147 34.2716ZM56.744 71.06H43.892V75.06H56.744V71.06ZM45.8693 73.3604L51.7173 34.8724L47.7627 34.2716L41.9147 72.7596L45.8693 73.3604ZM49.74 32.572H44.164V36.572H49.74V32.572ZM42.1867 34.2716L36.3387 72.7596L40.2933 73.3604L46.1413 34.8724L42.1867 34.2716ZM38.316 71.06H25.464V75.06H38.316V71.06ZM27.4414 73.3599L34.6494 25.8279L30.6946 25.2281L23.4866 72.7601L27.4414 73.3599ZM32.672 27.528H72.588V23.528H32.672V27.528ZM72.588 27.528C74.0005 27.528 75.3571 27.8413 76.6782 28.483L78.4258 24.885C76.5736 23.9853 74.6208 23.528 72.588 23.528V27.528ZM76.6743 28.4811C78.2589 29.255 78.476 29.9495 78.476 30.424H82.476C82.476 27.8158 80.7438 26.017 78.4297 24.8869L76.6743 28.4811ZM78.476 30.424C78.476 30.5205 78.466 30.5576 78.4677 30.5509L82.3483 31.5211C82.4406 31.1517 82.476 30.7809 82.476 30.424H78.476ZM78.4307 30.7353L72.0387 72.7593L75.9933 73.3607L82.3853 31.3367L78.4307 30.7353ZM117.403 52.252L117.475 50.2533L115.798 50.1934L115.447 51.8342L117.403 52.252ZM114.411 66.26V68.26H116.029L116.367 66.6778L114.411 66.26ZM101.559 66.26L99.6033 65.8422L99.0869 68.26H101.559V66.26ZM104.551 52.252L106.507 52.6698L107.023 50.252H104.551V52.252ZM89.6592 51.504L90.3685 49.634L90.3614 49.6313L89.6592 51.504ZM88.4352 40.692L90.3885 41.1217L90.3887 41.1208L88.4352 40.692ZM90.2712 32.328V30.328H88.6626L88.3177 31.8992L90.2712 32.328ZM103.259 32.328L105.214 32.7524L105.74 30.328H103.259V32.328ZM100.335 45.792L98.3807 45.3675L97.8542 47.792H100.335V45.792ZM123.115 45.792V47.792H124.735L125.072 46.207L123.115 45.792ZM125.971 32.328V30.328H124.351L124.015 31.913L125.971 32.328ZM138.891 32.328L140.847 32.7459L141.364 30.328H138.891V32.328ZM135.491 48.24L133.535 47.8221L133.535 47.8231L135.491 48.24ZM119.307 52.32L119.379 50.3213L119.307 52.32ZM115.447 51.8342L112.455 65.8422L116.367 66.6778L119.359 52.6698L115.447 51.8342ZM114.411 64.26H101.559V68.26H114.411V64.26ZM103.515 66.6778L106.507 52.6698L102.595 51.8342L99.6033 65.8422L103.515 66.6778ZM104.551 50.252H94.0792V54.252H104.551V50.252ZM94.0792 50.252C92.6512 50.252 91.4233 50.0341 90.3685 49.634L88.9499 53.374C90.5244 53.9712 92.2432 54.252 94.0792 54.252V50.252ZM90.3614 49.6313C89.631 49.3574 89.266 49.0843 89.0991 48.9007C88.9711 48.7599 88.9392 48.6581 88.9392 48.512H84.9392C84.9392 51.0461 86.8003 52.5679 88.9569 53.3767L90.3614 49.6313ZM88.9392 48.512C88.9392 48.531 88.9386 48.4969 88.9511 48.3801C88.9626 48.2731 88.9816 48.1283 89.0101 47.9408C89.067 47.5656 89.1552 47.0622 89.2776 46.4228C89.5218 45.146 89.8913 43.3816 90.3885 41.1217L86.4819 40.2623C85.9817 42.5358 85.6032 44.3414 85.3488 45.6712C85.1123 46.9074 84.9392 47.9402 84.9392 48.512H88.9392ZM90.3887 41.1208L92.2247 32.7568L88.3177 31.8992L86.4817 40.2632L90.3887 41.1208ZM90.2712 34.328H103.259V30.328H90.2712V34.328ZM101.305 31.9035L98.3807 45.3675L102.29 46.2164L105.214 32.7524L101.305 31.9035ZM100.335 47.792H123.115V43.792H100.335V47.792ZM125.072 46.207L127.928 32.743L124.015 31.913L121.159 45.377L125.072 46.207ZM125.971 34.328H138.891V30.328H125.971V34.328ZM136.935 31.9101L133.535 47.8221L137.447 48.6579L140.847 32.7459L136.935 31.9101ZM133.535 47.8231C133.465 48.1515 133.112 48.8353 131.208 49.4467C129.349 50.0436 126.51 50.388 122.571 50.388V54.388C126.656 54.388 129.983 54.041 132.431 53.2553C134.833 52.484 136.928 51.0939 137.447 48.6569L133.535 47.8231ZM122.571 50.388C121.696 50.388 120.633 50.3661 119.379 50.3213L119.236 54.3187C120.52 54.3646 121.633 54.388 122.571 54.388V50.388ZM119.379 50.3213L117.475 50.2533L117.332 54.2507L119.236 54.3187L119.379 50.3213ZM144.402 65.512L145.086 63.6324L145.075 63.6285L144.402 65.512ZM142.634 57.42V55.42H141.016L140.678 57.0027L142.634 57.42ZM155.554 57.42L157.516 57.8122L157.994 55.42H155.554V57.42ZM155.078 59.8L153.117 59.4078L152.639 61.8H155.078V59.8ZM177.79 59.8V61.8H179.404L179.745 60.2227L177.79 59.8ZM179.422 52.252L181.377 52.6747L181.901 50.252H179.422V52.252ZM147.394 51.436L148.06 49.55L148.053 49.5476L147.394 51.436ZM147.122 36.34L149.077 36.7635L149.079 36.7544L149.081 36.7452L147.122 36.34ZM151.134 33.212L151.745 35.1164L151.753 35.1141L151.134 33.212ZM192.614 33.076L193.222 31.1707L193.214 31.168L192.614 33.076ZM194.722 41.168V43.168H196.341L196.678 41.5853L194.722 41.168ZM181.734 41.168L179.785 40.7223L179.226 43.168H181.734V41.168ZM182.278 38.788L184.228 39.2336L184.787 36.788H182.278V38.788ZM159.498 38.788V36.788H157.865L157.539 38.3885L159.498 38.788ZM158.07 45.792L156.111 45.3925L155.621 47.792H158.07V45.792ZM190.03 46.608L189.365 48.494L189.372 48.4964L190.03 46.608ZM190.234 62.316L192.19 62.7351L192.191 62.7322L190.234 62.316ZM186.494 65.376L185.839 63.4865L185.834 63.4883L186.494 65.376ZM181.326 64.328H148.754V68.328H181.326V64.328ZM148.754 64.328C147.611 64.328 146.392 64.1072 145.086 63.6324L143.719 67.3916C145.405 68.0048 147.087 68.328 148.754 68.328V64.328ZM145.075 63.6285C144.267 63.3398 143.848 63.0603 143.657 62.8739C143.571 62.7899 143.55 62.7426 143.548 62.7381C143.546 62.7348 143.547 62.7352 143.547 62.7373C143.547 62.7392 143.546 62.7357 143.546 62.724H139.546C139.546 65.2656 141.664 66.6576 143.73 67.3955L145.075 63.6285ZM143.546 62.724C143.546 62.9105 143.514 63.0563 143.536 62.9253C143.544 62.8797 143.557 62.8036 143.579 62.6902C143.622 62.4662 143.687 62.1371 143.778 61.6979C143.957 60.8218 144.228 59.5359 144.59 57.8373L140.678 57.0027C140.315 58.7041 140.042 60.0022 139.859 60.8941C139.768 61.3389 139.698 61.6898 139.65 61.9418C139.626 62.0664 139.606 62.1773 139.591 62.2677C139.59 62.2727 139.546 62.5035 139.546 62.724H143.546ZM142.634 59.42H155.554V55.42H142.634V59.42ZM153.593 57.0278L153.117 59.4078L157.04 60.1922L157.516 57.8122L153.593 57.0278ZM155.078 61.8H177.79V57.8H155.078V61.8ZM179.745 60.2227L181.377 52.6747L177.468 51.8293L175.836 59.3773L179.745 60.2227ZM179.422 50.252H151.746V54.252H179.422V50.252ZM151.746 50.252C150.654 50.252 149.429 50.0333 148.06 49.55L146.729 53.322C148.442 53.9267 150.119 54.252 151.746 54.252V50.252ZM148.053 49.5476C147.211 49.2537 146.768 48.9715 146.564 48.7816C146.406 48.6347 146.47 48.6296 146.47 48.716H142.47C142.47 51.267 144.699 52.6139 146.736 53.3244L148.053 49.5476ZM146.47 48.716C146.47 48.8021 146.465 48.8688 146.463 48.8921C146.46 48.9234 146.457 48.948 146.455 48.9617C146.451 48.9889 146.448 49.0085 146.447 49.0139C146.446 49.0262 146.445 49.0295 146.447 49.0169C146.451 48.9943 146.459 48.9527 146.473 48.8871C146.499 48.7579 146.539 48.564 146.594 48.3019C146.703 47.7794 146.868 47.0037 147.089 45.9731C147.53 43.9127 148.193 40.8432 149.077 36.7635L145.168 35.9165C144.284 39.9968 143.62 43.07 143.178 45.1349C142.957 46.167 142.79 46.9496 142.679 47.4811C142.623 47.746 142.58 47.953 142.551 48.0987C142.537 48.1704 142.524 48.2347 142.514 48.2865C142.51 48.3111 142.504 48.3437 142.498 48.3775C142.496 48.3935 142.491 48.4219 142.487 48.4559C142.487 48.4593 142.47 48.5744 142.47 48.716H146.47ZM149.081 36.7452C149.114 36.5868 149.435 35.8574 151.745 35.1164L150.524 31.3076C148.028 32.108 145.675 33.4639 145.164 35.9348L149.081 36.7452ZM151.753 35.1141C153.377 34.5863 154.982 34.328 156.574 34.328V30.328C154.541 30.328 152.519 30.6591 150.516 31.3099L151.753 35.1141ZM156.574 34.328H187.922V30.328H156.574V34.328ZM187.922 34.328C189.245 34.328 190.607 34.5415 192.015 34.984L193.214 31.168C191.449 30.6132 189.683 30.328 187.922 30.328V34.328ZM192.006 34.9813C192.953 35.2834 193.469 35.5795 193.715 35.7891C193.915 35.9594 193.81 35.9504 193.81 35.796H197.81C197.81 34.5083 197.173 33.4793 196.308 32.7429C195.488 32.0458 194.407 31.5486 193.222 31.1707L192.006 34.9813ZM193.81 35.796C193.81 35.6355 193.834 35.5243 193.817 35.6324C193.81 35.6789 193.797 35.7563 193.775 35.872C193.733 36.1009 193.668 36.4342 193.578 36.878C193.399 37.763 193.129 39.0526 192.766 40.7507L196.678 41.5853C197.041 39.8834 197.315 38.5777 197.499 37.672C197.59 37.2204 197.661 36.8596 197.709 36.5955C197.733 36.4647 197.754 36.3459 197.77 36.2464C197.776 36.2087 197.81 36.0019 197.81 35.796H193.81ZM194.722 39.168H181.734V43.168H194.722V39.168ZM183.684 41.6136L184.228 39.2336L180.329 38.3423L179.785 40.7223L183.684 41.6136ZM182.278 36.788H159.498V40.788H182.278V36.788ZM157.539 38.3885L156.111 45.3925L160.03 46.1915L161.458 39.1875L157.539 38.3885ZM158.07 47.792H185.678V43.792H158.07V47.792ZM185.678 47.792C186.771 47.792 187.995 48.0107 189.365 48.494L190.696 44.722C188.983 44.1173 187.306 43.792 185.678 43.792V47.792ZM189.372 48.4964C190.214 48.7903 190.657 49.0725 190.861 49.2624C191.019 49.4093 190.954 49.4144 190.954 49.328H194.954C194.954 46.777 192.726 45.4301 190.689 44.7196L189.372 48.4964ZM190.954 49.328C190.954 49.2209 190.964 49.1388 190.965 49.1264C190.968 49.0984 190.971 49.0782 190.972 49.0712C190.974 49.0565 190.975 49.0518 190.973 49.0642C190.969 49.0868 190.961 49.1299 190.948 49.1996C190.921 49.3365 190.881 49.5413 190.824 49.8183C190.712 50.3703 190.543 51.1857 190.317 52.267C189.864 54.4285 189.185 57.639 188.278 61.8998L192.191 62.7322C193.097 58.4704 193.778 55.2548 194.232 53.087C194.459 52.0036 194.63 51.1785 194.744 50.6142C194.801 50.333 194.846 50.1107 194.876 49.9515C194.891 49.8732 194.905 49.801 194.915 49.741C194.92 49.7122 194.926 49.6745 194.932 49.6349C194.935 49.6154 194.939 49.5848 194.943 49.5485C194.945 49.5278 194.954 49.4393 194.954 49.328H190.954ZM188.279 61.8969C188.241 62.0714 187.93 62.761 185.839 63.4865L187.15 67.2655C189.502 66.4496 191.683 65.0993 192.19 62.7351L188.279 61.8969ZM185.834 63.4883C184.196 64.0615 182.698 64.328 181.326 64.328V68.328C183.219 68.328 185.166 67.9598 187.155 67.2637L185.834 63.4883ZM252.866 38.788V40.788H254.488L254.823 39.2L252.866 38.788ZM235.594 38.788V36.788H233.974L233.637 38.3716L235.594 38.788ZM229.746 66.26V68.26H231.365L231.702 66.6764L229.746 66.26ZM216.894 66.26L214.937 65.8436L214.423 68.26H216.894V66.26ZM222.742 38.788L224.698 39.2044L225.212 36.788H222.742V38.788ZM204.314 38.788L202.356 38.376L201.849 40.788H204.314V38.788ZM205.674 32.328V30.328H204.051L203.716 31.916L205.674 32.328ZM254.226 32.328L256.183 32.74L256.69 30.328H254.226V32.328ZM252.866 36.788H235.594V40.788H252.866V36.788ZM233.637 38.3716L227.789 65.8436L231.702 66.6764L237.55 39.2044L233.637 38.3716ZM229.746 64.26H216.894V68.26H229.746V64.26ZM218.85 66.6764L224.698 39.2044L220.785 38.3716L214.937 65.8436L218.85 66.6764ZM222.742 36.788H204.314V40.788H222.742V36.788ZM206.271 39.2L207.631 32.74L203.716 31.916L202.356 38.376L206.271 39.2ZM205.674 34.328H254.226V30.328H205.674V34.328ZM252.268 31.916L250.908 38.376L254.823 39.2L256.183 32.74L252.268 31.916ZM268.985 66.26V68.26H270.601L270.94 66.6793L268.985 66.26ZM256.133 66.26L254.176 65.8444L253.663 68.26H256.133V66.26ZM263.341 32.328V30.328H261.721L261.384 31.9124L263.341 32.328ZM276.261 32.328L278.216 32.7473L278.735 30.328H276.261V32.328ZM268.985 64.26H256.133V68.26H268.985V64.26ZM258.089 66.6756L265.297 32.7436L261.384 31.9124L254.176 65.8444L258.089 66.6756ZM263.341 34.328H276.261V30.328H263.341V34.328ZM274.305 31.9087L267.029 65.8407L270.94 66.6793L278.216 32.7473L274.305 31.9087ZM282.207 65.512L282.891 63.6324L282.88 63.6285L282.207 65.512ZM284.995 36.34L286.95 36.7604L286.952 36.7528L286.954 36.7452L284.995 36.34ZM289.007 33.212L289.618 35.1164L289.625 35.1141L289.007 33.212ZM330.487 33.076L329.871 34.9789L329.879 34.9813L330.487 33.076ZM332.595 41.168V43.168H334.213L334.551 41.5853L332.595 41.168ZM319.607 41.168L317.657 40.7223L317.098 43.168H319.607V41.168ZM320.151 38.788L322.101 39.2336L322.66 36.788H320.151V38.788ZM297.371 38.788V36.788H295.748L295.414 38.3763L297.371 38.788ZM292.951 59.8L290.994 59.3883L290.487 61.8H292.951V59.8ZM315.663 59.8V61.8H317.257L317.613 60.2456L315.663 59.8ZM316.207 57.42V55.42H314.613L314.257 56.9743L316.207 57.42ZM329.127 57.42L331.085 57.8279L331.587 55.42H329.127V57.42ZM328.107 62.316L330.063 62.7351L330.065 62.7239L328.107 62.316ZM324.367 65.376L323.711 63.4865L323.701 63.49L323.691 63.4936L324.367 65.376ZM319.199 64.328H286.627V68.328H319.199V64.328ZM286.627 64.328C285.431 64.328 284.189 64.1045 282.891 63.6324L281.524 67.3916C283.217 68.0075 284.922 68.328 286.627 68.328V64.328ZM282.88 63.6285C282.071 63.3398 281.653 63.0603 281.462 62.8739C281.376 62.7899 281.354 62.7426 281.352 62.7381C281.351 62.7348 281.351 62.7352 281.352 62.7373C281.352 62.7392 281.351 62.7357 281.351 62.724H277.351C277.351 65.2656 279.468 66.6576 281.534 67.3955L282.88 63.6285ZM281.351 62.724C281.351 62.8145 281.345 62.8847 281.343 62.907C281.34 62.9386 281.337 62.9636 281.335 62.9775C281.331 63.0054 281.328 63.0262 281.327 63.0334C281.324 63.0495 281.322 63.0587 281.323 63.0543C281.324 63.0481 281.328 63.0304 281.334 62.9963C281.348 62.9303 281.368 62.8287 281.398 62.6883C281.455 62.4091 281.543 61.993 281.66 61.4383C281.895 60.3297 282.248 58.6767 282.718 56.4784C283.658 52.0821 285.069 45.5096 286.95 36.7604L283.04 35.9196C281.158 44.669 279.747 51.2432 278.806 55.6416C278.336 57.8406 277.983 59.4969 277.747 60.6097C277.629 61.1657 277.541 61.5882 277.481 61.8757C277.451 62.0187 277.428 62.1323 277.412 62.2137C277.404 62.2533 277.396 62.2922 277.39 62.3257C277.387 62.3411 277.383 62.3659 277.378 62.3933C277.376 62.4062 277.372 62.4317 277.368 62.4631C277.366 62.4787 277.363 62.5052 277.36 62.5381C277.357 62.5616 277.351 62.6328 277.351 62.724H281.351ZM286.954 36.7452C286.986 36.5868 287.308 35.8574 289.618 35.1164L288.396 31.3076C285.901 32.108 283.548 33.4639 283.037 35.9348L286.954 36.7452ZM289.625 35.1141C291.249 34.5863 292.854 34.328 294.447 34.328V30.328C292.413 30.328 290.392 30.6591 288.389 31.3099L289.625 35.1141ZM294.447 34.328H325.795V30.328H294.447V34.328ZM325.795 34.328C327.168 34.328 328.525 34.5432 329.871 34.9789L331.103 31.1731C329.367 30.6115 327.595 30.328 325.795 30.328V34.328ZM329.879 34.9813C330.825 35.2834 331.342 35.5795 331.588 35.7891C331.788 35.9594 331.683 35.9504 331.683 35.796H335.683C335.683 34.5083 335.045 33.4793 334.18 32.7429C333.361 32.0458 332.279 31.5486 331.095 31.1707L329.879 34.9813ZM331.683 35.796C331.683 35.6355 331.707 35.5243 331.69 35.6324C331.683 35.6789 331.669 35.7563 331.648 35.872C331.606 36.1009 331.541 36.4342 331.451 36.878C331.272 37.763 331.001 39.0526 330.639 40.7507L334.551 41.5853C334.914 39.8834 335.188 38.5777 335.371 37.672C335.463 37.2204 335.533 36.8596 335.582 36.5955C335.606 36.4647 335.627 36.3459 335.642 36.2464C335.648 36.2087 335.683 36.0019 335.683 35.796H331.683ZM332.595 39.168H319.607V43.168H332.595V39.168ZM321.557 41.6136L322.101 39.2336L318.201 38.3423L317.657 40.7223L321.557 41.6136ZM320.151 36.788H297.371V40.788H320.151V36.788ZM295.414 38.3763L290.994 59.3883L294.908 60.2117L299.328 39.1997L295.414 38.3763ZM292.951 61.8H315.663V57.8H292.951V61.8ZM317.613 60.2456L318.157 57.8657L314.257 56.9743L313.713 59.3544L317.613 60.2456ZM316.207 59.42H329.127V55.42H316.207V59.42ZM327.169 57.0121L326.149 61.9081L330.065 62.7239L331.085 57.8279L327.169 57.0121ZM326.151 61.8969C326.114 62.0714 325.802 62.761 323.711 63.4865L325.023 67.2655C327.374 66.4496 329.556 65.0993 330.063 62.7351L326.151 61.8969ZM323.691 63.4936C322.114 64.0597 320.62 64.328 319.199 64.328V68.328C321.133 68.328 323.084 67.9616 325.043 67.2584L323.691 63.4936ZM384.89 66.26V68.26H386.508L386.846 66.6785L384.89 66.26ZM371.97 66.26L370.014 65.8442L369.5 68.26H371.97V66.26ZM374.962 52.184L376.918 52.5998L377.432 50.184H374.962V52.184ZM352.182 52.184V50.184H350.563L350.226 51.7682L352.182 52.184ZM349.19 66.26V68.26H350.81L351.147 66.6758L349.19 66.26ZM336.27 66.26L334.314 65.8422L333.798 68.26H336.27V66.26ZM342.662 36.34L344.618 36.7578L344.621 36.7451L344.623 36.7322L342.662 36.34ZM346.674 33.144L347.285 35.0484L347.292 35.0461L346.674 33.144ZM388.154 33.008L387.539 34.9109L387.546 34.9133L388.154 33.008ZM376.254 45.724V47.724H377.869L378.209 46.1457L376.254 45.724ZM377.75 38.788L379.705 39.2097L380.228 36.788H377.75V38.788ZM355.106 38.788V36.788H353.476L353.147 38.3847L355.106 38.788ZM353.678 45.724L351.719 45.3207L351.224 47.724H353.678V45.724ZM384.89 64.26H371.97V68.26H384.89V64.26ZM373.927 66.6758L376.918 52.5998L373.006 51.7682L370.014 65.8442L373.927 66.6758ZM374.962 50.184H352.182V54.184H374.962V50.184ZM350.226 51.7682L347.234 65.8442L351.147 66.6758L354.138 52.5998L350.226 51.7682ZM349.19 64.26H336.27V68.26H349.19V64.26ZM338.226 66.6778L344.618 36.7578L340.706 35.9222L334.314 65.8422L338.226 66.6778ZM344.623 36.7322C344.666 36.5212 345.006 35.7795 347.285 35.0484L346.063 31.2396C343.537 32.0498 341.203 33.4388 340.701 35.9478L344.623 36.7322ZM347.292 35.0461C348.916 34.5183 350.521 34.26 352.114 34.26V30.26C350.08 30.26 348.059 30.5911 346.056 31.2419L347.292 35.0461ZM352.114 34.26H383.462V30.26H352.114V34.26ZM383.462 34.26C384.835 34.26 386.192 34.4752 387.539 34.9109L388.77 31.1051C387.034 30.5435 385.262 30.26 383.462 30.26V34.26ZM387.546 34.9133C388.486 35.2132 388.995 35.5111 389.236 35.7221C389.429 35.8899 389.35 35.8996 389.35 35.796H393.35C393.35 34.5137 392.739 33.4694 391.866 32.7079C391.042 31.9895 389.953 31.4828 388.762 31.1027L387.546 34.9133ZM389.35 35.796C389.35 35.5948 389.388 35.4126 389.371 35.5123C389.37 35.5174 389.367 35.5366 389.36 35.5764C389.345 35.6534 389.322 35.7721 389.289 35.9369C389.223 36.2644 389.123 36.7492 388.988 37.3941C388.72 38.6825 388.317 40.595 387.779 43.1331C386.702 48.2086 385.088 55.7778 382.934 65.8415L386.846 66.6785C388.999 56.6142 390.615 49.0421 391.692 43.9629C392.23 41.4237 392.634 39.5055 392.904 38.2099C393.039 37.5627 393.141 37.0673 393.21 36.7261C393.244 36.5566 393.271 36.4188 393.29 36.3173C393.3 36.2679 393.309 36.2174 393.316 36.1721C393.32 36.1505 393.325 36.1183 393.33 36.0823C393.333 36.0645 393.336 36.0356 393.34 36.0007C393.342 35.9781 393.35 35.8979 393.35 35.796H389.35ZM378.209 46.1457L379.705 39.2097L375.795 38.3663L374.299 45.3023L378.209 46.1457ZM377.75 36.788H355.106V40.788H377.75V36.788ZM353.147 38.3847L351.719 45.3207L355.637 46.1273L357.065 39.1913L353.147 38.3847ZM353.678 47.724H376.254V43.724H353.678V47.724ZM442.557 66.26V68.26H444.18L444.515 66.672L442.557 66.26ZM394.005 66.26L392.049 65.8444L391.536 68.26H394.005V66.26ZM401.213 32.328V30.328H399.594L399.257 31.9124L401.213 32.328ZM414.133 32.328L416.09 32.7444L416.604 30.328H414.133V32.328ZM408.285 59.8L406.329 59.3836L405.815 61.8H408.285V59.8ZM443.917 59.8L445.875 60.212L446.382 57.8H443.917V59.8ZM442.557 64.26H394.005V68.26H442.557V64.26ZM395.962 66.6756L403.17 32.7436L399.257 31.9124L392.049 65.8444L395.962 66.6756ZM401.213 34.328H414.133V30.328H401.213V34.328ZM412.177 31.9116L406.329 59.3836L410.242 60.2164L416.09 32.7444L412.177 31.9116ZM408.285 61.8H443.917V57.8H408.285V61.8ZM441.96 59.388L440.6 65.848L444.515 66.672L445.875 60.212L441.96 59.388Z" fill="white"/>
<defs>
<filter id="filter0_f_186_2931" x="15.4641" y="15.528" width="438.453" height="67.532" filterUnits="userSpaceOnUse" color-interpolation-filters="sRGB">
<feFlood flood-opacity="0" result="BackgroundImageFix"/>
<feBlend mode="normal" in="SourceGraphic" in2="BackgroundImageFix" result="shape"/>
<feGaussianBlur stdDeviation="5" result="effect1_foregroundBlur_186_2931"/>
</filter>
<filter id="filter1_f_186_2931" x="5.46411" y="5.528" width="458.453" height="87.532" filterUnits="userSpaceOnUse" color-interpolation-filters="sRGB">
<feFlood flood-opacity="0" result="BackgroundImageFix"/>
<feBlend mode="normal" in="SourceGraphic" in2="BackgroundImageFix" result="shape"/>
<feGaussianBlur stdDeviation="10" result="effect1_foregroundBlur_186_2931"/>
</filter>
<filter id="filter2_f_186_2931" x="0.464111" y="0.528" width="468.453" height="97.532" filterUnits="userSpaceOnUse" color-interpolation-filters="sRGB">
<feFlood flood-opacity="0" result="BackgroundImageFix"/>
<feBlend mode="normal" in="SourceGraphic" in2="BackgroundImageFix" result="shape"/>
<feGaussianBlur stdDeviation="12.5" result="effect1_foregroundBlur_186_2931"/>
</filter>
<linearGradient id="paint0_linear_186_2931" x1="239" y1="16" x2="239" y2="84" gradientUnits="userSpaceOnUse">
<stop stop-color="#3BEDF9"/>
<stop offset="1" stop-color="#164FFF"/>
</linearGradient>
<linearGradient id="paint1_linear_186_2931" x1="239" y1="16" x2="239" y2="84" gradientUnits="userSpaceOnUse">
<stop stop-color="#3BEDF9"/>
<stop offset="1" stop-color="#164FFF"/>
</linearGradient>
<linearGradient id="paint2_linear_186_2931" x1="239" y1="16" x2="239" y2="84" gradientUnits="userSpaceOnUse">
<stop stop-color="#3BEDF9"/>
<stop offset="1" stop-color="#164FFF"/>
</linearGradient>
</defs>
</svg>
