<svg width="244" height="99" viewBox="0 0 244 99" fill="none" xmlns="http://www.w3.org/2000/svg">
<g filter="url(#filter0_f_4_8854)">
<path d="M74.016 73.06V75.06H75.7377L75.9938 73.3574L74.016 73.06ZM25.464 73.06L23.4866 72.7601L23.1378 75.06H25.464V73.06ZM32.672 25.528V23.528H30.9524L30.6946 25.2281L32.672 25.528ZM81.224 25.528L83.2018 25.8254L83.5472 23.528H81.224V25.528ZM79.864 34.572V36.572H81.5857L81.8418 34.8694L79.864 34.572ZM44.164 34.572V32.572H42.4463L42.1869 34.2699L44.164 34.572ZM42.668 44.364L40.6909 44.0619L40.3392 46.364H42.668V44.364ZM65.38 44.364L67.3578 44.6614L67.7032 42.364H65.38V44.364ZM64.02 53.408V55.408H65.7417L65.9978 53.7054L64.02 53.408ZM41.308 53.408V51.408H39.5813L39.3294 53.1163L41.308 53.408ZM39.744 64.016L37.7654 63.7243L37.4275 66.016H39.744V64.016ZM75.376 64.016L77.3538 64.3134L77.6992 62.016H75.376V64.016ZM74.016 71.06H25.464V75.06H74.016V71.06ZM27.4414 73.3599L34.6494 25.8279L30.6946 25.2281L23.4866 72.7601L27.4414 73.3599ZM32.672 27.528H81.224V23.528H32.672V27.528ZM79.2462 25.2306L77.8862 34.2746L81.8418 34.8694L83.2018 25.8254L79.2462 25.2306ZM79.864 32.572H44.164V36.572H79.864V32.572ZM42.1869 34.2699L40.6909 44.0619L44.6451 44.666L46.1411 34.874L42.1869 34.2699ZM42.668 46.364H65.38V42.364H42.668V46.364ZM63.4022 44.0666L62.0422 53.1106L65.9978 53.7054L67.3578 44.6614L63.4022 44.0666ZM64.02 51.408H41.308V55.408H64.02V51.408ZM39.3294 53.1163L37.7654 63.7243L41.7226 64.3077L43.2866 53.6997L39.3294 53.1163ZM39.744 66.016H75.376V62.016H39.744V66.016ZM73.3982 63.7186L72.0382 72.7626L75.9938 73.3574L77.3538 64.3134L73.3982 63.7186ZM98.9752 52.252V50.252H97.3573L97.0193 51.8342L98.9752 52.252ZM95.9832 66.26V68.26H97.6011L97.9391 66.6778L95.9832 66.26ZM83.1312 66.26L81.1748 65.8444L80.6617 68.26H83.1312V66.26ZM90.3392 32.328V30.328H88.7194L88.3828 31.9124L90.3392 32.328ZM134.947 33.076L134.332 34.9789L134.339 34.9813L134.947 33.076ZM135.559 48.24L137.515 48.6591L137.516 48.6553L135.559 48.24ZM131.819 51.3L131.164 49.4105L131.158 49.4123L131.819 51.3ZM123.047 45.724V47.724H124.662L125.002 46.1457L123.047 45.724ZM124.543 38.788L126.498 39.2097L127.021 36.788H124.543V38.788ZM101.899 38.788V36.788H100.269L99.9403 38.3847L101.899 38.788ZM100.471 45.724L98.5123 45.3207L98.0175 47.724H100.471V45.724ZM97.0193 51.8342L94.0273 65.8422L97.9391 66.6778L100.931 52.6698L97.0193 51.8342ZM95.9832 64.26H83.1312V68.26H95.9832V64.26ZM85.0875 66.6756L92.2955 32.7436L88.3828 31.9124L81.1748 65.8444L85.0875 66.6756ZM90.3392 34.328H130.255V30.328H90.3392V34.328ZM130.255 34.328C131.628 34.328 132.985 34.5432 134.332 34.9789L135.563 31.1731C133.827 30.6115 132.055 30.328 130.255 30.328V34.328ZM134.339 34.9813C135.285 35.2834 135.802 35.5795 136.048 35.7891C136.248 35.9594 136.143 35.9504 136.143 35.796H140.143C140.143 34.5083 139.506 33.4793 138.64 32.7429C137.821 32.0458 136.74 31.5486 135.555 31.1707L134.339 34.9813ZM136.143 35.796C136.143 35.6151 136.173 35.4674 136.158 35.5624C136.155 35.5817 136.148 35.6216 136.136 35.6888C136.111 35.8208 136.073 36.018 136.02 36.2855C135.914 36.8183 135.754 37.6008 135.539 38.6364C135.109 40.7059 134.464 43.7681 133.603 47.8247L137.516 48.6553C138.377 44.5973 139.024 41.5281 139.455 39.4496C139.671 38.4111 139.834 37.6155 139.943 37.066C139.998 36.7924 140.04 36.5723 140.07 36.4111C140.085 36.3317 140.098 36.2559 140.108 36.1905C140.113 36.1586 140.12 36.1174 140.125 36.0735C140.127 36.0591 140.143 35.9392 140.143 35.796H136.143ZM133.604 47.8209C133.566 47.9954 133.255 48.685 131.164 49.4105L132.475 53.1895C134.826 52.3736 137.008 51.0233 137.515 48.6591L133.604 47.8209ZM131.158 49.4123C129.521 49.9855 128.022 50.252 126.651 50.252V54.252C128.544 54.252 130.491 53.8838 132.48 53.1877L131.158 49.4123ZM126.651 50.252H98.9752V54.252H126.651V50.252ZM125.002 46.1457L126.498 39.2097L122.588 38.3663L121.092 45.3023L125.002 46.1457ZM124.543 36.788H101.899V40.788H124.543V36.788ZM99.9403 38.3847L98.5123 45.3207L102.43 46.1273L103.858 39.1913L99.9403 38.3847ZM100.471 47.724H123.047V43.724H100.471V47.724ZM153.65 66.26V68.26H155.267L155.606 66.6793L153.65 66.26ZM140.798 66.26L138.842 65.8444L138.329 68.26H140.798V66.26ZM148.006 32.328V30.328H146.387L146.05 31.9124L148.006 32.328ZM160.926 32.328L162.882 32.7473L163.401 30.328H160.926V32.328ZM153.65 64.26H140.798V68.26H153.65V64.26ZM142.755 66.6756L149.963 32.7436L146.05 31.9124L138.842 65.8444L142.755 66.6756ZM148.006 34.328H160.926V30.328H148.006V34.328ZM158.971 31.9087L151.695 65.8407L155.606 66.6793L162.882 32.7473L158.971 31.9087ZM166.873 65.512L167.556 63.6324L167.545 63.6285L166.873 65.512ZM169.661 36.34L171.616 36.7604L171.618 36.7528L171.619 36.7452L169.661 36.34ZM173.673 33.212L174.284 35.1164L174.291 35.1141L173.673 33.212ZM215.153 33.076L214.537 34.9789L214.545 34.9813L215.153 33.076ZM217.261 41.168V43.168H218.879L219.217 41.5853L217.261 41.168ZM204.273 41.168L202.323 40.7223L201.764 43.168H204.273V41.168ZM204.817 38.788L206.766 39.2336L207.325 36.788H204.817V38.788ZM182.037 38.788V36.788H180.414L180.079 38.3763L182.037 38.788ZM177.617 59.8L175.659 59.3883L175.152 61.8H177.617V59.8ZM200.329 59.8V61.8H201.923L202.278 60.2456L200.329 59.8ZM200.873 57.42V55.42H199.278L198.923 56.9743L200.873 57.42ZM213.793 57.42L215.751 57.8279L216.252 55.42H213.793V57.42ZM212.773 62.316L214.728 62.7351L214.731 62.7239L212.773 62.316ZM209.033 65.376L208.377 63.4865L208.367 63.49L208.357 63.4936L209.033 65.376ZM203.865 64.328H171.293V68.328H203.865V64.328ZM171.293 64.328C170.097 64.328 168.854 64.1045 167.556 63.6324L166.189 67.3916C167.883 68.0075 169.587 68.328 171.293 68.328V64.328ZM167.545 63.6285C166.737 63.3398 166.319 63.0603 166.128 62.8739C166.042 62.7899 166.02 62.7426 166.018 62.7381C166.016 62.7348 166.017 62.7352 166.017 62.7373C166.018 62.7392 166.017 62.7357 166.017 62.724H162.017C162.017 65.2656 164.134 66.6576 166.2 67.3955L167.545 63.6285ZM166.017 62.724C166.017 62.8145 166.01 62.8847 166.008 62.907C166.005 62.9386 166.002 62.9636 166 62.9775C165.997 63.0054 165.993 63.0262 165.992 63.0334C165.99 63.0495 165.988 63.0587 165.989 63.0543C165.99 63.0481 165.993 63.0304 166 62.9963C166.013 62.9303 166.034 62.8287 166.063 62.6883C166.121 62.4091 166.209 61.993 166.326 61.4383C166.561 60.3297 166.913 58.6767 167.383 56.4784C168.324 52.0821 169.735 45.5096 171.616 36.7604L167.705 35.9196C165.824 44.669 164.413 51.2432 163.472 55.6416C163.001 57.8406 162.648 59.4969 162.413 60.6097C162.295 61.1657 162.206 61.5882 162.147 61.8757C162.117 62.0187 162.094 62.1323 162.077 62.2137C162.069 62.2533 162.062 62.2922 162.056 62.3257C162.053 62.3411 162.048 62.3659 162.044 62.3933C162.042 62.4062 162.038 62.4317 162.034 62.4631C162.032 62.4787 162.028 62.5052 162.025 62.5381C162.023 62.5616 162.017 62.6328 162.017 62.724H166.017ZM171.619 36.7452C171.652 36.5868 171.974 35.8574 174.284 35.1164L173.062 31.3076C170.566 32.108 168.213 33.4639 167.702 35.9348L171.619 36.7452ZM174.291 35.1141C175.915 34.5863 177.52 34.328 179.113 34.328V30.328C177.079 30.328 175.057 30.6591 173.054 31.3099L174.291 35.1141ZM179.113 34.328H210.461V30.328H179.113V34.328ZM210.461 34.328C211.834 34.328 213.19 34.5432 214.537 34.9789L215.768 31.1731C214.032 30.6115 212.261 30.328 210.461 30.328V34.328ZM214.545 34.9813C215.491 35.2834 216.007 35.5795 216.253 35.7891C216.454 35.9594 216.349 35.9504 216.349 35.796H220.349C220.349 34.5083 219.711 33.4793 218.846 32.7429C218.027 32.0458 216.945 31.5486 215.761 31.1707L214.545 34.9813ZM216.349 35.796C216.349 35.6355 216.372 35.5243 216.355 35.6324C216.348 35.6789 216.335 35.7563 216.314 35.872C216.272 36.1009 216.206 36.4342 216.116 36.878C215.937 37.763 215.667 39.0526 215.305 40.7507L219.217 41.5853C219.58 39.8834 219.853 38.5777 220.037 37.672C220.128 37.2204 220.199 36.8596 220.248 36.5955C220.272 36.4647 220.292 36.3459 220.308 36.2464C220.314 36.2087 220.349 36.0019 220.349 35.796H216.349ZM217.261 39.168H204.273V43.168H217.261V39.168ZM206.222 41.6136L206.766 39.2336L202.867 38.3423L202.323 40.7223L206.222 41.6136ZM204.817 36.788H182.037V40.788H204.817V36.788ZM180.079 38.3763L175.659 59.3883L179.574 60.2117L183.994 39.1997L180.079 38.3763ZM177.617 61.8H200.329V57.8H177.617V61.8ZM202.278 60.2456L202.822 57.8657L198.923 56.9743L198.379 59.3544L202.278 60.2456ZM200.873 59.42H213.793V55.42H200.873V59.42ZM211.835 57.0121L210.815 61.9081L214.731 62.7239L215.751 57.8279L211.835 57.0121ZM210.817 61.8969C210.78 62.0714 210.468 62.761 208.377 63.4865L209.688 67.2655C212.04 66.4496 214.222 65.0993 214.728 62.7351L210.817 61.8969ZM208.357 63.4936C206.78 64.0597 205.286 64.328 203.865 64.328V68.328C205.798 68.328 207.749 67.9616 209.708 67.2584L208.357 63.4936Z" fill="url(#paint0_linear_4_8854)"/>
</g>
<g filter="url(#filter1_f_4_8854)">
<path d="M74.016 73.06V75.06H75.7377L75.9938 73.3574L74.016 73.06ZM25.464 73.06L23.4866 72.7601L23.1378 75.06H25.464V73.06ZM32.672 25.528V23.528H30.9524L30.6946 25.2281L32.672 25.528ZM81.224 25.528L83.2018 25.8254L83.5472 23.528H81.224V25.528ZM79.864 34.572V36.572H81.5857L81.8418 34.8694L79.864 34.572ZM44.164 34.572V32.572H42.4463L42.1869 34.2699L44.164 34.572ZM42.668 44.364L40.6909 44.0619L40.3392 46.364H42.668V44.364ZM65.38 44.364L67.3578 44.6614L67.7032 42.364H65.38V44.364ZM64.02 53.408V55.408H65.7417L65.9978 53.7054L64.02 53.408ZM41.308 53.408V51.408H39.5813L39.3294 53.1163L41.308 53.408ZM39.744 64.016L37.7654 63.7243L37.4275 66.016H39.744V64.016ZM75.376 64.016L77.3538 64.3134L77.6992 62.016H75.376V64.016ZM74.016 71.06H25.464V75.06H74.016V71.06ZM27.4414 73.3599L34.6494 25.8279L30.6946 25.2281L23.4866 72.7601L27.4414 73.3599ZM32.672 27.528H81.224V23.528H32.672V27.528ZM79.2462 25.2306L77.8862 34.2746L81.8418 34.8694L83.2018 25.8254L79.2462 25.2306ZM79.864 32.572H44.164V36.572H79.864V32.572ZM42.1869 34.2699L40.6909 44.0619L44.6451 44.666L46.1411 34.874L42.1869 34.2699ZM42.668 46.364H65.38V42.364H42.668V46.364ZM63.4022 44.0666L62.0422 53.1106L65.9978 53.7054L67.3578 44.6614L63.4022 44.0666ZM64.02 51.408H41.308V55.408H64.02V51.408ZM39.3294 53.1163L37.7654 63.7243L41.7226 64.3077L43.2866 53.6997L39.3294 53.1163ZM39.744 66.016H75.376V62.016H39.744V66.016ZM73.3982 63.7186L72.0382 72.7626L75.9938 73.3574L77.3538 64.3134L73.3982 63.7186ZM98.9752 52.252V50.252H97.3573L97.0193 51.8342L98.9752 52.252ZM95.9832 66.26V68.26H97.6011L97.9391 66.6778L95.9832 66.26ZM83.1312 66.26L81.1748 65.8444L80.6617 68.26H83.1312V66.26ZM90.3392 32.328V30.328H88.7194L88.3828 31.9124L90.3392 32.328ZM134.947 33.076L134.332 34.9789L134.339 34.9813L134.947 33.076ZM135.559 48.24L137.515 48.6591L137.516 48.6553L135.559 48.24ZM131.819 51.3L131.164 49.4105L131.158 49.4123L131.819 51.3ZM123.047 45.724V47.724H124.662L125.002 46.1457L123.047 45.724ZM124.543 38.788L126.498 39.2097L127.021 36.788H124.543V38.788ZM101.899 38.788V36.788H100.269L99.9403 38.3847L101.899 38.788ZM100.471 45.724L98.5123 45.3207L98.0175 47.724H100.471V45.724ZM97.0193 51.8342L94.0273 65.8422L97.9391 66.6778L100.931 52.6698L97.0193 51.8342ZM95.9832 64.26H83.1312V68.26H95.9832V64.26ZM85.0875 66.6756L92.2955 32.7436L88.3828 31.9124L81.1748 65.8444L85.0875 66.6756ZM90.3392 34.328H130.255V30.328H90.3392V34.328ZM130.255 34.328C131.628 34.328 132.985 34.5432 134.332 34.9789L135.563 31.1731C133.827 30.6115 132.055 30.328 130.255 30.328V34.328ZM134.339 34.9813C135.285 35.2834 135.802 35.5795 136.048 35.7891C136.248 35.9594 136.143 35.9504 136.143 35.796H140.143C140.143 34.5083 139.506 33.4793 138.64 32.7429C137.821 32.0458 136.74 31.5486 135.555 31.1707L134.339 34.9813ZM136.143 35.796C136.143 35.6151 136.173 35.4674 136.158 35.5624C136.155 35.5817 136.148 35.6216 136.136 35.6888C136.111 35.8208 136.073 36.018 136.02 36.2855C135.914 36.8183 135.754 37.6008 135.539 38.6364C135.109 40.7059 134.464 43.7681 133.603 47.8247L137.516 48.6553C138.377 44.5973 139.024 41.5281 139.455 39.4496C139.671 38.4111 139.834 37.6155 139.943 37.066C139.998 36.7924 140.04 36.5723 140.07 36.4111C140.085 36.3317 140.098 36.2559 140.108 36.1905C140.113 36.1586 140.12 36.1174 140.125 36.0735C140.127 36.0591 140.143 35.9392 140.143 35.796H136.143ZM133.604 47.8209C133.566 47.9954 133.255 48.685 131.164 49.4105L132.475 53.1895C134.826 52.3736 137.008 51.0233 137.515 48.6591L133.604 47.8209ZM131.158 49.4123C129.521 49.9855 128.022 50.252 126.651 50.252V54.252C128.544 54.252 130.491 53.8838 132.48 53.1877L131.158 49.4123ZM126.651 50.252H98.9752V54.252H126.651V50.252ZM125.002 46.1457L126.498 39.2097L122.588 38.3663L121.092 45.3023L125.002 46.1457ZM124.543 36.788H101.899V40.788H124.543V36.788ZM99.9403 38.3847L98.5123 45.3207L102.43 46.1273L103.858 39.1913L99.9403 38.3847ZM100.471 47.724H123.047V43.724H100.471V47.724ZM153.65 66.26V68.26H155.267L155.606 66.6793L153.65 66.26ZM140.798 66.26L138.842 65.8444L138.329 68.26H140.798V66.26ZM148.006 32.328V30.328H146.387L146.05 31.9124L148.006 32.328ZM160.926 32.328L162.882 32.7473L163.401 30.328H160.926V32.328ZM153.65 64.26H140.798V68.26H153.65V64.26ZM142.755 66.6756L149.963 32.7436L146.05 31.9124L138.842 65.8444L142.755 66.6756ZM148.006 34.328H160.926V30.328H148.006V34.328ZM158.971 31.9087L151.695 65.8407L155.606 66.6793L162.882 32.7473L158.971 31.9087ZM166.873 65.512L167.556 63.6324L167.545 63.6285L166.873 65.512ZM169.661 36.34L171.616 36.7604L171.618 36.7528L171.619 36.7452L169.661 36.34ZM173.673 33.212L174.284 35.1164L174.291 35.1141L173.673 33.212ZM215.153 33.076L214.537 34.9789L214.545 34.9813L215.153 33.076ZM217.261 41.168V43.168H218.879L219.217 41.5853L217.261 41.168ZM204.273 41.168L202.323 40.7223L201.764 43.168H204.273V41.168ZM204.817 38.788L206.766 39.2336L207.325 36.788H204.817V38.788ZM182.037 38.788V36.788H180.414L180.079 38.3763L182.037 38.788ZM177.617 59.8L175.659 59.3883L175.152 61.8H177.617V59.8ZM200.329 59.8V61.8H201.923L202.278 60.2456L200.329 59.8ZM200.873 57.42V55.42H199.278L198.923 56.9743L200.873 57.42ZM213.793 57.42L215.751 57.8279L216.252 55.42H213.793V57.42ZM212.773 62.316L214.728 62.7351L214.731 62.7239L212.773 62.316ZM209.033 65.376L208.377 63.4865L208.367 63.49L208.357 63.4936L209.033 65.376ZM203.865 64.328H171.293V68.328H203.865V64.328ZM171.293 64.328C170.097 64.328 168.854 64.1045 167.556 63.6324L166.189 67.3916C167.883 68.0075 169.587 68.328 171.293 68.328V64.328ZM167.545 63.6285C166.737 63.3398 166.319 63.0603 166.128 62.8739C166.042 62.7899 166.02 62.7426 166.018 62.7381C166.016 62.7348 166.017 62.7352 166.017 62.7373C166.018 62.7392 166.017 62.7357 166.017 62.724H162.017C162.017 65.2656 164.134 66.6576 166.2 67.3955L167.545 63.6285ZM166.017 62.724C166.017 62.8145 166.01 62.8847 166.008 62.907C166.005 62.9386 166.002 62.9636 166 62.9775C165.997 63.0054 165.993 63.0262 165.992 63.0334C165.99 63.0495 165.988 63.0587 165.989 63.0543C165.99 63.0481 165.993 63.0304 166 62.9963C166.013 62.9303 166.034 62.8287 166.063 62.6883C166.121 62.4091 166.209 61.993 166.326 61.4383C166.561 60.3297 166.913 58.6767 167.383 56.4784C168.324 52.0821 169.735 45.5096 171.616 36.7604L167.705 35.9196C165.824 44.669 164.413 51.2432 163.472 55.6416C163.001 57.8406 162.648 59.4969 162.413 60.6097C162.295 61.1657 162.206 61.5882 162.147 61.8757C162.117 62.0187 162.094 62.1323 162.077 62.2137C162.069 62.2533 162.062 62.2922 162.056 62.3257C162.053 62.3411 162.048 62.3659 162.044 62.3933C162.042 62.4062 162.038 62.4317 162.034 62.4631C162.032 62.4787 162.028 62.5052 162.025 62.5381C162.023 62.5616 162.017 62.6328 162.017 62.724H166.017ZM171.619 36.7452C171.652 36.5868 171.974 35.8574 174.284 35.1164L173.062 31.3076C170.566 32.108 168.213 33.4639 167.702 35.9348L171.619 36.7452ZM174.291 35.1141C175.915 34.5863 177.52 34.328 179.113 34.328V30.328C177.079 30.328 175.057 30.6591 173.054 31.3099L174.291 35.1141ZM179.113 34.328H210.461V30.328H179.113V34.328ZM210.461 34.328C211.834 34.328 213.19 34.5432 214.537 34.9789L215.768 31.1731C214.032 30.6115 212.261 30.328 210.461 30.328V34.328ZM214.545 34.9813C215.491 35.2834 216.007 35.5795 216.253 35.7891C216.454 35.9594 216.349 35.9504 216.349 35.796H220.349C220.349 34.5083 219.711 33.4793 218.846 32.7429C218.027 32.0458 216.945 31.5486 215.761 31.1707L214.545 34.9813ZM216.349 35.796C216.349 35.6355 216.372 35.5243 216.355 35.6324C216.348 35.6789 216.335 35.7563 216.314 35.872C216.272 36.1009 216.206 36.4342 216.116 36.878C215.937 37.763 215.667 39.0526 215.305 40.7507L219.217 41.5853C219.58 39.8834 219.853 38.5777 220.037 37.672C220.128 37.2204 220.199 36.8596 220.248 36.5955C220.272 36.4647 220.292 36.3459 220.308 36.2464C220.314 36.2087 220.349 36.0019 220.349 35.796H216.349ZM217.261 39.168H204.273V43.168H217.261V39.168ZM206.222 41.6136L206.766 39.2336L202.867 38.3423L202.323 40.7223L206.222 41.6136ZM204.817 36.788H182.037V40.788H204.817V36.788ZM180.079 38.3763L175.659 59.3883L179.574 60.2117L183.994 39.1997L180.079 38.3763ZM177.617 61.8H200.329V57.8H177.617V61.8ZM202.278 60.2456L202.822 57.8657L198.923 56.9743L198.379 59.3544L202.278 60.2456ZM200.873 59.42H213.793V55.42H200.873V59.42ZM211.835 57.0121L210.815 61.9081L214.731 62.7239L215.751 57.8279L211.835 57.0121ZM210.817 61.8969C210.78 62.0714 210.468 62.761 208.377 63.4865L209.688 67.2655C212.04 66.4496 214.222 65.0993 214.728 62.7351L210.817 61.8969ZM208.357 63.4936C206.78 64.0597 205.286 64.328 203.865 64.328V68.328C205.798 68.328 207.749 67.9616 209.708 67.2584L208.357 63.4936Z" fill="url(#paint1_linear_4_8854)"/>
</g>
<g filter="url(#filter2_f_4_8854)">
<path d="M74.016 73.06V75.06H75.7377L75.9938 73.3574L74.016 73.06ZM25.464 73.06L23.4866 72.7601L23.1378 75.06H25.464V73.06ZM32.672 25.528V23.528H30.9524L30.6946 25.2281L32.672 25.528ZM81.224 25.528L83.2018 25.8254L83.5472 23.528H81.224V25.528ZM79.864 34.572V36.572H81.5857L81.8418 34.8694L79.864 34.572ZM44.164 34.572V32.572H42.4463L42.1869 34.2699L44.164 34.572ZM42.668 44.364L40.6909 44.0619L40.3392 46.364H42.668V44.364ZM65.38 44.364L67.3578 44.6614L67.7032 42.364H65.38V44.364ZM64.02 53.408V55.408H65.7417L65.9978 53.7054L64.02 53.408ZM41.308 53.408V51.408H39.5813L39.3294 53.1163L41.308 53.408ZM39.744 64.016L37.7654 63.7243L37.4275 66.016H39.744V64.016ZM75.376 64.016L77.3538 64.3134L77.6992 62.016H75.376V64.016ZM74.016 71.06H25.464V75.06H74.016V71.06ZM27.4414 73.3599L34.6494 25.8279L30.6946 25.2281L23.4866 72.7601L27.4414 73.3599ZM32.672 27.528H81.224V23.528H32.672V27.528ZM79.2462 25.2306L77.8862 34.2746L81.8418 34.8694L83.2018 25.8254L79.2462 25.2306ZM79.864 32.572H44.164V36.572H79.864V32.572ZM42.1869 34.2699L40.6909 44.0619L44.6451 44.666L46.1411 34.874L42.1869 34.2699ZM42.668 46.364H65.38V42.364H42.668V46.364ZM63.4022 44.0666L62.0422 53.1106L65.9978 53.7054L67.3578 44.6614L63.4022 44.0666ZM64.02 51.408H41.308V55.408H64.02V51.408ZM39.3294 53.1163L37.7654 63.7243L41.7226 64.3077L43.2866 53.6997L39.3294 53.1163ZM39.744 66.016H75.376V62.016H39.744V66.016ZM73.3982 63.7186L72.0382 72.7626L75.9938 73.3574L77.3538 64.3134L73.3982 63.7186ZM98.9752 52.252V50.252H97.3573L97.0193 51.8342L98.9752 52.252ZM95.9832 66.26V68.26H97.6011L97.9391 66.6778L95.9832 66.26ZM83.1312 66.26L81.1748 65.8444L80.6617 68.26H83.1312V66.26ZM90.3392 32.328V30.328H88.7194L88.3828 31.9124L90.3392 32.328ZM134.947 33.076L134.332 34.9789L134.339 34.9813L134.947 33.076ZM135.559 48.24L137.515 48.6591L137.516 48.6553L135.559 48.24ZM131.819 51.3L131.164 49.4105L131.158 49.4123L131.819 51.3ZM123.047 45.724V47.724H124.662L125.002 46.1457L123.047 45.724ZM124.543 38.788L126.498 39.2097L127.021 36.788H124.543V38.788ZM101.899 38.788V36.788H100.269L99.9403 38.3847L101.899 38.788ZM100.471 45.724L98.5123 45.3207L98.0175 47.724H100.471V45.724ZM97.0193 51.8342L94.0273 65.8422L97.9391 66.6778L100.931 52.6698L97.0193 51.8342ZM95.9832 64.26H83.1312V68.26H95.9832V64.26ZM85.0875 66.6756L92.2955 32.7436L88.3828 31.9124L81.1748 65.8444L85.0875 66.6756ZM90.3392 34.328H130.255V30.328H90.3392V34.328ZM130.255 34.328C131.628 34.328 132.985 34.5432 134.332 34.9789L135.563 31.1731C133.827 30.6115 132.055 30.328 130.255 30.328V34.328ZM134.339 34.9813C135.285 35.2834 135.802 35.5795 136.048 35.7891C136.248 35.9594 136.143 35.9504 136.143 35.796H140.143C140.143 34.5083 139.506 33.4793 138.64 32.7429C137.821 32.0458 136.74 31.5486 135.555 31.1707L134.339 34.9813ZM136.143 35.796C136.143 35.6151 136.173 35.4674 136.158 35.5624C136.155 35.5817 136.148 35.6216 136.136 35.6888C136.111 35.8208 136.073 36.018 136.02 36.2855C135.914 36.8183 135.754 37.6008 135.539 38.6364C135.109 40.7059 134.464 43.7681 133.603 47.8247L137.516 48.6553C138.377 44.5973 139.024 41.5281 139.455 39.4496C139.671 38.4111 139.834 37.6155 139.943 37.066C139.998 36.7924 140.04 36.5723 140.07 36.4111C140.085 36.3317 140.098 36.2559 140.108 36.1905C140.113 36.1586 140.12 36.1174 140.125 36.0735C140.127 36.0591 140.143 35.9392 140.143 35.796H136.143ZM133.604 47.8209C133.566 47.9954 133.255 48.685 131.164 49.4105L132.475 53.1895C134.826 52.3736 137.008 51.0233 137.515 48.6591L133.604 47.8209ZM131.158 49.4123C129.521 49.9855 128.022 50.252 126.651 50.252V54.252C128.544 54.252 130.491 53.8838 132.48 53.1877L131.158 49.4123ZM126.651 50.252H98.9752V54.252H126.651V50.252ZM125.002 46.1457L126.498 39.2097L122.588 38.3663L121.092 45.3023L125.002 46.1457ZM124.543 36.788H101.899V40.788H124.543V36.788ZM99.9403 38.3847L98.5123 45.3207L102.43 46.1273L103.858 39.1913L99.9403 38.3847ZM100.471 47.724H123.047V43.724H100.471V47.724ZM153.65 66.26V68.26H155.267L155.606 66.6793L153.65 66.26ZM140.798 66.26L138.842 65.8444L138.329 68.26H140.798V66.26ZM148.006 32.328V30.328H146.387L146.05 31.9124L148.006 32.328ZM160.926 32.328L162.882 32.7473L163.401 30.328H160.926V32.328ZM153.65 64.26H140.798V68.26H153.65V64.26ZM142.755 66.6756L149.963 32.7436L146.05 31.9124L138.842 65.8444L142.755 66.6756ZM148.006 34.328H160.926V30.328H148.006V34.328ZM158.971 31.9087L151.695 65.8407L155.606 66.6793L162.882 32.7473L158.971 31.9087ZM166.873 65.512L167.556 63.6324L167.545 63.6285L166.873 65.512ZM169.661 36.34L171.616 36.7604L171.618 36.7528L171.619 36.7452L169.661 36.34ZM173.673 33.212L174.284 35.1164L174.291 35.1141L173.673 33.212ZM215.153 33.076L214.537 34.9789L214.545 34.9813L215.153 33.076ZM217.261 41.168V43.168H218.879L219.217 41.5853L217.261 41.168ZM204.273 41.168L202.323 40.7223L201.764 43.168H204.273V41.168ZM204.817 38.788L206.766 39.2336L207.325 36.788H204.817V38.788ZM182.037 38.788V36.788H180.414L180.079 38.3763L182.037 38.788ZM177.617 59.8L175.659 59.3883L175.152 61.8H177.617V59.8ZM200.329 59.8V61.8H201.923L202.278 60.2456L200.329 59.8ZM200.873 57.42V55.42H199.278L198.923 56.9743L200.873 57.42ZM213.793 57.42L215.751 57.8279L216.252 55.42H213.793V57.42ZM212.773 62.316L214.728 62.7351L214.731 62.7239L212.773 62.316ZM209.033 65.376L208.377 63.4865L208.367 63.49L208.357 63.4936L209.033 65.376ZM203.865 64.328H171.293V68.328H203.865V64.328ZM171.293 64.328C170.097 64.328 168.854 64.1045 167.556 63.6324L166.189 67.3916C167.883 68.0075 169.587 68.328 171.293 68.328V64.328ZM167.545 63.6285C166.737 63.3398 166.319 63.0603 166.128 62.8739C166.042 62.7899 166.02 62.7426 166.018 62.7381C166.016 62.7348 166.017 62.7352 166.017 62.7373C166.018 62.7392 166.017 62.7357 166.017 62.724H162.017C162.017 65.2656 164.134 66.6576 166.2 67.3955L167.545 63.6285ZM166.017 62.724C166.017 62.8145 166.01 62.8847 166.008 62.907C166.005 62.9386 166.002 62.9636 166 62.9775C165.997 63.0054 165.993 63.0262 165.992 63.0334C165.99 63.0495 165.988 63.0587 165.989 63.0543C165.99 63.0481 165.993 63.0304 166 62.9963C166.013 62.9303 166.034 62.8287 166.063 62.6883C166.121 62.4091 166.209 61.993 166.326 61.4383C166.561 60.3297 166.913 58.6767 167.383 56.4784C168.324 52.0821 169.735 45.5096 171.616 36.7604L167.705 35.9196C165.824 44.669 164.413 51.2432 163.472 55.6416C163.001 57.8406 162.648 59.4969 162.413 60.6097C162.295 61.1657 162.206 61.5882 162.147 61.8757C162.117 62.0187 162.094 62.1323 162.077 62.2137C162.069 62.2533 162.062 62.2922 162.056 62.3257C162.053 62.3411 162.048 62.3659 162.044 62.3933C162.042 62.4062 162.038 62.4317 162.034 62.4631C162.032 62.4787 162.028 62.5052 162.025 62.5381C162.023 62.5616 162.017 62.6328 162.017 62.724H166.017ZM171.619 36.7452C171.652 36.5868 171.974 35.8574 174.284 35.1164L173.062 31.3076C170.566 32.108 168.213 33.4639 167.702 35.9348L171.619 36.7452ZM174.291 35.1141C175.915 34.5863 177.52 34.328 179.113 34.328V30.328C177.079 30.328 175.057 30.6591 173.054 31.3099L174.291 35.1141ZM179.113 34.328H210.461V30.328H179.113V34.328ZM210.461 34.328C211.834 34.328 213.19 34.5432 214.537 34.9789L215.768 31.1731C214.032 30.6115 212.261 30.328 210.461 30.328V34.328ZM214.545 34.9813C215.491 35.2834 216.007 35.5795 216.253 35.7891C216.454 35.9594 216.349 35.9504 216.349 35.796H220.349C220.349 34.5083 219.711 33.4793 218.846 32.7429C218.027 32.0458 216.945 31.5486 215.761 31.1707L214.545 34.9813ZM216.349 35.796C216.349 35.6355 216.372 35.5243 216.355 35.6324C216.348 35.6789 216.335 35.7563 216.314 35.872C216.272 36.1009 216.206 36.4342 216.116 36.878C215.937 37.763 215.667 39.0526 215.305 40.7507L219.217 41.5853C219.58 39.8834 219.853 38.5777 220.037 37.672C220.128 37.2204 220.199 36.8596 220.248 36.5955C220.272 36.4647 220.292 36.3459 220.308 36.2464C220.314 36.2087 220.349 36.0019 220.349 35.796H216.349ZM217.261 39.168H204.273V43.168H217.261V39.168ZM206.222 41.6136L206.766 39.2336L202.867 38.3423L202.323 40.7223L206.222 41.6136ZM204.817 36.788H182.037V40.788H204.817V36.788ZM180.079 38.3763L175.659 59.3883L179.574 60.2117L183.994 39.1997L180.079 38.3763ZM177.617 61.8H200.329V57.8H177.617V61.8ZM202.278 60.2456L202.822 57.8657L198.923 56.9743L198.379 59.3544L202.278 60.2456ZM200.873 59.42H213.793V55.42H200.873V59.42ZM211.835 57.0121L210.815 61.9081L214.731 62.7239L215.751 57.8279L211.835 57.0121ZM210.817 61.8969C210.78 62.0714 210.468 62.761 208.377 63.4865L209.688 67.2655C212.04 66.4496 214.222 65.0993 214.728 62.7351L210.817 61.8969ZM208.357 63.4936C206.78 64.0597 205.286 64.328 203.865 64.328V68.328C205.798 68.328 207.749 67.9616 209.708 67.2584L208.357 63.4936Z" fill="url(#paint2_linear_4_8854)"/>
</g>
<path d="M74.016 73.06V75.06H75.7377L75.9938 73.3574L74.016 73.06ZM25.464 73.06L23.4866 72.7601L23.1378 75.06H25.464V73.06ZM32.672 25.528V23.528H30.9524L30.6946 25.2281L32.672 25.528ZM81.224 25.528L83.2018 25.8254L83.5472 23.528H81.224V25.528ZM79.864 34.572V36.572H81.5857L81.8418 34.8694L79.864 34.572ZM44.164 34.572V32.572H42.4463L42.1869 34.2699L44.164 34.572ZM42.668 44.364L40.6909 44.0619L40.3392 46.364H42.668V44.364ZM65.38 44.364L67.3578 44.6614L67.7032 42.364H65.38V44.364ZM64.02 53.408V55.408H65.7417L65.9978 53.7054L64.02 53.408ZM41.308 53.408V51.408H39.5813L39.3294 53.1163L41.308 53.408ZM39.744 64.016L37.7654 63.7243L37.4275 66.016H39.744V64.016ZM75.376 64.016L77.3538 64.3134L77.6992 62.016H75.376V64.016ZM74.016 71.06H25.464V75.06H74.016V71.06ZM27.4414 73.3599L34.6494 25.8279L30.6946 25.2281L23.4866 72.7601L27.4414 73.3599ZM32.672 27.528H81.224V23.528H32.672V27.528ZM79.2462 25.2306L77.8862 34.2746L81.8418 34.8694L83.2018 25.8254L79.2462 25.2306ZM79.864 32.572H44.164V36.572H79.864V32.572ZM42.1869 34.2699L40.6909 44.0619L44.6451 44.666L46.1411 34.874L42.1869 34.2699ZM42.668 46.364H65.38V42.364H42.668V46.364ZM63.4022 44.0666L62.0422 53.1106L65.9978 53.7054L67.3578 44.6614L63.4022 44.0666ZM64.02 51.408H41.308V55.408H64.02V51.408ZM39.3294 53.1163L37.7654 63.7243L41.7226 64.3077L43.2866 53.6997L39.3294 53.1163ZM39.744 66.016H75.376V62.016H39.744V66.016ZM73.3982 63.7186L72.0382 72.7626L75.9938 73.3574L77.3538 64.3134L73.3982 63.7186ZM98.9752 52.252V50.252H97.3573L97.0193 51.8342L98.9752 52.252ZM95.9832 66.26V68.26H97.6011L97.9391 66.6778L95.9832 66.26ZM83.1312 66.26L81.1748 65.8444L80.6617 68.26H83.1312V66.26ZM90.3392 32.328V30.328H88.7194L88.3828 31.9124L90.3392 32.328ZM134.947 33.076L134.332 34.9789L134.339 34.9813L134.947 33.076ZM135.559 48.24L137.515 48.6591L137.516 48.6553L135.559 48.24ZM131.819 51.3L131.164 49.4105L131.158 49.4123L131.819 51.3ZM123.047 45.724V47.724H124.662L125.002 46.1457L123.047 45.724ZM124.543 38.788L126.498 39.2097L127.021 36.788H124.543V38.788ZM101.899 38.788V36.788H100.269L99.9403 38.3847L101.899 38.788ZM100.471 45.724L98.5123 45.3207L98.0175 47.724H100.471V45.724ZM97.0193 51.8342L94.0273 65.8422L97.9391 66.6778L100.931 52.6698L97.0193 51.8342ZM95.9832 64.26H83.1312V68.26H95.9832V64.26ZM85.0875 66.6756L92.2955 32.7436L88.3828 31.9124L81.1748 65.8444L85.0875 66.6756ZM90.3392 34.328H130.255V30.328H90.3392V34.328ZM130.255 34.328C131.628 34.328 132.985 34.5432 134.332 34.9789L135.563 31.1731C133.827 30.6115 132.055 30.328 130.255 30.328V34.328ZM134.339 34.9813C135.285 35.2834 135.802 35.5795 136.048 35.7891C136.248 35.9594 136.143 35.9504 136.143 35.796H140.143C140.143 34.5083 139.506 33.4793 138.64 32.7429C137.821 32.0458 136.74 31.5486 135.555 31.1707L134.339 34.9813ZM136.143 35.796C136.143 35.6151 136.173 35.4674 136.158 35.5624C136.155 35.5817 136.148 35.6216 136.136 35.6888C136.111 35.8208 136.073 36.018 136.02 36.2855C135.914 36.8183 135.754 37.6008 135.539 38.6364C135.109 40.7059 134.464 43.7681 133.603 47.8247L137.516 48.6553C138.377 44.5973 139.024 41.5281 139.455 39.4496C139.671 38.4111 139.834 37.6155 139.943 37.066C139.998 36.7924 140.04 36.5723 140.07 36.4111C140.085 36.3317 140.098 36.2559 140.108 36.1905C140.113 36.1586 140.12 36.1174 140.125 36.0735C140.127 36.0591 140.143 35.9392 140.143 35.796H136.143ZM133.604 47.8209C133.566 47.9954 133.255 48.685 131.164 49.4105L132.475 53.1895C134.826 52.3736 137.008 51.0233 137.515 48.6591L133.604 47.8209ZM131.158 49.4123C129.521 49.9855 128.022 50.252 126.651 50.252V54.252C128.544 54.252 130.491 53.8838 132.48 53.1877L131.158 49.4123ZM126.651 50.252H98.9752V54.252H126.651V50.252ZM125.002 46.1457L126.498 39.2097L122.588 38.3663L121.092 45.3023L125.002 46.1457ZM124.543 36.788H101.899V40.788H124.543V36.788ZM99.9403 38.3847L98.5123 45.3207L102.43 46.1273L103.858 39.1913L99.9403 38.3847ZM100.471 47.724H123.047V43.724H100.471V47.724ZM153.65 66.26V68.26H155.267L155.606 66.6793L153.65 66.26ZM140.798 66.26L138.842 65.8444L138.329 68.26H140.798V66.26ZM148.006 32.328V30.328H146.387L146.05 31.9124L148.006 32.328ZM160.926 32.328L162.882 32.7473L163.401 30.328H160.926V32.328ZM153.65 64.26H140.798V68.26H153.65V64.26ZM142.755 66.6756L149.963 32.7436L146.05 31.9124L138.842 65.8444L142.755 66.6756ZM148.006 34.328H160.926V30.328H148.006V34.328ZM158.971 31.9087L151.695 65.8407L155.606 66.6793L162.882 32.7473L158.971 31.9087ZM166.873 65.512L167.556 63.6324L167.545 63.6285L166.873 65.512ZM169.661 36.34L171.616 36.7604L171.618 36.7528L171.619 36.7452L169.661 36.34ZM173.673 33.212L174.284 35.1164L174.291 35.1141L173.673 33.212ZM215.153 33.076L214.537 34.9789L214.545 34.9813L215.153 33.076ZM217.261 41.168V43.168H218.879L219.217 41.5853L217.261 41.168ZM204.273 41.168L202.323 40.7223L201.764 43.168H204.273V41.168ZM204.817 38.788L206.766 39.2336L207.325 36.788H204.817V38.788ZM182.037 38.788V36.788H180.414L180.079 38.3763L182.037 38.788ZM177.617 59.8L175.659 59.3883L175.152 61.8H177.617V59.8ZM200.329 59.8V61.8H201.923L202.278 60.2456L200.329 59.8ZM200.873 57.42V55.42H199.278L198.923 56.9743L200.873 57.42ZM213.793 57.42L215.751 57.8279L216.252 55.42H213.793V57.42ZM212.773 62.316L214.728 62.7351L214.731 62.7239L212.773 62.316ZM209.033 65.376L208.377 63.4865L208.367 63.49L208.357 63.4936L209.033 65.376ZM203.865 64.328H171.293V68.328H203.865V64.328ZM171.293 64.328C170.097 64.328 168.854 64.1045 167.556 63.6324L166.189 67.3916C167.883 68.0075 169.587 68.328 171.293 68.328V64.328ZM167.545 63.6285C166.737 63.3398 166.319 63.0603 166.128 62.8739C166.042 62.7899 166.02 62.7426 166.018 62.7381C166.016 62.7348 166.017 62.7352 166.017 62.7373C166.018 62.7392 166.017 62.7357 166.017 62.724H162.017C162.017 65.2656 164.134 66.6576 166.2 67.3955L167.545 63.6285ZM166.017 62.724C166.017 62.8145 166.01 62.8847 166.008 62.907C166.005 62.9386 166.002 62.9636 166 62.9775C165.997 63.0054 165.993 63.0262 165.992 63.0334C165.99 63.0495 165.988 63.0587 165.989 63.0543C165.99 63.0481 165.993 63.0304 166 62.9963C166.013 62.9303 166.034 62.8287 166.063 62.6883C166.121 62.4091 166.209 61.993 166.326 61.4383C166.561 60.3297 166.913 58.6767 167.383 56.4784C168.324 52.0821 169.735 45.5096 171.616 36.7604L167.705 35.9196C165.824 44.669 164.413 51.2432 163.472 55.6416C163.001 57.8406 162.648 59.4969 162.413 60.6097C162.295 61.1657 162.206 61.5882 162.147 61.8757C162.117 62.0187 162.094 62.1323 162.077 62.2137C162.069 62.2533 162.062 62.2922 162.056 62.3257C162.053 62.3411 162.048 62.3659 162.044 62.3933C162.042 62.4062 162.038 62.4317 162.034 62.4631C162.032 62.4787 162.028 62.5052 162.025 62.5381C162.023 62.5616 162.017 62.6328 162.017 62.724H166.017ZM171.619 36.7452C171.652 36.5868 171.974 35.8574 174.284 35.1164L173.062 31.3076C170.566 32.108 168.213 33.4639 167.702 35.9348L171.619 36.7452ZM174.291 35.1141C175.915 34.5863 177.52 34.328 179.113 34.328V30.328C177.079 30.328 175.057 30.6591 173.054 31.3099L174.291 35.1141ZM179.113 34.328H210.461V30.328H179.113V34.328ZM210.461 34.328C211.834 34.328 213.19 34.5432 214.537 34.9789L215.768 31.1731C214.032 30.6115 212.261 30.328 210.461 30.328V34.328ZM214.545 34.9813C215.491 35.2834 216.007 35.5795 216.253 35.7891C216.454 35.9594 216.349 35.9504 216.349 35.796H220.349C220.349 34.5083 219.711 33.4793 218.846 32.7429C218.027 32.0458 216.945 31.5486 215.761 31.1707L214.545 34.9813ZM216.349 35.796C216.349 35.6355 216.372 35.5243 216.355 35.6324C216.348 35.6789 216.335 35.7563 216.314 35.872C216.272 36.1009 216.206 36.4342 216.116 36.878C215.937 37.763 215.667 39.0526 215.305 40.7507L219.217 41.5853C219.58 39.8834 219.853 38.5777 220.037 37.672C220.128 37.2204 220.199 36.8596 220.248 36.5955C220.272 36.4647 220.292 36.3459 220.308 36.2464C220.314 36.2087 220.349 36.0019 220.349 35.796H216.349ZM217.261 39.168H204.273V43.168H217.261V39.168ZM206.222 41.6136L206.766 39.2336L202.867 38.3423L202.323 40.7223L206.222 41.6136ZM204.817 36.788H182.037V40.788H204.817V36.788ZM180.079 38.3763L175.659 59.3883L179.574 60.2117L183.994 39.1997L180.079 38.3763ZM177.617 61.8H200.329V57.8H177.617V61.8ZM202.278 60.2456L202.822 57.8657L198.923 56.9743L198.379 59.3544L202.278 60.2456ZM200.873 59.42H213.793V55.42H200.873V59.42ZM211.835 57.0121L210.815 61.9081L214.731 62.7239L215.751 57.8279L211.835 57.0121ZM210.817 61.8969C210.78 62.0714 210.468 62.761 208.377 63.4865L209.688 67.2655C212.04 66.4496 214.222 65.0993 214.728 62.7351L210.817 61.8969ZM208.357 63.4936C206.78 64.0597 205.286 64.328 203.865 64.328V68.328C205.798 68.328 207.749 67.9616 209.708 67.2584L208.357 63.4936Z" fill="white"/>
<defs>
<filter id="filter0_f_4_8854" x="15.4641" y="15.528" width="212.885" height="67.532" filterUnits="userSpaceOnUse" color-interpolation-filters="sRGB">
<feFlood flood-opacity="0" result="BackgroundImageFix"/>
<feBlend mode="normal" in="SourceGraphic" in2="BackgroundImageFix" result="shape"/>
<feGaussianBlur stdDeviation="5" result="effect1_foregroundBlur_4_8854"/>
</filter>
<filter id="filter1_f_4_8854" x="5.46411" y="5.52802" width="232.885" height="87.532" filterUnits="userSpaceOnUse" color-interpolation-filters="sRGB">
<feFlood flood-opacity="0" result="BackgroundImageFix"/>
<feBlend mode="normal" in="SourceGraphic" in2="BackgroundImageFix" result="shape"/>
<feGaussianBlur stdDeviation="10" result="effect1_foregroundBlur_4_8854"/>
</filter>
<filter id="filter2_f_4_8854" x="0.464111" y="0.528015" width="242.885" height="97.532" filterUnits="userSpaceOnUse" color-interpolation-filters="sRGB">
<feFlood flood-opacity="0" result="BackgroundImageFix"/>
<feBlend mode="normal" in="SourceGraphic" in2="BackgroundImageFix" result="shape"/>
<feGaussianBlur stdDeviation="12.5" result="effect1_foregroundBlur_4_8854"/>
</filter>
<linearGradient id="paint0_linear_4_8854" x1="123.5" y1="16" x2="123.5" y2="84" gradientUnits="userSpaceOnUse">
<stop stop-color="#3BEDF9"/>
<stop offset="1" stop-color="#164FFF"/>
</linearGradient>
<linearGradient id="paint1_linear_4_8854" x1="123.5" y1="16" x2="123.5" y2="84" gradientUnits="userSpaceOnUse">
<stop stop-color="#3BEDF9"/>
<stop offset="1" stop-color="#164FFF"/>
</linearGradient>
<linearGradient id="paint2_linear_4_8854" x1="123.5" y1="16" x2="123.5" y2="84" gradientUnits="userSpaceOnUse">
<stop stop-color="#3BEDF9"/>
<stop offset="1" stop-color="#164FFF"/>
</linearGradient>
</defs>
</svg>
