<svg width="394" height="99" viewBox="0 0 394 99" fill="none" xmlns="http://www.w3.org/2000/svg">
<g filter="url(#filter0_f_186_2921)">
<path d="M74.016 73.06V75.06H75.7377L75.9938 73.3574L74.016 73.06ZM25.464 73.06L23.4866 72.7601L23.1378 75.06H25.464V73.06ZM32.672 25.528V23.528H30.9524L30.6946 25.2281L32.672 25.528ZM45.592 25.528L47.5693 25.8284L47.9188 23.528H45.592V25.528ZM39.744 64.016L37.7667 63.7156L37.4172 66.016H39.744V64.016ZM75.376 64.016L77.3538 64.3134L77.6992 62.016H75.376V64.016ZM74.016 71.06H25.464V75.06H74.016V71.06ZM27.4414 73.3599L34.6494 25.8279L30.6946 25.2281L23.4866 72.7601L27.4414 73.3599ZM32.672 27.528H45.592V23.528H32.672V27.528ZM43.6147 25.2276L37.7667 63.7156L41.7213 64.3164L47.5693 25.8284L43.6147 25.2276ZM39.744 66.016H75.376V62.016H39.744V66.016ZM73.3982 63.7186L72.0382 72.7626L75.9938 73.3574L77.3538 64.3134L73.3982 63.7186ZM131.683 66.26V68.26H133.306L133.64 66.672L131.683 66.26ZM83.1312 66.26L81.1748 65.8444L80.6617 68.26H83.1312V66.26ZM90.3392 32.328V30.328H88.7194L88.3828 31.9124L90.3392 32.328ZM138.891 32.328L140.848 32.74L141.356 30.328H138.891V32.328ZM137.531 38.788V40.788H139.154L139.488 39.2L137.531 38.788ZM101.831 38.788V36.788H100.213L99.8753 38.3702L101.831 38.788ZM100.335 45.792L98.3793 45.3742L97.8629 47.792H100.335V45.792ZM123.047 45.792L125.004 46.204L125.512 43.792H123.047V45.792ZM121.687 52.252V54.252H123.31L123.644 52.664L121.687 52.252ZM98.9752 52.252V50.252H97.3471L97.0168 51.8462L98.9752 52.252ZM97.4112 59.8L95.4528 59.3942L94.9543 61.8H97.4112V59.8ZM133.043 59.8L135 60.212L135.508 57.8H133.043V59.8ZM131.683 64.26H83.1312V68.26H131.683V64.26ZM85.0875 66.6756L92.2955 32.7436L88.3828 31.9124L81.1748 65.8444L85.0875 66.6756ZM90.3392 34.328H138.891V30.328H90.3392V34.328ZM136.934 31.916L135.574 38.376L139.488 39.2L140.848 32.74L136.934 31.916ZM137.531 36.788H101.831V40.788H137.531V36.788ZM99.8753 38.3702L98.3793 45.3742L102.291 46.2098L103.787 39.2058L99.8753 38.3702ZM100.335 47.792H123.047V43.792H100.335V47.792ZM121.09 45.38L119.73 51.84L123.644 52.664L125.004 46.204L121.09 45.38ZM121.687 50.252H98.9752V54.252H121.687V50.252ZM97.0168 51.8462L95.4528 59.3942L99.3696 60.2058L100.934 52.6578L97.0168 51.8462ZM97.4112 61.8H133.043V57.8H97.4112V61.8ZM131.086 59.388L129.726 65.848L133.64 66.672L135 60.212L131.086 59.388ZM144.334 65.512L145.018 63.6324L145.007 63.6285L144.334 65.512ZM147.122 36.34L149.078 36.7604L149.079 36.7528L149.081 36.7452L147.122 36.34ZM151.134 33.212L151.745 35.1164L151.753 35.1141L151.134 33.212ZM192.614 33.076L191.999 34.9789L192.006 34.9813L192.614 33.076ZM194.722 41.168V43.168H196.341L196.678 41.5853L194.722 41.168ZM181.734 41.168L179.785 40.7223L179.226 43.168H181.734V41.168ZM182.278 38.788L184.228 39.2336L184.787 36.788H182.278V38.788ZM159.498 38.788V36.788H157.875L157.541 38.3763L159.498 38.788ZM155.078 59.8L153.121 59.3883L152.614 61.8H155.078V59.8ZM177.79 59.8V61.8H179.404L179.745 60.2227L177.79 59.8ZM179.422 52.252L181.377 52.6747L181.901 50.252H179.422V52.252ZM170.378 52.252L168.421 51.84L167.913 54.252H170.378V52.252ZM171.738 45.792V43.792H170.116L169.781 45.38L171.738 45.792ZM193.702 45.792L195.66 46.2028L196.166 43.792H193.702V45.792ZM190.234 62.316L192.19 62.7351L192.192 62.7268L190.234 62.316ZM186.494 65.376L185.839 63.4865L185.834 63.4883L186.494 65.376ZM181.326 64.328H148.754V68.328H181.326V64.328ZM148.754 64.328C147.558 64.328 146.316 64.1045 145.018 63.6324L143.651 67.3916C145.345 68.0075 147.049 68.328 148.754 68.328V64.328ZM145.007 63.6285C144.199 63.3398 143.78 63.0603 143.589 62.8739C143.503 62.7899 143.482 62.7426 143.48 62.7381C143.478 62.7348 143.479 62.7352 143.479 62.7373C143.479 62.7392 143.478 62.7357 143.478 62.724H139.478C139.478 65.2656 141.596 66.6576 143.662 67.3955L145.007 63.6285ZM143.478 62.724C143.478 62.8145 143.472 62.8847 143.47 62.907C143.467 62.9386 143.464 62.9636 143.462 62.9775C143.458 63.0054 143.455 63.0262 143.454 63.0334C143.451 63.0495 143.45 63.0587 143.45 63.0543C143.452 63.0481 143.455 63.0304 143.462 62.9963C143.475 62.9303 143.496 62.8287 143.525 62.6883C143.583 62.4091 143.67 61.993 143.788 61.4383C144.022 60.3297 144.375 58.6767 144.845 56.4784C145.786 52.0821 147.196 45.5096 149.078 36.7604L145.167 35.9196C143.286 44.669 141.875 51.2432 140.934 55.6416C140.463 57.8406 140.11 59.4969 139.875 60.6097C139.757 61.1657 139.668 61.5882 139.608 61.8757C139.579 62.0187 139.555 62.1323 139.539 62.2137C139.531 62.2533 139.524 62.2922 139.517 62.3257C139.514 62.3411 139.51 62.3659 139.506 62.3933C139.503 62.4062 139.499 62.4317 139.495 62.4631C139.493 62.4787 139.49 62.5052 139.487 62.5381C139.485 62.5616 139.478 62.6328 139.478 62.724H143.478ZM149.081 36.7452C149.114 36.5868 149.435 35.8574 151.745 35.1164L150.524 31.3076C148.028 32.108 145.675 33.4639 145.164 35.9348L149.081 36.7452ZM151.753 35.1141C153.377 34.5863 154.982 34.328 156.574 34.328V30.328C154.541 30.328 152.519 30.6591 150.516 31.3099L151.753 35.1141ZM156.574 34.328H187.922V30.328H156.574V34.328ZM187.922 34.328C189.296 34.328 190.652 34.5432 191.999 34.9789L193.23 31.1731C191.494 30.6115 189.722 30.328 187.922 30.328V34.328ZM192.006 34.9813C192.953 35.2834 193.469 35.5795 193.715 35.7891C193.915 35.9594 193.81 35.9504 193.81 35.796H197.81C197.81 34.5083 197.173 33.4793 196.308 32.7429C195.488 32.0458 194.407 31.5486 193.222 31.1707L192.006 34.9813ZM193.81 35.796C193.81 35.6355 193.834 35.5243 193.817 35.6324C193.81 35.6789 193.797 35.7563 193.775 35.872C193.733 36.1009 193.668 36.4342 193.578 36.878C193.399 37.763 193.129 39.0526 192.766 40.7507L196.678 41.5853C197.041 39.8834 197.315 38.5777 197.499 37.672C197.59 37.2204 197.661 36.8596 197.709 36.5955C197.733 36.4647 197.754 36.3459 197.77 36.2464C197.776 36.2087 197.81 36.0019 197.81 35.796H193.81ZM194.722 39.168H181.734V43.168H194.722V39.168ZM183.684 41.6136L184.228 39.2336L180.329 38.3423L179.785 40.7223L183.684 41.6136ZM182.278 36.788H159.498V40.788H182.278V36.788ZM157.541 38.3763L153.121 59.3883L157.036 60.2117L161.456 39.1997L157.541 38.3763ZM155.078 61.8H177.79V57.8H155.078V61.8ZM179.745 60.2227L181.377 52.6747L177.468 51.8293L175.836 59.3773L179.745 60.2227ZM179.422 50.252H170.378V54.252H179.422V50.252ZM172.335 52.664L173.695 46.204L169.781 45.38L168.421 51.84L172.335 52.664ZM171.738 47.792H193.702V43.792H171.738V47.792ZM191.745 45.3812L188.277 61.9052L192.192 62.7268L195.66 46.2028L191.745 45.3812ZM188.279 61.8969C188.241 62.0714 187.93 62.761 185.839 63.4865L187.15 67.2655C189.502 66.4496 191.683 65.0993 192.19 62.7351L188.279 61.8969ZM185.834 63.4883C184.196 64.0615 182.698 64.328 181.326 64.328V68.328C183.219 68.328 185.166 67.9598 187.155 67.2637L185.834 63.4883ZM247.018 66.26V68.26H248.64L248.975 66.672L247.018 66.26ZM198.466 66.26L196.509 65.8444L195.996 68.26H198.466V66.26ZM205.674 32.328V30.328H204.054L203.717 31.9124L205.674 32.328ZM254.226 32.328L256.183 32.74L256.69 30.328H254.226V32.328ZM252.866 38.788V40.788H254.488L254.823 39.2L252.866 38.788ZM217.166 38.788V36.788H215.548L215.21 38.3702L217.166 38.788ZM215.67 45.792L213.714 45.3742L213.197 47.792H215.67V45.792ZM238.382 45.792L240.339 46.204L240.846 43.792H238.382V45.792ZM237.022 52.252V54.252H238.644L238.979 52.664L237.022 52.252ZM214.31 52.252V50.252H212.681L212.351 51.8462L214.31 52.252ZM212.746 59.8L210.787 59.3942L210.289 61.8H212.746V59.8ZM248.378 59.8L250.335 60.212L250.842 57.8H248.378V59.8ZM247.018 64.26H198.466V68.26H247.018V64.26ZM200.422 66.6756L207.63 32.7436L203.717 31.9124L196.509 65.8444L200.422 66.6756ZM205.674 34.328H254.226V30.328H205.674V34.328ZM252.268 31.916L250.908 38.376L254.823 39.2L256.183 32.74L252.268 31.916ZM252.866 36.788H217.166V40.788H252.866V36.788ZM215.21 38.3702L213.714 45.3742L217.625 46.2098L219.121 39.2058L215.21 38.3702ZM215.67 47.792H238.382V43.792H215.67V47.792ZM236.424 45.38L235.064 51.84L238.979 52.664L240.339 46.204L236.424 45.38ZM237.022 50.252H214.31V54.252H237.022V50.252ZM212.351 51.8462L210.787 59.3942L214.704 60.2058L216.268 52.6578L212.351 51.8462ZM212.746 61.8H248.378V57.8H212.746V61.8ZM246.42 59.388L245.06 65.848L248.975 66.672L250.335 60.212L246.42 59.388ZM304.685 66.26V68.26H306.302L306.64 66.6785L304.685 66.26ZM291.765 66.26L289.809 65.8436L289.294 68.26H291.765V66.26ZM297.613 38.788L299.569 39.2044L300.083 36.788H297.613V38.788ZM274.833 38.788V36.788H273.214L272.877 38.3716L274.833 38.788ZM268.985 66.26V68.26H270.604L270.941 66.6764L268.985 66.26ZM256.133 66.26L254.176 65.8444L253.663 68.26H256.133V66.26ZM263.341 32.328V30.328H261.721L261.384 31.9124L263.341 32.328ZM307.949 33.076L308.557 31.1707L308.548 31.168L307.949 33.076ZM304.685 64.26H291.765V68.26H304.685V64.26ZM293.721 66.6764L299.569 39.2044L295.657 38.3716L289.809 65.8436L293.721 66.6764ZM297.613 36.788H274.833V40.788H297.613V36.788ZM272.877 38.3716L267.029 65.8436L270.941 66.6764L276.789 39.2044L272.877 38.3716ZM268.985 64.26H256.133V68.26H268.985V64.26ZM258.089 66.6756L265.297 32.7436L261.384 31.9124L254.176 65.8444L258.089 66.6756ZM263.341 34.328H303.257V30.328H263.341V34.328ZM303.257 34.328C304.579 34.328 305.941 34.5415 307.349 34.984L308.548 31.168C306.783 30.6132 305.017 30.328 303.257 30.328V34.328ZM307.341 34.9813C308.287 35.2834 308.803 35.5795 309.049 35.7891C309.25 35.9594 309.145 35.9504 309.145 35.796H313.145C313.145 34.5083 312.507 33.4793 311.642 32.7429C310.823 32.0458 309.741 31.5486 308.557 31.1707L307.341 34.9813ZM309.145 35.796C309.145 35.5948 309.183 35.4126 309.166 35.5123C309.165 35.5174 309.162 35.5366 309.154 35.5764C309.14 35.6534 309.116 35.7721 309.083 35.9369C309.017 36.2644 308.917 36.7492 308.783 37.3941C308.515 38.6825 308.111 40.595 307.573 43.1331C306.497 48.2086 304.882 55.7778 302.729 65.8415L306.64 66.6785C308.794 56.6142 310.409 49.0421 311.486 43.9629C312.025 41.4237 312.429 39.5055 312.699 38.2099C312.834 37.5627 312.936 37.0673 313.004 36.7261C313.039 36.5566 313.066 36.4188 313.085 36.3173C313.094 36.2679 313.103 36.2174 313.111 36.1721C313.115 36.1505 313.12 36.1183 313.125 36.0823C313.127 36.0645 313.131 36.0356 313.134 36.0007C313.137 35.9781 313.145 35.8979 313.145 35.796H309.145ZM313.8 66.26L311.844 65.8444L311.33 68.26H313.8V66.26ZM321.008 32.328V30.328H319.388L319.052 31.9124L321.008 32.328ZM365.616 33.076L366.187 31.1592L366.186 31.1589L365.616 33.076ZM368.812 35.796L370.769 36.2075L370.812 36.004V35.796H368.812ZM363.236 62.316L361.279 61.9045L361.277 61.9141L361.275 61.9238L363.236 62.316ZM359.224 65.444L359.799 67.3597L359.802 67.3587L359.224 65.444ZM350.724 59.8V61.8H352.342L352.68 60.2178L350.724 59.8ZM355.212 38.788L357.168 39.2058L357.684 36.788H355.212V38.788ZM332.636 38.788V36.788H331.018L330.68 38.3702L332.636 38.788ZM328.148 59.8L326.192 59.3822L325.676 61.8H328.148V59.8ZM353.716 64.26H313.8V68.26H353.716V64.26ZM315.756 66.6756L322.964 32.7436L319.052 31.9124L311.844 65.8444L315.756 66.6756ZM321.008 34.328H360.924V30.328H321.008V34.328ZM360.924 34.328C362.147 34.328 363.517 34.5385 365.046 34.9931L366.186 31.1589C364.36 30.6162 362.603 30.328 360.924 30.328V34.328ZM365.045 34.9928C365.983 35.2722 366.484 35.557 366.717 35.7551C366.895 35.9067 366.812 35.9039 366.812 35.796H370.812C370.812 34.5094 370.196 33.4639 369.309 32.7089C368.477 32.0003 367.379 31.5144 366.187 31.1592L365.045 34.9928ZM368.812 35.796C366.855 35.3845 366.855 35.3845 366.855 35.3846C366.855 35.3847 366.855 35.3848 366.855 35.3849C366.855 35.385 366.855 35.3852 366.855 35.3854C366.854 35.3856 366.854 35.3858 366.854 35.3861C366.854 35.3864 366.854 35.3867 366.854 35.387C366.854 35.3874 366.854 35.3877 366.854 35.3881C366.854 35.3885 366.854 35.389 366.854 35.3894C366.854 35.3899 366.853 35.3904 366.853 35.391C366.853 35.3936 366.852 35.3953 366.852 35.3991C366.852 35.3995 366.851 35.4035 366.851 35.4043C366.85 35.4053 366.85 35.4062 366.85 35.4072C366.85 35.4083 366.85 35.4093 366.849 35.4104C366.848 35.4173 366.845 35.4315 366.842 35.4428C366.841 35.4512 366.84 35.4543 366.838 35.4638C366.837 35.4707 366.837 35.4683 366.836 35.4755C366.835 35.4776 366.835 35.4796 366.834 35.4817C366.834 35.4838 366.833 35.4859 366.833 35.4881C366.832 35.4902 366.832 35.4924 366.832 35.4947C366.831 35.4969 366.831 35.4991 366.83 35.5014C366.83 35.5037 366.829 35.5061 366.829 35.5084C366.828 35.5108 366.828 35.5132 366.827 35.5156C366.824 35.5323 366.824 35.5286 366.821 35.5463C366.817 35.5661 366.811 35.5935 366.806 35.6176C366.792 35.6831 366.803 35.6318 366.788 35.7017C366.778 35.7487 366.788 35.7006 366.778 35.7487C366.771 35.7811 366.775 35.7654 366.768 35.7989C366.727 35.992 366.714 36.0546 366.659 36.3168C366.629 36.4562 366.621 36.4968 366.588 36.6535C366.562 36.7754 366.575 36.7151 366.548 36.8413C366.546 36.8539 366.51 37.025 366.506 37.042C366.486 37.1392 366.438 37.3678 366.414 37.4823C366.381 37.6366 366.346 37.8027 366.31 37.9743C366.208 38.4588 366.187 38.5603 366.071 39.1139C366.038 39.2704 366.038 39.2702 366.004 39.4311C365.975 39.567 365.998 39.4576 365.97 39.5946C365.959 39.643 365.945 39.7118 365.934 39.7613C365.925 39.8073 365.873 40.0542 365.862 40.1045C365.835 40.2321 365.815 40.3286 365.787 40.4606C365.762 40.5825 365.775 40.5205 365.749 40.6435C365.745 40.6639 365.734 40.7154 365.73 40.7362C365.726 40.7517 365.723 40.7672 365.72 40.7828C365.716 40.7984 365.713 40.814 365.71 40.8296C365.673 41.006 365.668 41.031 365.63 41.2116C365.57 41.497 365.524 41.7119 365.461 42.0145C365.408 42.2642 365.426 42.1813 365.372 42.4353C365.318 42.6942 365.336 42.606 365.281 42.8691C365.277 42.8875 365.273 42.9059 365.269 42.9243C365.266 42.9427 365.262 42.9611 365.258 42.9796C365.254 42.9981 365.25 43.0166 365.246 43.0351C365.242 43.0537 365.238 43.0723 365.234 43.0909C365.187 43.3154 365.235 43.0903 365.187 43.3159C365.171 43.3924 365.107 43.6947 365.09 43.7756C365.058 43.93 365.024 44.0895 364.991 44.2482C364.987 44.2682 364.983 44.2882 364.978 44.3082C364.974 44.3282 364.97 44.3483 364.966 44.3684C364.962 44.3885 364.957 44.4086 364.953 44.4288C364.949 44.449 364.945 44.4692 364.94 44.4894C364.906 44.6514 364.923 44.5708 364.889 44.7338C364.858 44.8824 364.816 45.0795 364.784 45.2324C364.756 45.3652 364.705 45.6067 364.677 45.7439C364.575 46.2285 364.559 46.3037 364.453 46.8057C364.431 46.9117 364.361 47.2457 364.338 47.356C364.316 47.4591 364.301 47.5319 364.279 47.6361C364.263 47.7103 364.265 47.7027 364.249 47.7773C364.244 47.8009 364.239 47.8245 364.234 47.8482C364.229 47.8719 364.224 47.8956 364.219 47.9193C364.151 48.2432 364.167 48.1674 364.098 48.4956C364.047 48.739 364.088 48.544 364.036 48.7885C364.025 48.8436 364.017 48.881 364.005 48.9362C363.999 48.9648 363.98 49.056 363.974 49.0848C363.969 49.1096 363.964 49.1344 363.958 49.1593C363.953 49.1842 363.948 49.2091 363.943 49.2341C363.929 49.3 363.925 49.318 363.911 49.3842C363.863 49.6154 363.896 49.4546 363.848 49.6869C363.831 49.764 363.832 49.7621 363.815 49.8395C363.814 49.8484 363.785 49.9836 363.783 49.9928C363.783 49.9938 363.719 50.2999 363.718 50.302C363.681 50.4779 363.69 50.4374 363.653 50.6144C363.627 50.7358 363.645 50.6501 363.619 50.7718C363.614 50.7981 363.608 50.8244 363.603 50.8508C363.597 50.8772 363.592 50.9036 363.586 50.93C363.582 50.9522 363.524 51.2257 363.519 51.2489C363.486 51.4087 363.485 51.4102 363.451 51.571C363.423 51.7069 363.446 51.5971 363.417 51.7333C363.405 51.792 363.395 51.8374 363.383 51.8964C363.374 51.941 363.324 52.1792 363.314 52.2249C363.279 52.3895 363.279 52.3911 363.244 52.5568C363.21 52.719 363.243 52.5614 363.209 52.7239C363.199 52.7731 363.184 52.8423 363.174 52.8918C363.164 52.9377 363.112 53.1831 363.103 53.2301C363.072 53.3768 363.062 53.4239 363.031 53.5717C363.025 53.6003 363.019 53.6289 363.013 53.6576C363.007 53.6862 363.001 53.7149 362.995 53.7436C362.989 53.7724 362.983 53.8011 362.976 53.8299C362.97 53.8587 362.964 53.8876 362.958 53.9164C362.929 54.0548 362.914 54.125 362.885 54.2644C362.875 54.3132 362.822 54.5658 362.811 54.6157C362.805 54.6451 362.799 54.6745 362.793 54.704C362.786 54.7335 362.78 54.763 362.774 54.7925C362.768 54.8221 362.762 54.8516 362.755 54.8813C362.749 54.9109 362.743 54.9405 362.737 54.9702C362.701 55.1381 362.697 55.1589 362.661 55.3279C362.659 55.3389 362.588 55.6768 362.586 55.6889C362.579 55.7191 362.573 55.7493 362.567 55.7796C362.56 55.8099 362.554 55.8402 362.547 55.8706C362.541 55.9009 362.535 55.9313 362.528 55.9617C362.522 55.9921 362.515 56.0226 362.509 56.0531C362.47 56.2386 362.471 56.2338 362.432 56.4205C362.387 56.632 362.321 56.9492 362.275 57.1651C362.227 57.3962 362.245 57.31 362.196 57.5422C362.144 57.7879 362.168 57.6759 362.116 57.9226C362.109 57.9544 362.103 57.9863 362.096 58.0182C362.089 58.0501 362.082 58.082 362.076 58.114C362.069 58.146 362.062 58.178 362.056 58.21C362.049 58.242 362.042 58.2741 362.035 58.3062C361.983 58.557 362.007 58.4412 361.954 58.6931C361.901 58.9441 361.843 59.2211 361.789 59.4765C361.782 59.5094 361.775 59.5424 361.768 59.5753C361.762 59.6083 361.755 59.6413 361.748 59.6744C361.741 59.7074 361.734 59.7405 361.727 59.7736C361.72 59.8067 361.713 59.8399 361.706 59.8731C361.658 60.1025 361.67 60.0424 361.622 60.2729C361.549 60.6208 361.526 60.73 361.452 61.0822C361.417 61.2493 361.315 61.7331 361.279 61.9045L365.193 62.7275C365.195 62.7201 365.279 62.3211 365.28 62.3148C365.287 62.2805 365.294 62.2463 365.302 62.2121C365.309 62.1779 365.316 62.1437 365.323 62.1096C365.33 62.0755 365.337 62.0414 365.345 62.0073C365.352 61.9733 365.359 61.9392 365.366 61.9052C365.386 61.8108 365.389 61.7959 365.409 61.7017C365.416 61.6678 365.423 61.634 365.43 61.6002C365.437 61.5664 365.444 61.5327 365.451 61.499C365.454 61.485 365.533 61.1088 365.536 61.0959C365.538 61.0891 365.577 60.9021 365.578 60.8956C365.583 60.873 365.616 60.7185 365.62 60.6961C365.643 60.5897 365.64 60.6036 365.662 60.4974C365.669 60.4644 365.676 60.4314 365.683 60.3984C365.69 60.3654 365.697 60.3324 365.704 60.2995C365.707 60.2843 365.742 60.1175 365.745 60.1025C365.752 60.0697 365.759 60.0369 365.766 60.0042C365.773 59.9715 365.779 59.9388 365.786 59.9062C365.814 59.7757 365.8 59.8409 365.827 59.7108C365.834 59.6782 365.841 59.6458 365.848 59.6133C365.855 59.5809 365.862 59.5485 365.868 59.5161C365.875 59.4837 365.882 59.4514 365.889 59.4191C365.896 59.3868 365.902 59.3545 365.909 59.3223C365.935 59.1999 365.924 59.2514 365.95 59.1292C366.004 58.873 365.977 59.0008 366.03 58.7456C366.057 58.6184 366.044 58.682 366.07 58.555C366.077 58.5233 366.084 58.4917 366.09 58.46C366.097 58.4284 366.104 58.3968 366.11 58.3652C366.117 58.3337 366.124 58.3022 366.13 58.2707C366.137 58.2392 366.143 58.2077 366.15 58.1763C366.175 58.057 366.165 58.1071 366.19 57.9881C366.24 57.7507 366.219 57.8505 366.268 57.6142C366.294 57.4902 366.281 57.5521 366.307 57.4285C366.324 57.3473 366.329 57.3244 366.346 57.2435C366.352 57.2178 366.38 57.0849 366.385 57.0594C366.409 56.9431 366.399 56.9921 366.423 56.8761C366.475 56.6329 366.449 56.754 366.5 56.5119C366.525 56.3912 366.513 56.4515 366.538 56.331C366.552 56.2649 366.562 56.2167 366.576 56.1509C366.582 56.121 366.589 56.0911 366.595 56.0612C366.601 56.0313 366.607 56.0015 366.614 55.9717C366.639 55.8525 366.626 55.9121 366.651 55.7932C366.684 55.6381 366.768 55.2382 366.799 55.0875C366.806 55.0583 366.812 55.0292 366.818 55.0002C366.824 54.9711 366.83 54.9421 366.836 54.9131C366.861 54.7972 366.848 54.8551 366.873 54.7395C366.907 54.578 366.911 54.5551 366.945 54.3947C366.965 54.3003 366.961 54.3177 366.981 54.2235C366.987 54.1951 366.993 54.1666 366.999 54.1382C367.005 54.1098 367.011 54.0815 367.017 54.0532C367.023 54.0248 367.029 53.9965 367.035 53.9683C367.041 53.94 367.047 53.9118 367.053 53.8836C367.072 53.7905 367.069 53.8077 367.088 53.7149C367.259 52.9033 367.477 51.8675 367.633 51.125C367.839 50.1427 367.942 49.6556 368.134 48.7424C368.199 48.4299 368.187 48.4872 368.252 48.1791C368.288 48.01 368.275 48.0702 368.31 47.9023C368.326 47.8266 368.323 47.8405 368.339 47.7651C368.344 47.7423 368.349 47.7195 368.353 47.6968C368.358 47.6741 368.363 47.6514 368.368 47.6287C368.373 47.6061 368.377 47.5834 368.382 47.5608C368.387 47.5382 368.392 47.5157 368.396 47.4932C368.414 47.411 368.407 47.4403 368.425 47.3584C368.456 47.2108 368.45 47.2379 368.481 47.0913C368.488 47.0588 368.585 46.5951 368.591 46.5669C368.624 46.4097 368.612 46.4656 368.645 46.3095C368.661 46.2318 368.656 46.2595 368.672 46.1821C368.676 46.1609 368.681 46.1397 368.685 46.1186C368.69 46.0975 368.694 46.0764 368.699 46.0554C368.7 46.047 368.75 45.8118 368.751 45.8045C368.754 45.7896 368.8 45.5707 368.803 45.5569C368.81 45.5266 368.9 45.0972 368.905 45.0713C368.91 45.0513 368.914 45.0314 368.918 45.0115C368.922 44.9916 368.926 44.9717 368.931 44.9519C368.935 44.9321 368.939 44.9123 368.943 44.8925C368.947 44.8727 368.951 44.853 368.956 44.8333C368.957 44.8264 368.979 44.7222 368.98 44.7156C368.984 44.696 368.988 44.6765 368.993 44.657C368.997 44.6375 369.001 44.618 369.005 44.5986C369.013 44.5602 369.046 44.4045 369.054 44.3671C369.058 44.348 369.062 44.3289 369.066 44.3098C369.07 44.2907 369.074 44.2716 369.078 44.2526C369.082 44.2336 369.086 44.2146 369.09 44.1957C369.094 44.1767 369.098 44.1578 369.102 44.1389C369.115 44.0766 369.112 44.0881 369.125 44.026C369.129 44.0073 369.133 43.9885 369.137 43.9699C369.141 43.9512 369.145 43.9325 369.149 43.9139C369.169 43.8185 369.176 43.7865 369.195 43.6922C369.224 43.5586 369.214 43.6062 369.241 43.4736C369.251 43.4293 369.278 43.3017 369.287 43.2584C369.296 43.2132 369.3 43.1969 369.309 43.1519C369.321 43.0936 369.319 43.1044 369.331 43.0463C369.358 42.9187 369.349 42.9641 369.375 42.8375C369.631 41.6184 369.787 40.8798 369.985 39.9369C369.99 39.9137 370.045 39.6514 370.049 39.6326C370.087 39.4531 370.073 39.5164 370.11 39.3412C370.119 39.3008 370.22 38.8206 370.225 38.7974C370.231 38.7659 370.272 38.572 370.278 38.5448C370.28 38.5346 370.282 38.5244 370.284 38.5142C370.286 38.504 370.288 38.4939 370.291 38.4837C370.296 38.4583 370.298 38.4487 370.303 38.4234C370.305 38.4135 370.307 38.4035 370.31 38.3936C370.312 38.3837 370.314 38.3738 370.316 38.364C370.321 38.3407 370.323 38.3283 370.328 38.3053C370.34 38.2509 370.365 38.1287 370.376 38.0787C370.406 37.9341 370.391 38.0053 370.421 37.865C370.477 37.598 370.45 37.7263 370.502 37.4765C370.532 37.3377 370.511 37.4362 370.539 37.3017C370.551 37.2462 370.545 37.2737 370.556 37.2192C370.56 37.2041 370.57 37.1539 370.573 37.1399C370.591 37.056 370.619 36.9215 370.633 36.855C370.646 36.7921 370.672 36.6675 370.682 36.6219C370.732 36.3839 370.712 36.48 370.747 36.3111C370.755 36.2758 370.76 36.2515 370.764 36.2334C370.767 36.2182 370.766 36.2248 370.768 36.214C370.768 36.2114 370.768 36.2107 370.769 36.2091C370.769 36.2085 370.769 36.2083 370.769 36.2079C370.769 36.2078 370.769 36.2077 370.769 36.2076C370.769 36.2075 370.769 36.2075 368.812 35.796ZM361.275 61.9238C361.237 62.1151 360.921 62.8425 358.646 63.5293L359.802 67.3587C362.332 66.5948 364.691 65.2369 365.197 62.7082L361.275 61.9238ZM358.649 63.5283C357.019 64.0175 355.376 64.26 353.716 64.26V68.26C355.773 68.26 357.802 67.9585 359.799 67.3597L358.649 63.5283ZM352.68 60.2178L357.168 39.2058L353.256 38.3702L348.768 59.3822L352.68 60.2178ZM355.212 36.788H332.636V40.788H355.212V36.788ZM330.68 38.3702L326.192 59.3822L330.104 60.2178L334.592 39.2058L330.68 38.3702ZM328.148 61.8H350.724V57.8H328.148V61.8Z" fill="url(#paint0_linear_186_2921)"/>
</g>
<g filter="url(#filter1_f_186_2921)">
<path d="M74.016 73.06V75.06H75.7377L75.9938 73.3574L74.016 73.06ZM25.464 73.06L23.4866 72.7601L23.1378 75.06H25.464V73.06ZM32.672 25.528V23.528H30.9524L30.6946 25.2281L32.672 25.528ZM45.592 25.528L47.5693 25.8284L47.9188 23.528H45.592V25.528ZM39.744 64.016L37.7667 63.7156L37.4172 66.016H39.744V64.016ZM75.376 64.016L77.3538 64.3134L77.6992 62.016H75.376V64.016ZM74.016 71.06H25.464V75.06H74.016V71.06ZM27.4414 73.3599L34.6494 25.8279L30.6946 25.2281L23.4866 72.7601L27.4414 73.3599ZM32.672 27.528H45.592V23.528H32.672V27.528ZM43.6147 25.2276L37.7667 63.7156L41.7213 64.3164L47.5693 25.8284L43.6147 25.2276ZM39.744 66.016H75.376V62.016H39.744V66.016ZM73.3982 63.7186L72.0382 72.7626L75.9938 73.3574L77.3538 64.3134L73.3982 63.7186ZM131.683 66.26V68.26H133.306L133.64 66.672L131.683 66.26ZM83.1312 66.26L81.1748 65.8444L80.6617 68.26H83.1312V66.26ZM90.3392 32.328V30.328H88.7194L88.3828 31.9124L90.3392 32.328ZM138.891 32.328L140.848 32.74L141.356 30.328H138.891V32.328ZM137.531 38.788V40.788H139.154L139.488 39.2L137.531 38.788ZM101.831 38.788V36.788H100.213L99.8753 38.3702L101.831 38.788ZM100.335 45.792L98.3793 45.3742L97.8629 47.792H100.335V45.792ZM123.047 45.792L125.004 46.204L125.512 43.792H123.047V45.792ZM121.687 52.252V54.252H123.31L123.644 52.664L121.687 52.252ZM98.9752 52.252V50.252H97.3471L97.0168 51.8462L98.9752 52.252ZM97.4112 59.8L95.4528 59.3942L94.9543 61.8H97.4112V59.8ZM133.043 59.8L135 60.212L135.508 57.8H133.043V59.8ZM131.683 64.26H83.1312V68.26H131.683V64.26ZM85.0875 66.6756L92.2955 32.7436L88.3828 31.9124L81.1748 65.8444L85.0875 66.6756ZM90.3392 34.328H138.891V30.328H90.3392V34.328ZM136.934 31.916L135.574 38.376L139.488 39.2L140.848 32.74L136.934 31.916ZM137.531 36.788H101.831V40.788H137.531V36.788ZM99.8753 38.3702L98.3793 45.3742L102.291 46.2098L103.787 39.2058L99.8753 38.3702ZM100.335 47.792H123.047V43.792H100.335V47.792ZM121.09 45.38L119.73 51.84L123.644 52.664L125.004 46.204L121.09 45.38ZM121.687 50.252H98.9752V54.252H121.687V50.252ZM97.0168 51.8462L95.4528 59.3942L99.3696 60.2058L100.934 52.6578L97.0168 51.8462ZM97.4112 61.8H133.043V57.8H97.4112V61.8ZM131.086 59.388L129.726 65.848L133.64 66.672L135 60.212L131.086 59.388ZM144.334 65.512L145.018 63.6324L145.007 63.6285L144.334 65.512ZM147.122 36.34L149.078 36.7604L149.079 36.7528L149.081 36.7452L147.122 36.34ZM151.134 33.212L151.745 35.1164L151.753 35.1141L151.134 33.212ZM192.614 33.076L191.999 34.9789L192.006 34.9813L192.614 33.076ZM194.722 41.168V43.168H196.341L196.678 41.5853L194.722 41.168ZM181.734 41.168L179.785 40.7223L179.226 43.168H181.734V41.168ZM182.278 38.788L184.228 39.2336L184.787 36.788H182.278V38.788ZM159.498 38.788V36.788H157.875L157.541 38.3763L159.498 38.788ZM155.078 59.8L153.121 59.3883L152.614 61.8H155.078V59.8ZM177.79 59.8V61.8H179.404L179.745 60.2227L177.79 59.8ZM179.422 52.252L181.377 52.6747L181.901 50.252H179.422V52.252ZM170.378 52.252L168.421 51.84L167.913 54.252H170.378V52.252ZM171.738 45.792V43.792H170.116L169.781 45.38L171.738 45.792ZM193.702 45.792L195.66 46.2028L196.166 43.792H193.702V45.792ZM190.234 62.316L192.19 62.7351L192.192 62.7268L190.234 62.316ZM186.494 65.376L185.839 63.4865L185.834 63.4883L186.494 65.376ZM181.326 64.328H148.754V68.328H181.326V64.328ZM148.754 64.328C147.558 64.328 146.316 64.1045 145.018 63.6324L143.651 67.3916C145.345 68.0075 147.049 68.328 148.754 68.328V64.328ZM145.007 63.6285C144.199 63.3398 143.78 63.0603 143.589 62.8739C143.503 62.7899 143.482 62.7426 143.48 62.7381C143.478 62.7348 143.479 62.7352 143.479 62.7373C143.479 62.7392 143.478 62.7357 143.478 62.724H139.478C139.478 65.2656 141.596 66.6576 143.662 67.3955L145.007 63.6285ZM143.478 62.724C143.478 62.8145 143.472 62.8847 143.47 62.907C143.467 62.9386 143.464 62.9636 143.462 62.9775C143.458 63.0054 143.455 63.0262 143.454 63.0334C143.451 63.0495 143.45 63.0587 143.45 63.0543C143.452 63.0481 143.455 63.0304 143.462 62.9963C143.475 62.9303 143.496 62.8287 143.525 62.6883C143.583 62.4091 143.67 61.993 143.788 61.4383C144.022 60.3297 144.375 58.6767 144.845 56.4784C145.786 52.0821 147.196 45.5096 149.078 36.7604L145.167 35.9196C143.286 44.669 141.875 51.2432 140.934 55.6416C140.463 57.8406 140.11 59.4969 139.875 60.6097C139.757 61.1657 139.668 61.5882 139.608 61.8757C139.579 62.0187 139.555 62.1323 139.539 62.2137C139.531 62.2533 139.524 62.2922 139.517 62.3257C139.514 62.3411 139.51 62.3659 139.506 62.3933C139.503 62.4062 139.499 62.4317 139.495 62.4631C139.493 62.4787 139.49 62.5052 139.487 62.5381C139.485 62.5616 139.478 62.6328 139.478 62.724H143.478ZM149.081 36.7452C149.114 36.5868 149.435 35.8574 151.745 35.1164L150.524 31.3076C148.028 32.108 145.675 33.4639 145.164 35.9348L149.081 36.7452ZM151.753 35.1141C153.377 34.5863 154.982 34.328 156.574 34.328V30.328C154.541 30.328 152.519 30.6591 150.516 31.3099L151.753 35.1141ZM156.574 34.328H187.922V30.328H156.574V34.328ZM187.922 34.328C189.296 34.328 190.652 34.5432 191.999 34.9789L193.23 31.1731C191.494 30.6115 189.722 30.328 187.922 30.328V34.328ZM192.006 34.9813C192.953 35.2834 193.469 35.5795 193.715 35.7891C193.915 35.9594 193.81 35.9504 193.81 35.796H197.81C197.81 34.5083 197.173 33.4793 196.308 32.7429C195.488 32.0458 194.407 31.5486 193.222 31.1707L192.006 34.9813ZM193.81 35.796C193.81 35.6355 193.834 35.5243 193.817 35.6324C193.81 35.6789 193.797 35.7563 193.775 35.872C193.733 36.1009 193.668 36.4342 193.578 36.878C193.399 37.763 193.129 39.0526 192.766 40.7507L196.678 41.5853C197.041 39.8834 197.315 38.5777 197.499 37.672C197.59 37.2204 197.661 36.8596 197.709 36.5955C197.733 36.4647 197.754 36.3459 197.77 36.2464C197.776 36.2087 197.81 36.0019 197.81 35.796H193.81ZM194.722 39.168H181.734V43.168H194.722V39.168ZM183.684 41.6136L184.228 39.2336L180.329 38.3423L179.785 40.7223L183.684 41.6136ZM182.278 36.788H159.498V40.788H182.278V36.788ZM157.541 38.3763L153.121 59.3883L157.036 60.2117L161.456 39.1997L157.541 38.3763ZM155.078 61.8H177.79V57.8H155.078V61.8ZM179.745 60.2227L181.377 52.6747L177.468 51.8293L175.836 59.3773L179.745 60.2227ZM179.422 50.252H170.378V54.252H179.422V50.252ZM172.335 52.664L173.695 46.204L169.781 45.38L168.421 51.84L172.335 52.664ZM171.738 47.792H193.702V43.792H171.738V47.792ZM191.745 45.3812L188.277 61.9052L192.192 62.7268L195.66 46.2028L191.745 45.3812ZM188.279 61.8969C188.241 62.0714 187.93 62.761 185.839 63.4865L187.15 67.2655C189.502 66.4496 191.683 65.0993 192.19 62.7351L188.279 61.8969ZM185.834 63.4883C184.196 64.0615 182.698 64.328 181.326 64.328V68.328C183.219 68.328 185.166 67.9598 187.155 67.2637L185.834 63.4883ZM247.018 66.26V68.26H248.64L248.975 66.672L247.018 66.26ZM198.466 66.26L196.509 65.8444L195.996 68.26H198.466V66.26ZM205.674 32.328V30.328H204.054L203.717 31.9124L205.674 32.328ZM254.226 32.328L256.183 32.74L256.69 30.328H254.226V32.328ZM252.866 38.788V40.788H254.488L254.823 39.2L252.866 38.788ZM217.166 38.788V36.788H215.548L215.21 38.3702L217.166 38.788ZM215.67 45.792L213.714 45.3742L213.197 47.792H215.67V45.792ZM238.382 45.792L240.339 46.204L240.846 43.792H238.382V45.792ZM237.022 52.252V54.252H238.644L238.979 52.664L237.022 52.252ZM214.31 52.252V50.252H212.681L212.351 51.8462L214.31 52.252ZM212.746 59.8L210.787 59.3942L210.289 61.8H212.746V59.8ZM248.378 59.8L250.335 60.212L250.842 57.8H248.378V59.8ZM247.018 64.26H198.466V68.26H247.018V64.26ZM200.422 66.6756L207.63 32.7436L203.717 31.9124L196.509 65.8444L200.422 66.6756ZM205.674 34.328H254.226V30.328H205.674V34.328ZM252.268 31.916L250.908 38.376L254.823 39.2L256.183 32.74L252.268 31.916ZM252.866 36.788H217.166V40.788H252.866V36.788ZM215.21 38.3702L213.714 45.3742L217.625 46.2098L219.121 39.2058L215.21 38.3702ZM215.67 47.792H238.382V43.792H215.67V47.792ZM236.424 45.38L235.064 51.84L238.979 52.664L240.339 46.204L236.424 45.38ZM237.022 50.252H214.31V54.252H237.022V50.252ZM212.351 51.8462L210.787 59.3942L214.704 60.2058L216.268 52.6578L212.351 51.8462ZM212.746 61.8H248.378V57.8H212.746V61.8ZM246.42 59.388L245.06 65.848L248.975 66.672L250.335 60.212L246.42 59.388ZM304.685 66.26V68.26H306.302L306.64 66.6785L304.685 66.26ZM291.765 66.26L289.809 65.8436L289.294 68.26H291.765V66.26ZM297.613 38.788L299.569 39.2044L300.083 36.788H297.613V38.788ZM274.833 38.788V36.788H273.214L272.877 38.3716L274.833 38.788ZM268.985 66.26V68.26H270.604L270.941 66.6764L268.985 66.26ZM256.133 66.26L254.176 65.8444L253.663 68.26H256.133V66.26ZM263.341 32.328V30.328H261.721L261.384 31.9124L263.341 32.328ZM307.949 33.076L308.557 31.1707L308.548 31.168L307.949 33.076ZM304.685 64.26H291.765V68.26H304.685V64.26ZM293.721 66.6764L299.569 39.2044L295.657 38.3716L289.809 65.8436L293.721 66.6764ZM297.613 36.788H274.833V40.788H297.613V36.788ZM272.877 38.3716L267.029 65.8436L270.941 66.6764L276.789 39.2044L272.877 38.3716ZM268.985 64.26H256.133V68.26H268.985V64.26ZM258.089 66.6756L265.297 32.7436L261.384 31.9124L254.176 65.8444L258.089 66.6756ZM263.341 34.328H303.257V30.328H263.341V34.328ZM303.257 34.328C304.579 34.328 305.941 34.5415 307.349 34.984L308.548 31.168C306.783 30.6132 305.017 30.328 303.257 30.328V34.328ZM307.341 34.9813C308.287 35.2834 308.803 35.5795 309.049 35.7891C309.25 35.9594 309.145 35.9504 309.145 35.796H313.145C313.145 34.5083 312.507 33.4793 311.642 32.7429C310.823 32.0458 309.741 31.5486 308.557 31.1707L307.341 34.9813ZM309.145 35.796C309.145 35.5948 309.183 35.4126 309.166 35.5123C309.165 35.5174 309.162 35.5366 309.154 35.5764C309.14 35.6534 309.116 35.7721 309.083 35.9369C309.017 36.2644 308.917 36.7492 308.783 37.3941C308.515 38.6825 308.111 40.595 307.573 43.1331C306.497 48.2086 304.882 55.7778 302.729 65.8415L306.64 66.6785C308.794 56.6142 310.409 49.0421 311.486 43.9629C312.025 41.4237 312.429 39.5055 312.699 38.2099C312.834 37.5627 312.936 37.0673 313.004 36.7261C313.039 36.5566 313.066 36.4188 313.085 36.3173C313.094 36.2679 313.103 36.2174 313.111 36.1721C313.115 36.1505 313.12 36.1183 313.125 36.0823C313.127 36.0645 313.131 36.0356 313.134 36.0007C313.137 35.9781 313.145 35.8979 313.145 35.796H309.145ZM313.8 66.26L311.844 65.8444L311.33 68.26H313.8V66.26ZM321.008 32.328V30.328H319.388L319.052 31.9124L321.008 32.328ZM365.616 33.076L366.187 31.1592L366.186 31.1589L365.616 33.076ZM368.812 35.796L370.769 36.2075L370.812 36.004V35.796H368.812ZM363.236 62.316L361.279 61.9045L361.277 61.9141L361.275 61.9238L363.236 62.316ZM359.224 65.444L359.799 67.3597L359.802 67.3587L359.224 65.444ZM350.724 59.8V61.8H352.342L352.68 60.2178L350.724 59.8ZM355.212 38.788L357.168 39.2058L357.684 36.788H355.212V38.788ZM332.636 38.788V36.788H331.018L330.68 38.3702L332.636 38.788ZM328.148 59.8L326.192 59.3822L325.676 61.8H328.148V59.8ZM353.716 64.26H313.8V68.26H353.716V64.26ZM315.756 66.6756L322.964 32.7436L319.052 31.9124L311.844 65.8444L315.756 66.6756ZM321.008 34.328H360.924V30.328H321.008V34.328ZM360.924 34.328C362.147 34.328 363.517 34.5385 365.046 34.9931L366.186 31.1589C364.36 30.6162 362.603 30.328 360.924 30.328V34.328ZM365.045 34.9928C365.983 35.2722 366.484 35.557 366.717 35.7551C366.895 35.9067 366.812 35.9039 366.812 35.796H370.812C370.812 34.5094 370.196 33.4639 369.309 32.7089C368.477 32.0003 367.379 31.5144 366.187 31.1592L365.045 34.9928ZM368.812 35.796C366.855 35.3845 366.855 35.3845 366.855 35.3846C366.855 35.3847 366.855 35.3848 366.855 35.3849C366.855 35.385 366.855 35.3852 366.855 35.3854C366.854 35.3856 366.854 35.3858 366.854 35.3861C366.854 35.3864 366.854 35.3867 366.854 35.387C366.854 35.3874 366.854 35.3877 366.854 35.3881C366.854 35.3885 366.854 35.389 366.854 35.3894C366.854 35.3899 366.853 35.3904 366.853 35.391C366.853 35.3936 366.852 35.3953 366.852 35.3991C366.852 35.3995 366.851 35.4035 366.851 35.4043C366.85 35.4053 366.85 35.4062 366.85 35.4072C366.85 35.4083 366.85 35.4093 366.849 35.4104C366.848 35.4173 366.845 35.4315 366.842 35.4428C366.841 35.4512 366.84 35.4543 366.838 35.4638C366.837 35.4707 366.837 35.4683 366.836 35.4755C366.835 35.4776 366.835 35.4796 366.834 35.4817C366.834 35.4838 366.833 35.4859 366.833 35.4881C366.832 35.4902 366.832 35.4924 366.832 35.4947C366.831 35.4969 366.831 35.4991 366.83 35.5014C366.83 35.5037 366.829 35.5061 366.829 35.5084C366.828 35.5108 366.828 35.5132 366.827 35.5156C366.824 35.5323 366.824 35.5286 366.821 35.5463C366.817 35.5661 366.811 35.5935 366.806 35.6176C366.792 35.6831 366.803 35.6318 366.788 35.7017C366.778 35.7487 366.788 35.7006 366.778 35.7487C366.771 35.7811 366.775 35.7654 366.768 35.7989C366.727 35.992 366.714 36.0546 366.659 36.3168C366.629 36.4562 366.621 36.4968 366.588 36.6535C366.562 36.7754 366.575 36.7151 366.548 36.8413C366.546 36.8539 366.51 37.025 366.506 37.042C366.486 37.1392 366.438 37.3678 366.414 37.4823C366.381 37.6366 366.346 37.8027 366.31 37.9743C366.208 38.4588 366.187 38.5603 366.071 39.1139C366.038 39.2704 366.038 39.2702 366.004 39.4311C365.975 39.567 365.998 39.4576 365.97 39.5946C365.959 39.643 365.945 39.7118 365.934 39.7613C365.925 39.8073 365.873 40.0542 365.862 40.1045C365.835 40.2321 365.815 40.3286 365.787 40.4606C365.762 40.5825 365.775 40.5205 365.749 40.6435C365.745 40.6639 365.734 40.7154 365.73 40.7362C365.726 40.7517 365.723 40.7672 365.72 40.7828C365.716 40.7984 365.713 40.814 365.71 40.8296C365.673 41.006 365.668 41.031 365.63 41.2116C365.57 41.497 365.524 41.7119 365.461 42.0145C365.408 42.2642 365.426 42.1813 365.372 42.4353C365.318 42.6942 365.336 42.606 365.281 42.8691C365.277 42.8875 365.273 42.9059 365.269 42.9243C365.266 42.9427 365.262 42.9611 365.258 42.9796C365.254 42.9981 365.25 43.0166 365.246 43.0351C365.242 43.0537 365.238 43.0723 365.234 43.0909C365.187 43.3154 365.235 43.0903 365.187 43.3159C365.171 43.3924 365.107 43.6947 365.09 43.7756C365.058 43.93 365.024 44.0895 364.991 44.2482C364.987 44.2682 364.983 44.2882 364.978 44.3082C364.974 44.3282 364.97 44.3483 364.966 44.3684C364.962 44.3885 364.957 44.4086 364.953 44.4288C364.949 44.449 364.945 44.4692 364.94 44.4894C364.906 44.6514 364.923 44.5708 364.889 44.7338C364.858 44.8824 364.816 45.0795 364.784 45.2324C364.756 45.3652 364.705 45.6067 364.677 45.7439C364.575 46.2285 364.559 46.3037 364.453 46.8057C364.431 46.9117 364.361 47.2457 364.338 47.356C364.316 47.4591 364.301 47.5319 364.279 47.6361C364.263 47.7103 364.265 47.7027 364.249 47.7773C364.244 47.8009 364.239 47.8245 364.234 47.8482C364.229 47.8719 364.224 47.8956 364.219 47.9193C364.151 48.2432 364.167 48.1674 364.098 48.4956C364.047 48.739 364.088 48.544 364.036 48.7885C364.025 48.8436 364.017 48.881 364.005 48.9362C363.999 48.9648 363.98 49.056 363.974 49.0848C363.969 49.1096 363.964 49.1344 363.958 49.1593C363.953 49.1842 363.948 49.2091 363.943 49.2341C363.929 49.3 363.925 49.318 363.911 49.3842C363.863 49.6154 363.896 49.4546 363.848 49.6869C363.831 49.764 363.832 49.7621 363.815 49.8395C363.814 49.8484 363.785 49.9836 363.783 49.9928C363.783 49.9938 363.719 50.2999 363.718 50.302C363.681 50.4779 363.69 50.4374 363.653 50.6144C363.627 50.7358 363.645 50.6501 363.619 50.7718C363.614 50.7981 363.608 50.8244 363.603 50.8508C363.597 50.8772 363.592 50.9036 363.586 50.93C363.582 50.9522 363.524 51.2257 363.519 51.2489C363.486 51.4087 363.485 51.4102 363.451 51.571C363.423 51.7069 363.446 51.5971 363.417 51.7333C363.405 51.792 363.395 51.8374 363.383 51.8964C363.374 51.941 363.324 52.1792 363.314 52.2249C363.279 52.3895 363.279 52.3911 363.244 52.5568C363.21 52.719 363.243 52.5614 363.209 52.7239C363.199 52.7731 363.184 52.8423 363.174 52.8918C363.164 52.9377 363.112 53.1831 363.103 53.2301C363.072 53.3768 363.062 53.4239 363.031 53.5717C363.025 53.6003 363.019 53.6289 363.013 53.6576C363.007 53.6862 363.001 53.7149 362.995 53.7436C362.989 53.7724 362.983 53.8011 362.976 53.8299C362.97 53.8587 362.964 53.8876 362.958 53.9164C362.929 54.0548 362.914 54.125 362.885 54.2644C362.875 54.3132 362.822 54.5658 362.811 54.6157C362.805 54.6451 362.799 54.6745 362.793 54.704C362.786 54.7335 362.78 54.763 362.774 54.7925C362.768 54.8221 362.762 54.8516 362.755 54.8813C362.749 54.9109 362.743 54.9405 362.737 54.9702C362.701 55.1381 362.697 55.1589 362.661 55.3279C362.659 55.3389 362.588 55.6768 362.586 55.6889C362.579 55.7191 362.573 55.7493 362.567 55.7796C362.56 55.8099 362.554 55.8402 362.547 55.8706C362.541 55.9009 362.535 55.9313 362.528 55.9617C362.522 55.9921 362.515 56.0226 362.509 56.0531C362.47 56.2386 362.471 56.2338 362.432 56.4205C362.387 56.632 362.321 56.9492 362.275 57.1651C362.227 57.3962 362.245 57.31 362.196 57.5422C362.144 57.7879 362.168 57.6759 362.116 57.9226C362.109 57.9544 362.103 57.9863 362.096 58.0182C362.089 58.0501 362.082 58.082 362.076 58.114C362.069 58.146 362.062 58.178 362.056 58.21C362.049 58.242 362.042 58.2741 362.035 58.3062C361.983 58.557 362.007 58.4412 361.954 58.6931C361.901 58.9441 361.843 59.2211 361.789 59.4765C361.782 59.5094 361.775 59.5424 361.768 59.5753C361.762 59.6083 361.755 59.6413 361.748 59.6744C361.741 59.7074 361.734 59.7405 361.727 59.7736C361.72 59.8067 361.713 59.8399 361.706 59.8731C361.658 60.1025 361.67 60.0424 361.622 60.2729C361.549 60.6208 361.526 60.73 361.452 61.0822C361.417 61.2493 361.315 61.7331 361.279 61.9045L365.193 62.7275C365.195 62.7201 365.279 62.3211 365.28 62.3148C365.287 62.2805 365.294 62.2463 365.302 62.2121C365.309 62.1779 365.316 62.1437 365.323 62.1096C365.33 62.0755 365.337 62.0414 365.345 62.0073C365.352 61.9733 365.359 61.9392 365.366 61.9052C365.386 61.8108 365.389 61.7959 365.409 61.7017C365.416 61.6678 365.423 61.634 365.43 61.6002C365.437 61.5664 365.444 61.5327 365.451 61.499C365.454 61.485 365.533 61.1088 365.536 61.0959C365.538 61.0891 365.577 60.9021 365.578 60.8956C365.583 60.873 365.616 60.7185 365.62 60.6961C365.643 60.5897 365.64 60.6036 365.662 60.4974C365.669 60.4644 365.676 60.4314 365.683 60.3984C365.69 60.3654 365.697 60.3324 365.704 60.2995C365.707 60.2843 365.742 60.1175 365.745 60.1025C365.752 60.0697 365.759 60.0369 365.766 60.0042C365.773 59.9715 365.779 59.9388 365.786 59.9062C365.814 59.7757 365.8 59.8409 365.827 59.7108C365.834 59.6782 365.841 59.6458 365.848 59.6133C365.855 59.5809 365.862 59.5485 365.868 59.5161C365.875 59.4837 365.882 59.4514 365.889 59.4191C365.896 59.3868 365.902 59.3545 365.909 59.3223C365.935 59.1999 365.924 59.2514 365.95 59.1292C366.004 58.873 365.977 59.0008 366.03 58.7456C366.057 58.6184 366.044 58.682 366.07 58.555C366.077 58.5233 366.084 58.4917 366.09 58.46C366.097 58.4284 366.104 58.3968 366.11 58.3652C366.117 58.3337 366.124 58.3022 366.13 58.2707C366.137 58.2392 366.143 58.2077 366.15 58.1763C366.175 58.057 366.165 58.1071 366.19 57.9881C366.24 57.7507 366.219 57.8505 366.268 57.6142C366.294 57.4902 366.281 57.5521 366.307 57.4285C366.324 57.3473 366.329 57.3244 366.346 57.2435C366.352 57.2178 366.38 57.0849 366.385 57.0594C366.409 56.9431 366.399 56.9921 366.423 56.8761C366.475 56.6329 366.449 56.754 366.5 56.5119C366.525 56.3912 366.513 56.4515 366.538 56.331C366.552 56.2649 366.562 56.2167 366.576 56.1509C366.582 56.121 366.589 56.0911 366.595 56.0612C366.601 56.0313 366.607 56.0015 366.614 55.9717C366.639 55.8525 366.626 55.9121 366.651 55.7932C366.684 55.6381 366.768 55.2382 366.799 55.0875C366.806 55.0583 366.812 55.0292 366.818 55.0002C366.824 54.9711 366.83 54.9421 366.836 54.9131C366.861 54.7972 366.848 54.8551 366.873 54.7395C366.907 54.578 366.911 54.5551 366.945 54.3947C366.965 54.3003 366.961 54.3177 366.981 54.2235C366.987 54.1951 366.993 54.1666 366.999 54.1382C367.005 54.1098 367.011 54.0815 367.017 54.0532C367.023 54.0248 367.029 53.9965 367.035 53.9683C367.041 53.94 367.047 53.9118 367.053 53.8836C367.072 53.7905 367.069 53.8077 367.088 53.7149C367.259 52.9033 367.477 51.8675 367.633 51.125C367.839 50.1427 367.942 49.6556 368.134 48.7424C368.199 48.4299 368.187 48.4872 368.252 48.1791C368.288 48.01 368.275 48.0702 368.31 47.9023C368.326 47.8266 368.323 47.8405 368.339 47.7651C368.344 47.7423 368.349 47.7195 368.353 47.6968C368.358 47.6741 368.363 47.6514 368.368 47.6287C368.373 47.6061 368.377 47.5834 368.382 47.5608C368.387 47.5382 368.392 47.5157 368.396 47.4932C368.414 47.411 368.407 47.4403 368.425 47.3584C368.456 47.2108 368.45 47.2379 368.481 47.0913C368.488 47.0588 368.585 46.5951 368.591 46.5669C368.624 46.4097 368.612 46.4656 368.645 46.3095C368.661 46.2318 368.656 46.2595 368.672 46.1821C368.676 46.1609 368.681 46.1397 368.685 46.1186C368.69 46.0975 368.694 46.0764 368.699 46.0554C368.7 46.047 368.75 45.8118 368.751 45.8045C368.754 45.7896 368.8 45.5707 368.803 45.5569C368.81 45.5266 368.9 45.0972 368.905 45.0713C368.91 45.0513 368.914 45.0314 368.918 45.0115C368.922 44.9916 368.926 44.9717 368.931 44.9519C368.935 44.9321 368.939 44.9123 368.943 44.8925C368.947 44.8727 368.951 44.853 368.956 44.8333C368.957 44.8264 368.979 44.7222 368.98 44.7156C368.984 44.696 368.988 44.6765 368.993 44.657C368.997 44.6375 369.001 44.618 369.005 44.5986C369.013 44.5602 369.046 44.4045 369.054 44.3671C369.058 44.348 369.062 44.3289 369.066 44.3098C369.07 44.2907 369.074 44.2716 369.078 44.2526C369.082 44.2336 369.086 44.2146 369.09 44.1957C369.094 44.1767 369.098 44.1578 369.102 44.1389C369.115 44.0766 369.112 44.0881 369.125 44.026C369.129 44.0073 369.133 43.9885 369.137 43.9699C369.141 43.9512 369.145 43.9325 369.149 43.9139C369.169 43.8185 369.176 43.7865 369.195 43.6922C369.224 43.5586 369.214 43.6062 369.241 43.4736C369.251 43.4293 369.278 43.3017 369.287 43.2584C369.296 43.2132 369.3 43.1969 369.309 43.1519C369.321 43.0936 369.319 43.1044 369.331 43.0463C369.358 42.9187 369.349 42.9641 369.375 42.8375C369.631 41.6184 369.787 40.8798 369.985 39.9369C369.99 39.9137 370.045 39.6514 370.049 39.6326C370.087 39.4531 370.073 39.5164 370.11 39.3412C370.119 39.3008 370.22 38.8206 370.225 38.7974C370.231 38.7659 370.272 38.572 370.278 38.5448C370.28 38.5346 370.282 38.5244 370.284 38.5142C370.286 38.504 370.288 38.4939 370.291 38.4837C370.296 38.4583 370.298 38.4487 370.303 38.4234C370.305 38.4135 370.307 38.4035 370.31 38.3936C370.312 38.3837 370.314 38.3738 370.316 38.364C370.321 38.3407 370.323 38.3283 370.328 38.3053C370.34 38.2509 370.365 38.1287 370.376 38.0787C370.406 37.9341 370.391 38.0053 370.421 37.865C370.477 37.598 370.45 37.7263 370.502 37.4765C370.532 37.3377 370.511 37.4362 370.539 37.3017C370.551 37.2462 370.545 37.2737 370.556 37.2192C370.56 37.2041 370.57 37.1539 370.573 37.1399C370.591 37.056 370.619 36.9215 370.633 36.855C370.646 36.7921 370.672 36.6675 370.682 36.6219C370.732 36.3839 370.712 36.48 370.747 36.3111C370.755 36.2758 370.76 36.2515 370.764 36.2334C370.767 36.2182 370.766 36.2248 370.768 36.214C370.768 36.2114 370.768 36.2107 370.769 36.2091C370.769 36.2085 370.769 36.2083 370.769 36.2079C370.769 36.2078 370.769 36.2077 370.769 36.2076C370.769 36.2075 370.769 36.2075 368.812 35.796ZM361.275 61.9238C361.237 62.1151 360.921 62.8425 358.646 63.5293L359.802 67.3587C362.332 66.5948 364.691 65.2369 365.197 62.7082L361.275 61.9238ZM358.649 63.5283C357.019 64.0175 355.376 64.26 353.716 64.26V68.26C355.773 68.26 357.802 67.9585 359.799 67.3597L358.649 63.5283ZM352.68 60.2178L357.168 39.2058L353.256 38.3702L348.768 59.3822L352.68 60.2178ZM355.212 36.788H332.636V40.788H355.212V36.788ZM330.68 38.3702L326.192 59.3822L330.104 60.2178L334.592 39.2058L330.68 38.3702ZM328.148 61.8H350.724V57.8H328.148V61.8Z" fill="url(#paint1_linear_186_2921)"/>
</g>
<g filter="url(#filter2_f_186_2921)">
<path d="M74.016 73.06V75.06H75.7377L75.9938 73.3574L74.016 73.06ZM25.464 73.06L23.4866 72.7601L23.1378 75.06H25.464V73.06ZM32.672 25.528V23.528H30.9524L30.6946 25.2281L32.672 25.528ZM45.592 25.528L47.5693 25.8284L47.9188 23.528H45.592V25.528ZM39.744 64.016L37.7667 63.7156L37.4172 66.016H39.744V64.016ZM75.376 64.016L77.3538 64.3134L77.6992 62.016H75.376V64.016ZM74.016 71.06H25.464V75.06H74.016V71.06ZM27.4414 73.3599L34.6494 25.8279L30.6946 25.2281L23.4866 72.7601L27.4414 73.3599ZM32.672 27.528H45.592V23.528H32.672V27.528ZM43.6147 25.2276L37.7667 63.7156L41.7213 64.3164L47.5693 25.8284L43.6147 25.2276ZM39.744 66.016H75.376V62.016H39.744V66.016ZM73.3982 63.7186L72.0382 72.7626L75.9938 73.3574L77.3538 64.3134L73.3982 63.7186ZM131.683 66.26V68.26H133.306L133.64 66.672L131.683 66.26ZM83.1312 66.26L81.1748 65.8444L80.6617 68.26H83.1312V66.26ZM90.3392 32.328V30.328H88.7194L88.3828 31.9124L90.3392 32.328ZM138.891 32.328L140.848 32.74L141.356 30.328H138.891V32.328ZM137.531 38.788V40.788H139.154L139.488 39.2L137.531 38.788ZM101.831 38.788V36.788H100.213L99.8753 38.3702L101.831 38.788ZM100.335 45.792L98.3793 45.3742L97.8629 47.792H100.335V45.792ZM123.047 45.792L125.004 46.204L125.512 43.792H123.047V45.792ZM121.687 52.252V54.252H123.31L123.644 52.664L121.687 52.252ZM98.9752 52.252V50.252H97.3471L97.0168 51.8462L98.9752 52.252ZM97.4112 59.8L95.4528 59.3942L94.9543 61.8H97.4112V59.8ZM133.043 59.8L135 60.212L135.508 57.8H133.043V59.8ZM131.683 64.26H83.1312V68.26H131.683V64.26ZM85.0875 66.6756L92.2955 32.7436L88.3828 31.9124L81.1748 65.8444L85.0875 66.6756ZM90.3392 34.328H138.891V30.328H90.3392V34.328ZM136.934 31.916L135.574 38.376L139.488 39.2L140.848 32.74L136.934 31.916ZM137.531 36.788H101.831V40.788H137.531V36.788ZM99.8753 38.3702L98.3793 45.3742L102.291 46.2098L103.787 39.2058L99.8753 38.3702ZM100.335 47.792H123.047V43.792H100.335V47.792ZM121.09 45.38L119.73 51.84L123.644 52.664L125.004 46.204L121.09 45.38ZM121.687 50.252H98.9752V54.252H121.687V50.252ZM97.0168 51.8462L95.4528 59.3942L99.3696 60.2058L100.934 52.6578L97.0168 51.8462ZM97.4112 61.8H133.043V57.8H97.4112V61.8ZM131.086 59.388L129.726 65.848L133.64 66.672L135 60.212L131.086 59.388ZM144.334 65.512L145.018 63.6324L145.007 63.6285L144.334 65.512ZM147.122 36.34L149.078 36.7604L149.079 36.7528L149.081 36.7452L147.122 36.34ZM151.134 33.212L151.745 35.1164L151.753 35.1141L151.134 33.212ZM192.614 33.076L191.999 34.9789L192.006 34.9813L192.614 33.076ZM194.722 41.168V43.168H196.341L196.678 41.5853L194.722 41.168ZM181.734 41.168L179.785 40.7223L179.226 43.168H181.734V41.168ZM182.278 38.788L184.228 39.2336L184.787 36.788H182.278V38.788ZM159.498 38.788V36.788H157.875L157.541 38.3763L159.498 38.788ZM155.078 59.8L153.121 59.3883L152.614 61.8H155.078V59.8ZM177.79 59.8V61.8H179.404L179.745 60.2227L177.79 59.8ZM179.422 52.252L181.377 52.6747L181.901 50.252H179.422V52.252ZM170.378 52.252L168.421 51.84L167.913 54.252H170.378V52.252ZM171.738 45.792V43.792H170.116L169.781 45.38L171.738 45.792ZM193.702 45.792L195.66 46.2028L196.166 43.792H193.702V45.792ZM190.234 62.316L192.19 62.7351L192.192 62.7268L190.234 62.316ZM186.494 65.376L185.839 63.4865L185.834 63.4883L186.494 65.376ZM181.326 64.328H148.754V68.328H181.326V64.328ZM148.754 64.328C147.558 64.328 146.316 64.1045 145.018 63.6324L143.651 67.3916C145.345 68.0075 147.049 68.328 148.754 68.328V64.328ZM145.007 63.6285C144.199 63.3398 143.78 63.0603 143.589 62.8739C143.503 62.7899 143.482 62.7426 143.48 62.7381C143.478 62.7348 143.479 62.7352 143.479 62.7373C143.479 62.7392 143.478 62.7357 143.478 62.724H139.478C139.478 65.2656 141.596 66.6576 143.662 67.3955L145.007 63.6285ZM143.478 62.724C143.478 62.8145 143.472 62.8847 143.47 62.907C143.467 62.9386 143.464 62.9636 143.462 62.9775C143.458 63.0054 143.455 63.0262 143.454 63.0334C143.451 63.0495 143.45 63.0587 143.45 63.0543C143.452 63.0481 143.455 63.0304 143.462 62.9963C143.475 62.9303 143.496 62.8287 143.525 62.6883C143.583 62.4091 143.67 61.993 143.788 61.4383C144.022 60.3297 144.375 58.6767 144.845 56.4784C145.786 52.0821 147.196 45.5096 149.078 36.7604L145.167 35.9196C143.286 44.669 141.875 51.2432 140.934 55.6416C140.463 57.8406 140.11 59.4969 139.875 60.6097C139.757 61.1657 139.668 61.5882 139.608 61.8757C139.579 62.0187 139.555 62.1323 139.539 62.2137C139.531 62.2533 139.524 62.2922 139.517 62.3257C139.514 62.3411 139.51 62.3659 139.506 62.3933C139.503 62.4062 139.499 62.4317 139.495 62.4631C139.493 62.4787 139.49 62.5052 139.487 62.5381C139.485 62.5616 139.478 62.6328 139.478 62.724H143.478ZM149.081 36.7452C149.114 36.5868 149.435 35.8574 151.745 35.1164L150.524 31.3076C148.028 32.108 145.675 33.4639 145.164 35.9348L149.081 36.7452ZM151.753 35.1141C153.377 34.5863 154.982 34.328 156.574 34.328V30.328C154.541 30.328 152.519 30.6591 150.516 31.3099L151.753 35.1141ZM156.574 34.328H187.922V30.328H156.574V34.328ZM187.922 34.328C189.296 34.328 190.652 34.5432 191.999 34.9789L193.23 31.1731C191.494 30.6115 189.722 30.328 187.922 30.328V34.328ZM192.006 34.9813C192.953 35.2834 193.469 35.5795 193.715 35.7891C193.915 35.9594 193.81 35.9504 193.81 35.796H197.81C197.81 34.5083 197.173 33.4793 196.308 32.7429C195.488 32.0458 194.407 31.5486 193.222 31.1707L192.006 34.9813ZM193.81 35.796C193.81 35.6355 193.834 35.5243 193.817 35.6324C193.81 35.6789 193.797 35.7563 193.775 35.872C193.733 36.1009 193.668 36.4342 193.578 36.878C193.399 37.763 193.129 39.0526 192.766 40.7507L196.678 41.5853C197.041 39.8834 197.315 38.5777 197.499 37.672C197.59 37.2204 197.661 36.8596 197.709 36.5955C197.733 36.4647 197.754 36.3459 197.77 36.2464C197.776 36.2087 197.81 36.0019 197.81 35.796H193.81ZM194.722 39.168H181.734V43.168H194.722V39.168ZM183.684 41.6136L184.228 39.2336L180.329 38.3423L179.785 40.7223L183.684 41.6136ZM182.278 36.788H159.498V40.788H182.278V36.788ZM157.541 38.3763L153.121 59.3883L157.036 60.2117L161.456 39.1997L157.541 38.3763ZM155.078 61.8H177.79V57.8H155.078V61.8ZM179.745 60.2227L181.377 52.6747L177.468 51.8293L175.836 59.3773L179.745 60.2227ZM179.422 50.252H170.378V54.252H179.422V50.252ZM172.335 52.664L173.695 46.204L169.781 45.38L168.421 51.84L172.335 52.664ZM171.738 47.792H193.702V43.792H171.738V47.792ZM191.745 45.3812L188.277 61.9052L192.192 62.7268L195.66 46.2028L191.745 45.3812ZM188.279 61.8969C188.241 62.0714 187.93 62.761 185.839 63.4865L187.15 67.2655C189.502 66.4496 191.683 65.0993 192.19 62.7351L188.279 61.8969ZM185.834 63.4883C184.196 64.0615 182.698 64.328 181.326 64.328V68.328C183.219 68.328 185.166 67.9598 187.155 67.2637L185.834 63.4883ZM247.018 66.26V68.26H248.64L248.975 66.672L247.018 66.26ZM198.466 66.26L196.509 65.8444L195.996 68.26H198.466V66.26ZM205.674 32.328V30.328H204.054L203.717 31.9124L205.674 32.328ZM254.226 32.328L256.183 32.74L256.69 30.328H254.226V32.328ZM252.866 38.788V40.788H254.488L254.823 39.2L252.866 38.788ZM217.166 38.788V36.788H215.548L215.21 38.3702L217.166 38.788ZM215.67 45.792L213.714 45.3742L213.197 47.792H215.67V45.792ZM238.382 45.792L240.339 46.204L240.846 43.792H238.382V45.792ZM237.022 52.252V54.252H238.644L238.979 52.664L237.022 52.252ZM214.31 52.252V50.252H212.681L212.351 51.8462L214.31 52.252ZM212.746 59.8L210.787 59.3942L210.289 61.8H212.746V59.8ZM248.378 59.8L250.335 60.212L250.842 57.8H248.378V59.8ZM247.018 64.26H198.466V68.26H247.018V64.26ZM200.422 66.6756L207.63 32.7436L203.717 31.9124L196.509 65.8444L200.422 66.6756ZM205.674 34.328H254.226V30.328H205.674V34.328ZM252.268 31.916L250.908 38.376L254.823 39.2L256.183 32.74L252.268 31.916ZM252.866 36.788H217.166V40.788H252.866V36.788ZM215.21 38.3702L213.714 45.3742L217.625 46.2098L219.121 39.2058L215.21 38.3702ZM215.67 47.792H238.382V43.792H215.67V47.792ZM236.424 45.38L235.064 51.84L238.979 52.664L240.339 46.204L236.424 45.38ZM237.022 50.252H214.31V54.252H237.022V50.252ZM212.351 51.8462L210.787 59.3942L214.704 60.2058L216.268 52.6578L212.351 51.8462ZM212.746 61.8H248.378V57.8H212.746V61.8ZM246.42 59.388L245.06 65.848L248.975 66.672L250.335 60.212L246.42 59.388ZM304.685 66.26V68.26H306.302L306.64 66.6785L304.685 66.26ZM291.765 66.26L289.809 65.8436L289.294 68.26H291.765V66.26ZM297.613 38.788L299.569 39.2044L300.083 36.788H297.613V38.788ZM274.833 38.788V36.788H273.214L272.877 38.3716L274.833 38.788ZM268.985 66.26V68.26H270.604L270.941 66.6764L268.985 66.26ZM256.133 66.26L254.176 65.8444L253.663 68.26H256.133V66.26ZM263.341 32.328V30.328H261.721L261.384 31.9124L263.341 32.328ZM307.949 33.076L308.557 31.1707L308.548 31.168L307.949 33.076ZM304.685 64.26H291.765V68.26H304.685V64.26ZM293.721 66.6764L299.569 39.2044L295.657 38.3716L289.809 65.8436L293.721 66.6764ZM297.613 36.788H274.833V40.788H297.613V36.788ZM272.877 38.3716L267.029 65.8436L270.941 66.6764L276.789 39.2044L272.877 38.3716ZM268.985 64.26H256.133V68.26H268.985V64.26ZM258.089 66.6756L265.297 32.7436L261.384 31.9124L254.176 65.8444L258.089 66.6756ZM263.341 34.328H303.257V30.328H263.341V34.328ZM303.257 34.328C304.579 34.328 305.941 34.5415 307.349 34.984L308.548 31.168C306.783 30.6132 305.017 30.328 303.257 30.328V34.328ZM307.341 34.9813C308.287 35.2834 308.803 35.5795 309.049 35.7891C309.25 35.9594 309.145 35.9504 309.145 35.796H313.145C313.145 34.5083 312.507 33.4793 311.642 32.7429C310.823 32.0458 309.741 31.5486 308.557 31.1707L307.341 34.9813ZM309.145 35.796C309.145 35.5948 309.183 35.4126 309.166 35.5123C309.165 35.5174 309.162 35.5366 309.154 35.5764C309.14 35.6534 309.116 35.7721 309.083 35.9369C309.017 36.2644 308.917 36.7492 308.783 37.3941C308.515 38.6825 308.111 40.595 307.573 43.1331C306.497 48.2086 304.882 55.7778 302.729 65.8415L306.64 66.6785C308.794 56.6142 310.409 49.0421 311.486 43.9629C312.025 41.4237 312.429 39.5055 312.699 38.2099C312.834 37.5627 312.936 37.0673 313.004 36.7261C313.039 36.5566 313.066 36.4188 313.085 36.3173C313.094 36.2679 313.103 36.2174 313.111 36.1721C313.115 36.1505 313.12 36.1183 313.125 36.0823C313.127 36.0645 313.131 36.0356 313.134 36.0007C313.137 35.9781 313.145 35.8979 313.145 35.796H309.145ZM313.8 66.26L311.844 65.8444L311.33 68.26H313.8V66.26ZM321.008 32.328V30.328H319.388L319.052 31.9124L321.008 32.328ZM365.616 33.076L366.187 31.1592L366.186 31.1589L365.616 33.076ZM368.812 35.796L370.769 36.2075L370.812 36.004V35.796H368.812ZM363.236 62.316L361.279 61.9045L361.277 61.9141L361.275 61.9238L363.236 62.316ZM359.224 65.444L359.799 67.3597L359.802 67.3587L359.224 65.444ZM350.724 59.8V61.8H352.342L352.68 60.2178L350.724 59.8ZM355.212 38.788L357.168 39.2058L357.684 36.788H355.212V38.788ZM332.636 38.788V36.788H331.018L330.68 38.3702L332.636 38.788ZM328.148 59.8L326.192 59.3822L325.676 61.8H328.148V59.8ZM353.716 64.26H313.8V68.26H353.716V64.26ZM315.756 66.6756L322.964 32.7436L319.052 31.9124L311.844 65.8444L315.756 66.6756ZM321.008 34.328H360.924V30.328H321.008V34.328ZM360.924 34.328C362.147 34.328 363.517 34.5385 365.046 34.9931L366.186 31.1589C364.36 30.6162 362.603 30.328 360.924 30.328V34.328ZM365.045 34.9928C365.983 35.2722 366.484 35.557 366.717 35.7551C366.895 35.9067 366.812 35.9039 366.812 35.796H370.812C370.812 34.5094 370.196 33.4639 369.309 32.7089C368.477 32.0003 367.379 31.5144 366.187 31.1592L365.045 34.9928ZM368.812 35.796C366.855 35.3845 366.855 35.3845 366.855 35.3846C366.855 35.3847 366.855 35.3848 366.855 35.3849C366.855 35.385 366.855 35.3852 366.855 35.3854C366.854 35.3856 366.854 35.3858 366.854 35.3861C366.854 35.3864 366.854 35.3867 366.854 35.387C366.854 35.3874 366.854 35.3877 366.854 35.3881C366.854 35.3885 366.854 35.389 366.854 35.3894C366.854 35.3899 366.853 35.3904 366.853 35.391C366.853 35.3936 366.852 35.3953 366.852 35.3991C366.852 35.3995 366.851 35.4035 366.851 35.4043C366.85 35.4053 366.85 35.4062 366.85 35.4072C366.85 35.4083 366.85 35.4093 366.849 35.4104C366.848 35.4173 366.845 35.4315 366.842 35.4428C366.841 35.4512 366.84 35.4543 366.838 35.4638C366.837 35.4707 366.837 35.4683 366.836 35.4755C366.835 35.4776 366.835 35.4796 366.834 35.4817C366.834 35.4838 366.833 35.4859 366.833 35.4881C366.832 35.4902 366.832 35.4924 366.832 35.4947C366.831 35.4969 366.831 35.4991 366.83 35.5014C366.83 35.5037 366.829 35.5061 366.829 35.5084C366.828 35.5108 366.828 35.5132 366.827 35.5156C366.824 35.5323 366.824 35.5286 366.821 35.5463C366.817 35.5661 366.811 35.5935 366.806 35.6176C366.792 35.6831 366.803 35.6318 366.788 35.7017C366.778 35.7487 366.788 35.7006 366.778 35.7487C366.771 35.7811 366.775 35.7654 366.768 35.7989C366.727 35.992 366.714 36.0546 366.659 36.3168C366.629 36.4562 366.621 36.4968 366.588 36.6535C366.562 36.7754 366.575 36.7151 366.548 36.8413C366.546 36.8539 366.51 37.025 366.506 37.042C366.486 37.1392 366.438 37.3678 366.414 37.4823C366.381 37.6366 366.346 37.8027 366.31 37.9743C366.208 38.4588 366.187 38.5603 366.071 39.1139C366.038 39.2704 366.038 39.2702 366.004 39.4311C365.975 39.567 365.998 39.4576 365.97 39.5946C365.959 39.643 365.945 39.7118 365.934 39.7613C365.925 39.8073 365.873 40.0542 365.862 40.1045C365.835 40.2321 365.815 40.3286 365.787 40.4606C365.762 40.5825 365.775 40.5205 365.749 40.6435C365.745 40.6639 365.734 40.7154 365.73 40.7362C365.726 40.7517 365.723 40.7672 365.72 40.7828C365.716 40.7984 365.713 40.814 365.71 40.8296C365.673 41.006 365.668 41.031 365.63 41.2116C365.57 41.497 365.524 41.7119 365.461 42.0145C365.408 42.2642 365.426 42.1813 365.372 42.4353C365.318 42.6942 365.336 42.606 365.281 42.8691C365.277 42.8875 365.273 42.9059 365.269 42.9243C365.266 42.9427 365.262 42.9611 365.258 42.9796C365.254 42.9981 365.25 43.0166 365.246 43.0351C365.242 43.0537 365.238 43.0723 365.234 43.0909C365.187 43.3154 365.235 43.0903 365.187 43.3159C365.171 43.3924 365.107 43.6947 365.09 43.7756C365.058 43.93 365.024 44.0895 364.991 44.2482C364.987 44.2682 364.983 44.2882 364.978 44.3082C364.974 44.3282 364.97 44.3483 364.966 44.3684C364.962 44.3885 364.957 44.4086 364.953 44.4288C364.949 44.449 364.945 44.4692 364.94 44.4894C364.906 44.6514 364.923 44.5708 364.889 44.7338C364.858 44.8824 364.816 45.0795 364.784 45.2324C364.756 45.3652 364.705 45.6067 364.677 45.7439C364.575 46.2285 364.559 46.3037 364.453 46.8057C364.431 46.9117 364.361 47.2457 364.338 47.356C364.316 47.4591 364.301 47.5319 364.279 47.6361C364.263 47.7103 364.265 47.7027 364.249 47.7773C364.244 47.8009 364.239 47.8245 364.234 47.8482C364.229 47.8719 364.224 47.8956 364.219 47.9193C364.151 48.2432 364.167 48.1674 364.098 48.4956C364.047 48.739 364.088 48.544 364.036 48.7885C364.025 48.8436 364.017 48.881 364.005 48.9362C363.999 48.9648 363.98 49.056 363.974 49.0848C363.969 49.1096 363.964 49.1344 363.958 49.1593C363.953 49.1842 363.948 49.2091 363.943 49.2341C363.929 49.3 363.925 49.318 363.911 49.3842C363.863 49.6154 363.896 49.4546 363.848 49.6869C363.831 49.764 363.832 49.7621 363.815 49.8395C363.814 49.8484 363.785 49.9836 363.783 49.9928C363.783 49.9938 363.719 50.2999 363.718 50.302C363.681 50.4779 363.69 50.4374 363.653 50.6144C363.627 50.7358 363.645 50.6501 363.619 50.7718C363.614 50.7981 363.608 50.8244 363.603 50.8508C363.597 50.8772 363.592 50.9036 363.586 50.93C363.582 50.9522 363.524 51.2257 363.519 51.2489C363.486 51.4087 363.485 51.4102 363.451 51.571C363.423 51.7069 363.446 51.5971 363.417 51.7333C363.405 51.792 363.395 51.8374 363.383 51.8964C363.374 51.941 363.324 52.1792 363.314 52.2249C363.279 52.3895 363.279 52.3911 363.244 52.5568C363.21 52.719 363.243 52.5614 363.209 52.7239C363.199 52.7731 363.184 52.8423 363.174 52.8918C363.164 52.9377 363.112 53.1831 363.103 53.2301C363.072 53.3768 363.062 53.4239 363.031 53.5717C363.025 53.6003 363.019 53.6289 363.013 53.6576C363.007 53.6862 363.001 53.7149 362.995 53.7436C362.989 53.7724 362.983 53.8011 362.976 53.8299C362.97 53.8587 362.964 53.8876 362.958 53.9164C362.929 54.0548 362.914 54.125 362.885 54.2644C362.875 54.3132 362.822 54.5658 362.811 54.6157C362.805 54.6451 362.799 54.6745 362.793 54.704C362.786 54.7335 362.78 54.763 362.774 54.7925C362.768 54.8221 362.762 54.8516 362.755 54.8813C362.749 54.9109 362.743 54.9405 362.737 54.9702C362.701 55.1381 362.697 55.1589 362.661 55.3279C362.659 55.3389 362.588 55.6768 362.586 55.6889C362.579 55.7191 362.573 55.7493 362.567 55.7796C362.56 55.8099 362.554 55.8402 362.547 55.8706C362.541 55.9009 362.535 55.9313 362.528 55.9617C362.522 55.9921 362.515 56.0226 362.509 56.0531C362.47 56.2386 362.471 56.2338 362.432 56.4205C362.387 56.632 362.321 56.9492 362.275 57.1651C362.227 57.3962 362.245 57.31 362.196 57.5422C362.144 57.7879 362.168 57.6759 362.116 57.9226C362.109 57.9544 362.103 57.9863 362.096 58.0182C362.089 58.0501 362.082 58.082 362.076 58.114C362.069 58.146 362.062 58.178 362.056 58.21C362.049 58.242 362.042 58.2741 362.035 58.3062C361.983 58.557 362.007 58.4412 361.954 58.6931C361.901 58.9441 361.843 59.2211 361.789 59.4765C361.782 59.5094 361.775 59.5424 361.768 59.5753C361.762 59.6083 361.755 59.6413 361.748 59.6744C361.741 59.7074 361.734 59.7405 361.727 59.7736C361.72 59.8067 361.713 59.8399 361.706 59.8731C361.658 60.1025 361.67 60.0424 361.622 60.2729C361.549 60.6208 361.526 60.73 361.452 61.0822C361.417 61.2493 361.315 61.7331 361.279 61.9045L365.193 62.7275C365.195 62.7201 365.279 62.3211 365.28 62.3148C365.287 62.2805 365.294 62.2463 365.302 62.2121C365.309 62.1779 365.316 62.1437 365.323 62.1096C365.33 62.0755 365.337 62.0414 365.345 62.0073C365.352 61.9733 365.359 61.9392 365.366 61.9052C365.386 61.8108 365.389 61.7959 365.409 61.7017C365.416 61.6678 365.423 61.634 365.43 61.6002C365.437 61.5664 365.444 61.5327 365.451 61.499C365.454 61.485 365.533 61.1088 365.536 61.0959C365.538 61.0891 365.577 60.9021 365.578 60.8956C365.583 60.873 365.616 60.7185 365.62 60.6961C365.643 60.5897 365.64 60.6036 365.662 60.4974C365.669 60.4644 365.676 60.4314 365.683 60.3984C365.69 60.3654 365.697 60.3324 365.704 60.2995C365.707 60.2843 365.742 60.1175 365.745 60.1025C365.752 60.0697 365.759 60.0369 365.766 60.0042C365.773 59.9715 365.779 59.9388 365.786 59.9062C365.814 59.7757 365.8 59.8409 365.827 59.7108C365.834 59.6782 365.841 59.6458 365.848 59.6133C365.855 59.5809 365.862 59.5485 365.868 59.5161C365.875 59.4837 365.882 59.4514 365.889 59.4191C365.896 59.3868 365.902 59.3545 365.909 59.3223C365.935 59.1999 365.924 59.2514 365.95 59.1292C366.004 58.873 365.977 59.0008 366.03 58.7456C366.057 58.6184 366.044 58.682 366.07 58.555C366.077 58.5233 366.084 58.4917 366.09 58.46C366.097 58.4284 366.104 58.3968 366.11 58.3652C366.117 58.3337 366.124 58.3022 366.13 58.2707C366.137 58.2392 366.143 58.2077 366.15 58.1763C366.175 58.057 366.165 58.1071 366.19 57.9881C366.24 57.7507 366.219 57.8505 366.268 57.6142C366.294 57.4902 366.281 57.5521 366.307 57.4285C366.324 57.3473 366.329 57.3244 366.346 57.2435C366.352 57.2178 366.38 57.0849 366.385 57.0594C366.409 56.9431 366.399 56.9921 366.423 56.8761C366.475 56.6329 366.449 56.754 366.5 56.5119C366.525 56.3912 366.513 56.4515 366.538 56.331C366.552 56.2649 366.562 56.2167 366.576 56.1509C366.582 56.121 366.589 56.0911 366.595 56.0612C366.601 56.0313 366.607 56.0015 366.614 55.9717C366.639 55.8525 366.626 55.9121 366.651 55.7932C366.684 55.6381 366.768 55.2382 366.799 55.0875C366.806 55.0583 366.812 55.0292 366.818 55.0002C366.824 54.9711 366.83 54.9421 366.836 54.9131C366.861 54.7972 366.848 54.8551 366.873 54.7395C366.907 54.578 366.911 54.5551 366.945 54.3947C366.965 54.3003 366.961 54.3177 366.981 54.2235C366.987 54.1951 366.993 54.1666 366.999 54.1382C367.005 54.1098 367.011 54.0815 367.017 54.0532C367.023 54.0248 367.029 53.9965 367.035 53.9683C367.041 53.94 367.047 53.9118 367.053 53.8836C367.072 53.7905 367.069 53.8077 367.088 53.7149C367.259 52.9033 367.477 51.8675 367.633 51.125C367.839 50.1427 367.942 49.6556 368.134 48.7424C368.199 48.4299 368.187 48.4872 368.252 48.1791C368.288 48.01 368.275 48.0702 368.31 47.9023C368.326 47.8266 368.323 47.8405 368.339 47.7651C368.344 47.7423 368.349 47.7195 368.353 47.6968C368.358 47.6741 368.363 47.6514 368.368 47.6287C368.373 47.6061 368.377 47.5834 368.382 47.5608C368.387 47.5382 368.392 47.5157 368.396 47.4932C368.414 47.411 368.407 47.4403 368.425 47.3584C368.456 47.2108 368.45 47.2379 368.481 47.0913C368.488 47.0588 368.585 46.5951 368.591 46.5669C368.624 46.4097 368.612 46.4656 368.645 46.3095C368.661 46.2318 368.656 46.2595 368.672 46.1821C368.676 46.1609 368.681 46.1397 368.685 46.1186C368.69 46.0975 368.694 46.0764 368.699 46.0554C368.7 46.047 368.75 45.8118 368.751 45.8045C368.754 45.7896 368.8 45.5707 368.803 45.5569C368.81 45.5266 368.9 45.0972 368.905 45.0713C368.91 45.0513 368.914 45.0314 368.918 45.0115C368.922 44.9916 368.926 44.9717 368.931 44.9519C368.935 44.9321 368.939 44.9123 368.943 44.8925C368.947 44.8727 368.951 44.853 368.956 44.8333C368.957 44.8264 368.979 44.7222 368.98 44.7156C368.984 44.696 368.988 44.6765 368.993 44.657C368.997 44.6375 369.001 44.618 369.005 44.5986C369.013 44.5602 369.046 44.4045 369.054 44.3671C369.058 44.348 369.062 44.3289 369.066 44.3098C369.07 44.2907 369.074 44.2716 369.078 44.2526C369.082 44.2336 369.086 44.2146 369.09 44.1957C369.094 44.1767 369.098 44.1578 369.102 44.1389C369.115 44.0766 369.112 44.0881 369.125 44.026C369.129 44.0073 369.133 43.9885 369.137 43.9699C369.141 43.9512 369.145 43.9325 369.149 43.9139C369.169 43.8185 369.176 43.7865 369.195 43.6922C369.224 43.5586 369.214 43.6062 369.241 43.4736C369.251 43.4293 369.278 43.3017 369.287 43.2584C369.296 43.2132 369.3 43.1969 369.309 43.1519C369.321 43.0936 369.319 43.1044 369.331 43.0463C369.358 42.9187 369.349 42.9641 369.375 42.8375C369.631 41.6184 369.787 40.8798 369.985 39.9369C369.99 39.9137 370.045 39.6514 370.049 39.6326C370.087 39.4531 370.073 39.5164 370.11 39.3412C370.119 39.3008 370.22 38.8206 370.225 38.7974C370.231 38.7659 370.272 38.572 370.278 38.5448C370.28 38.5346 370.282 38.5244 370.284 38.5142C370.286 38.504 370.288 38.4939 370.291 38.4837C370.296 38.4583 370.298 38.4487 370.303 38.4234C370.305 38.4135 370.307 38.4035 370.31 38.3936C370.312 38.3837 370.314 38.3738 370.316 38.364C370.321 38.3407 370.323 38.3283 370.328 38.3053C370.34 38.2509 370.365 38.1287 370.376 38.0787C370.406 37.9341 370.391 38.0053 370.421 37.865C370.477 37.598 370.45 37.7263 370.502 37.4765C370.532 37.3377 370.511 37.4362 370.539 37.3017C370.551 37.2462 370.545 37.2737 370.556 37.2192C370.56 37.2041 370.57 37.1539 370.573 37.1399C370.591 37.056 370.619 36.9215 370.633 36.855C370.646 36.7921 370.672 36.6675 370.682 36.6219C370.732 36.3839 370.712 36.48 370.747 36.3111C370.755 36.2758 370.76 36.2515 370.764 36.2334C370.767 36.2182 370.766 36.2248 370.768 36.214C370.768 36.2114 370.768 36.2107 370.769 36.2091C370.769 36.2085 370.769 36.2083 370.769 36.2079C370.769 36.2078 370.769 36.2077 370.769 36.2076C370.769 36.2075 370.769 36.2075 368.812 35.796ZM361.275 61.9238C361.237 62.1151 360.921 62.8425 358.646 63.5293L359.802 67.3587C362.332 66.5948 364.691 65.2369 365.197 62.7082L361.275 61.9238ZM358.649 63.5283C357.019 64.0175 355.376 64.26 353.716 64.26V68.26C355.773 68.26 357.802 67.9585 359.799 67.3597L358.649 63.5283ZM352.68 60.2178L357.168 39.2058L353.256 38.3702L348.768 59.3822L352.68 60.2178ZM355.212 36.788H332.636V40.788H355.212V36.788ZM330.68 38.3702L326.192 59.3822L330.104 60.2178L334.592 39.2058L330.68 38.3702ZM328.148 61.8H350.724V57.8H328.148V61.8Z" fill="url(#paint2_linear_186_2921)"/>
</g>
<path d="M74.016 73.06V75.06H75.7377L75.9938 73.3574L74.016 73.06ZM25.464 73.06L23.4866 72.7601L23.1378 75.06H25.464V73.06ZM32.672 25.528V23.528H30.9524L30.6946 25.2281L32.672 25.528ZM45.592 25.528L47.5693 25.8284L47.9188 23.528H45.592V25.528ZM39.744 64.016L37.7667 63.7156L37.4172 66.016H39.744V64.016ZM75.376 64.016L77.3538 64.3134L77.6992 62.016H75.376V64.016ZM74.016 71.06H25.464V75.06H74.016V71.06ZM27.4414 73.3599L34.6494 25.8279L30.6946 25.2281L23.4866 72.7601L27.4414 73.3599ZM32.672 27.528H45.592V23.528H32.672V27.528ZM43.6147 25.2276L37.7667 63.7156L41.7213 64.3164L47.5693 25.8284L43.6147 25.2276ZM39.744 66.016H75.376V62.016H39.744V66.016ZM73.3982 63.7186L72.0382 72.7626L75.9938 73.3574L77.3538 64.3134L73.3982 63.7186ZM131.683 66.26V68.26H133.306L133.64 66.672L131.683 66.26ZM83.1312 66.26L81.1748 65.8444L80.6617 68.26H83.1312V66.26ZM90.3392 32.328V30.328H88.7194L88.3828 31.9124L90.3392 32.328ZM138.891 32.328L140.848 32.74L141.356 30.328H138.891V32.328ZM137.531 38.788V40.788H139.154L139.488 39.2L137.531 38.788ZM101.831 38.788V36.788H100.213L99.8753 38.3702L101.831 38.788ZM100.335 45.792L98.3793 45.3742L97.8629 47.792H100.335V45.792ZM123.047 45.792L125.004 46.204L125.512 43.792H123.047V45.792ZM121.687 52.252V54.252H123.31L123.644 52.664L121.687 52.252ZM98.9752 52.252V50.252H97.3471L97.0168 51.8462L98.9752 52.252ZM97.4112 59.8L95.4528 59.3942L94.9543 61.8H97.4112V59.8ZM133.043 59.8L135 60.212L135.508 57.8H133.043V59.8ZM131.683 64.26H83.1312V68.26H131.683V64.26ZM85.0875 66.6756L92.2955 32.7436L88.3828 31.9124L81.1748 65.8444L85.0875 66.6756ZM90.3392 34.328H138.891V30.328H90.3392V34.328ZM136.934 31.916L135.574 38.376L139.488 39.2L140.848 32.74L136.934 31.916ZM137.531 36.788H101.831V40.788H137.531V36.788ZM99.8753 38.3702L98.3793 45.3742L102.291 46.2098L103.787 39.2058L99.8753 38.3702ZM100.335 47.792H123.047V43.792H100.335V47.792ZM121.09 45.38L119.73 51.84L123.644 52.664L125.004 46.204L121.09 45.38ZM121.687 50.252H98.9752V54.252H121.687V50.252ZM97.0168 51.8462L95.4528 59.3942L99.3696 60.2058L100.934 52.6578L97.0168 51.8462ZM97.4112 61.8H133.043V57.8H97.4112V61.8ZM131.086 59.388L129.726 65.848L133.64 66.672L135 60.212L131.086 59.388ZM144.334 65.512L145.018 63.6324L145.007 63.6285L144.334 65.512ZM147.122 36.34L149.078 36.7604L149.079 36.7528L149.081 36.7452L147.122 36.34ZM151.134 33.212L151.745 35.1164L151.753 35.1141L151.134 33.212ZM192.614 33.076L191.999 34.9789L192.006 34.9813L192.614 33.076ZM194.722 41.168V43.168H196.341L196.678 41.5853L194.722 41.168ZM181.734 41.168L179.785 40.7223L179.226 43.168H181.734V41.168ZM182.278 38.788L184.228 39.2336L184.787 36.788H182.278V38.788ZM159.498 38.788V36.788H157.875L157.541 38.3763L159.498 38.788ZM155.078 59.8L153.121 59.3883L152.614 61.8H155.078V59.8ZM177.79 59.8V61.8H179.404L179.745 60.2227L177.79 59.8ZM179.422 52.252L181.377 52.6747L181.901 50.252H179.422V52.252ZM170.378 52.252L168.421 51.84L167.913 54.252H170.378V52.252ZM171.738 45.792V43.792H170.116L169.781 45.38L171.738 45.792ZM193.702 45.792L195.66 46.2028L196.166 43.792H193.702V45.792ZM190.234 62.316L192.19 62.7351L192.192 62.7268L190.234 62.316ZM186.494 65.376L185.839 63.4865L185.834 63.4883L186.494 65.376ZM181.326 64.328H148.754V68.328H181.326V64.328ZM148.754 64.328C147.558 64.328 146.316 64.1045 145.018 63.6324L143.651 67.3916C145.345 68.0075 147.049 68.328 148.754 68.328V64.328ZM145.007 63.6285C144.199 63.3398 143.78 63.0603 143.589 62.8739C143.503 62.7899 143.482 62.7426 143.48 62.7381C143.478 62.7348 143.479 62.7352 143.479 62.7373C143.479 62.7392 143.478 62.7357 143.478 62.724H139.478C139.478 65.2656 141.596 66.6576 143.662 67.3955L145.007 63.6285ZM143.478 62.724C143.478 62.8145 143.472 62.8847 143.47 62.907C143.467 62.9386 143.464 62.9636 143.462 62.9775C143.458 63.0054 143.455 63.0262 143.454 63.0334C143.451 63.0495 143.45 63.0587 143.45 63.0543C143.452 63.0481 143.455 63.0304 143.462 62.9963C143.475 62.9303 143.496 62.8287 143.525 62.6883C143.583 62.4091 143.67 61.993 143.788 61.4383C144.022 60.3297 144.375 58.6767 144.845 56.4784C145.786 52.0821 147.196 45.5096 149.078 36.7604L145.167 35.9196C143.286 44.669 141.875 51.2432 140.934 55.6416C140.463 57.8406 140.11 59.4969 139.875 60.6097C139.757 61.1657 139.668 61.5882 139.608 61.8757C139.579 62.0187 139.555 62.1323 139.539 62.2137C139.531 62.2533 139.524 62.2922 139.517 62.3257C139.514 62.3411 139.51 62.3659 139.506 62.3933C139.503 62.4062 139.499 62.4317 139.495 62.4631C139.493 62.4787 139.49 62.5052 139.487 62.5381C139.485 62.5616 139.478 62.6328 139.478 62.724H143.478ZM149.081 36.7452C149.114 36.5868 149.435 35.8574 151.745 35.1164L150.524 31.3076C148.028 32.108 145.675 33.4639 145.164 35.9348L149.081 36.7452ZM151.753 35.1141C153.377 34.5863 154.982 34.328 156.574 34.328V30.328C154.541 30.328 152.519 30.6591 150.516 31.3099L151.753 35.1141ZM156.574 34.328H187.922V30.328H156.574V34.328ZM187.922 34.328C189.296 34.328 190.652 34.5432 191.999 34.9789L193.23 31.1731C191.494 30.6115 189.722 30.328 187.922 30.328V34.328ZM192.006 34.9813C192.953 35.2834 193.469 35.5795 193.715 35.7891C193.915 35.9594 193.81 35.9504 193.81 35.796H197.81C197.81 34.5083 197.173 33.4793 196.308 32.7429C195.488 32.0458 194.407 31.5486 193.222 31.1707L192.006 34.9813ZM193.81 35.796C193.81 35.6355 193.834 35.5243 193.817 35.6324C193.81 35.6789 193.797 35.7563 193.775 35.872C193.733 36.1009 193.668 36.4342 193.578 36.878C193.399 37.763 193.129 39.0526 192.766 40.7507L196.678 41.5853C197.041 39.8834 197.315 38.5777 197.499 37.672C197.59 37.2204 197.661 36.8596 197.709 36.5955C197.733 36.4647 197.754 36.3459 197.77 36.2464C197.776 36.2087 197.81 36.0019 197.81 35.796H193.81ZM194.722 39.168H181.734V43.168H194.722V39.168ZM183.684 41.6136L184.228 39.2336L180.329 38.3423L179.785 40.7223L183.684 41.6136ZM182.278 36.788H159.498V40.788H182.278V36.788ZM157.541 38.3763L153.121 59.3883L157.036 60.2117L161.456 39.1997L157.541 38.3763ZM155.078 61.8H177.79V57.8H155.078V61.8ZM179.745 60.2227L181.377 52.6747L177.468 51.8293L175.836 59.3773L179.745 60.2227ZM179.422 50.252H170.378V54.252H179.422V50.252ZM172.335 52.664L173.695 46.204L169.781 45.38L168.421 51.84L172.335 52.664ZM171.738 47.792H193.702V43.792H171.738V47.792ZM191.745 45.3812L188.277 61.9052L192.192 62.7268L195.66 46.2028L191.745 45.3812ZM188.279 61.8969C188.241 62.0714 187.93 62.761 185.839 63.4865L187.15 67.2655C189.502 66.4496 191.683 65.0993 192.19 62.7351L188.279 61.8969ZM185.834 63.4883C184.196 64.0615 182.698 64.328 181.326 64.328V68.328C183.219 68.328 185.166 67.9598 187.155 67.2637L185.834 63.4883ZM247.018 66.26V68.26H248.64L248.975 66.672L247.018 66.26ZM198.466 66.26L196.509 65.8444L195.996 68.26H198.466V66.26ZM205.674 32.328V30.328H204.054L203.717 31.9124L205.674 32.328ZM254.226 32.328L256.183 32.74L256.69 30.328H254.226V32.328ZM252.866 38.788V40.788H254.488L254.823 39.2L252.866 38.788ZM217.166 38.788V36.788H215.548L215.21 38.3702L217.166 38.788ZM215.67 45.792L213.714 45.3742L213.197 47.792H215.67V45.792ZM238.382 45.792L240.339 46.204L240.846 43.792H238.382V45.792ZM237.022 52.252V54.252H238.644L238.979 52.664L237.022 52.252ZM214.31 52.252V50.252H212.681L212.351 51.8462L214.31 52.252ZM212.746 59.8L210.787 59.3942L210.289 61.8H212.746V59.8ZM248.378 59.8L250.335 60.212L250.842 57.8H248.378V59.8ZM247.018 64.26H198.466V68.26H247.018V64.26ZM200.422 66.6756L207.63 32.7436L203.717 31.9124L196.509 65.8444L200.422 66.6756ZM205.674 34.328H254.226V30.328H205.674V34.328ZM252.268 31.916L250.908 38.376L254.823 39.2L256.183 32.74L252.268 31.916ZM252.866 36.788H217.166V40.788H252.866V36.788ZM215.21 38.3702L213.714 45.3742L217.625 46.2098L219.121 39.2058L215.21 38.3702ZM215.67 47.792H238.382V43.792H215.67V47.792ZM236.424 45.38L235.064 51.84L238.979 52.664L240.339 46.204L236.424 45.38ZM237.022 50.252H214.31V54.252H237.022V50.252ZM212.351 51.8462L210.787 59.3942L214.704 60.2058L216.268 52.6578L212.351 51.8462ZM212.746 61.8H248.378V57.8H212.746V61.8ZM246.42 59.388L245.06 65.848L248.975 66.672L250.335 60.212L246.42 59.388ZM304.685 66.26V68.26H306.302L306.64 66.6785L304.685 66.26ZM291.765 66.26L289.809 65.8436L289.294 68.26H291.765V66.26ZM297.613 38.788L299.569 39.2044L300.083 36.788H297.613V38.788ZM274.833 38.788V36.788H273.214L272.877 38.3716L274.833 38.788ZM268.985 66.26V68.26H270.604L270.941 66.6764L268.985 66.26ZM256.133 66.26L254.176 65.8444L253.663 68.26H256.133V66.26ZM263.341 32.328V30.328H261.721L261.384 31.9124L263.341 32.328ZM307.949 33.076L308.557 31.1707L308.548 31.168L307.949 33.076ZM304.685 64.26H291.765V68.26H304.685V64.26ZM293.721 66.6764L299.569 39.2044L295.657 38.3716L289.809 65.8436L293.721 66.6764ZM297.613 36.788H274.833V40.788H297.613V36.788ZM272.877 38.3716L267.029 65.8436L270.941 66.6764L276.789 39.2044L272.877 38.3716ZM268.985 64.26H256.133V68.26H268.985V64.26ZM258.089 66.6756L265.297 32.7436L261.384 31.9124L254.176 65.8444L258.089 66.6756ZM263.341 34.328H303.257V30.328H263.341V34.328ZM303.257 34.328C304.579 34.328 305.941 34.5415 307.349 34.984L308.548 31.168C306.783 30.6132 305.017 30.328 303.257 30.328V34.328ZM307.341 34.9813C308.287 35.2834 308.803 35.5795 309.049 35.7891C309.25 35.9594 309.145 35.9504 309.145 35.796H313.145C313.145 34.5083 312.507 33.4793 311.642 32.7429C310.823 32.0458 309.741 31.5486 308.557 31.1707L307.341 34.9813ZM309.145 35.796C309.145 35.5948 309.183 35.4126 309.166 35.5123C309.165 35.5174 309.162 35.5366 309.154 35.5764C309.14 35.6534 309.116 35.7721 309.083 35.9369C309.017 36.2644 308.917 36.7492 308.783 37.3941C308.515 38.6825 308.111 40.595 307.573 43.1331C306.497 48.2086 304.882 55.7778 302.729 65.8415L306.64 66.6785C308.794 56.6142 310.409 49.0421 311.486 43.9629C312.025 41.4237 312.429 39.5055 312.699 38.2099C312.834 37.5627 312.936 37.0673 313.004 36.7261C313.039 36.5566 313.066 36.4188 313.085 36.3173C313.094 36.2679 313.103 36.2174 313.111 36.1721C313.115 36.1505 313.12 36.1183 313.125 36.0823C313.127 36.0645 313.131 36.0356 313.134 36.0007C313.137 35.9781 313.145 35.8979 313.145 35.796H309.145ZM313.8 66.26L311.844 65.8444L311.33 68.26H313.8V66.26ZM321.008 32.328V30.328H319.388L319.052 31.9124L321.008 32.328ZM365.616 33.076L366.187 31.1592L366.186 31.1589L365.616 33.076ZM368.812 35.796L370.769 36.2075L370.812 36.004V35.796H368.812ZM363.236 62.316L361.279 61.9045L361.277 61.9141L361.275 61.9238L363.236 62.316ZM359.224 65.444L359.799 67.3597L359.802 67.3587L359.224 65.444ZM350.724 59.8V61.8H352.342L352.68 60.2178L350.724 59.8ZM355.212 38.788L357.168 39.2058L357.684 36.788H355.212V38.788ZM332.636 38.788V36.788H331.018L330.68 38.3702L332.636 38.788ZM328.148 59.8L326.192 59.3822L325.676 61.8H328.148V59.8ZM353.716 64.26H313.8V68.26H353.716V64.26ZM315.756 66.6756L322.964 32.7436L319.052 31.9124L311.844 65.8444L315.756 66.6756ZM321.008 34.328H360.924V30.328H321.008V34.328ZM360.924 34.328C362.147 34.328 363.517 34.5385 365.046 34.9931L366.186 31.1589C364.36 30.6162 362.603 30.328 360.924 30.328V34.328ZM365.045 34.9928C365.983 35.2722 366.484 35.557 366.717 35.7551C366.895 35.9067 366.812 35.9039 366.812 35.796H370.812C370.812 34.5094 370.196 33.4639 369.309 32.7089C368.477 32.0003 367.379 31.5144 366.187 31.1592L365.045 34.9928ZM368.812 35.796C366.855 35.3845 366.855 35.3845 366.855 35.3846C366.855 35.3847 366.855 35.3848 366.855 35.3849C366.855 35.385 366.855 35.3852 366.855 35.3854C366.854 35.3856 366.854 35.3858 366.854 35.3861C366.854 35.3864 366.854 35.3867 366.854 35.387C366.854 35.3874 366.854 35.3877 366.854 35.3881C366.854 35.3885 366.854 35.389 366.854 35.3894C366.854 35.3899 366.853 35.3904 366.853 35.391C366.853 35.3936 366.852 35.3953 366.852 35.3991C366.852 35.3995 366.851 35.4035 366.851 35.4043C366.85 35.4053 366.85 35.4062 366.85 35.4072C366.85 35.4083 366.85 35.4093 366.849 35.4104C366.848 35.4173 366.845 35.4315 366.842 35.4428C366.841 35.4512 366.84 35.4543 366.838 35.4638C366.837 35.4707 366.837 35.4683 366.836 35.4755C366.835 35.4776 366.835 35.4796 366.834 35.4817C366.834 35.4838 366.833 35.4859 366.833 35.4881C366.832 35.4902 366.832 35.4924 366.832 35.4947C366.831 35.4969 366.831 35.4991 366.83 35.5014C366.83 35.5037 366.829 35.5061 366.829 35.5084C366.828 35.5108 366.828 35.5132 366.827 35.5156C366.824 35.5323 366.824 35.5286 366.821 35.5463C366.817 35.5661 366.811 35.5935 366.806 35.6176C366.792 35.6831 366.803 35.6318 366.788 35.7017C366.778 35.7487 366.788 35.7006 366.778 35.7487C366.771 35.7811 366.775 35.7654 366.768 35.7989C366.727 35.992 366.714 36.0546 366.659 36.3168C366.629 36.4562 366.621 36.4968 366.588 36.6535C366.562 36.7754 366.575 36.7151 366.548 36.8413C366.546 36.8539 366.51 37.025 366.506 37.042C366.486 37.1392 366.438 37.3678 366.414 37.4823C366.381 37.6366 366.346 37.8027 366.31 37.9743C366.208 38.4588 366.187 38.5603 366.071 39.1139C366.038 39.2704 366.038 39.2702 366.004 39.4311C365.975 39.567 365.998 39.4576 365.97 39.5946C365.959 39.643 365.945 39.7118 365.934 39.7613C365.925 39.8073 365.873 40.0542 365.862 40.1045C365.835 40.2321 365.815 40.3286 365.787 40.4606C365.762 40.5825 365.775 40.5205 365.749 40.6435C365.745 40.6639 365.734 40.7154 365.73 40.7362C365.726 40.7517 365.723 40.7672 365.72 40.7828C365.716 40.7984 365.713 40.814 365.71 40.8296C365.673 41.006 365.668 41.031 365.63 41.2116C365.57 41.497 365.524 41.7119 365.461 42.0145C365.408 42.2642 365.426 42.1813 365.372 42.4353C365.318 42.6942 365.336 42.606 365.281 42.8691C365.277 42.8875 365.273 42.9059 365.269 42.9243C365.266 42.9427 365.262 42.9611 365.258 42.9796C365.254 42.9981 365.25 43.0166 365.246 43.0351C365.242 43.0537 365.238 43.0723 365.234 43.0909C365.187 43.3154 365.235 43.0903 365.187 43.3159C365.171 43.3924 365.107 43.6947 365.09 43.7756C365.058 43.93 365.024 44.0895 364.991 44.2482C364.987 44.2682 364.983 44.2882 364.978 44.3082C364.974 44.3282 364.97 44.3483 364.966 44.3684C364.962 44.3885 364.957 44.4086 364.953 44.4288C364.949 44.449 364.945 44.4692 364.94 44.4894C364.906 44.6514 364.923 44.5708 364.889 44.7338C364.858 44.8824 364.816 45.0795 364.784 45.2324C364.756 45.3652 364.705 45.6067 364.677 45.7439C364.575 46.2285 364.559 46.3037 364.453 46.8057C364.431 46.9117 364.361 47.2457 364.338 47.356C364.316 47.4591 364.301 47.5319 364.279 47.6361C364.263 47.7103 364.265 47.7027 364.249 47.7773C364.244 47.8009 364.239 47.8245 364.234 47.8482C364.229 47.8719 364.224 47.8956 364.219 47.9193C364.151 48.2432 364.167 48.1674 364.098 48.4956C364.047 48.739 364.088 48.544 364.036 48.7885C364.025 48.8436 364.017 48.881 364.005 48.9362C363.999 48.9648 363.98 49.056 363.974 49.0848C363.969 49.1096 363.964 49.1344 363.958 49.1593C363.953 49.1842 363.948 49.2091 363.943 49.2341C363.929 49.3 363.925 49.318 363.911 49.3842C363.863 49.6154 363.896 49.4546 363.848 49.6869C363.831 49.764 363.832 49.7621 363.815 49.8395C363.814 49.8484 363.785 49.9836 363.783 49.9928C363.783 49.9938 363.719 50.2999 363.718 50.302C363.681 50.4779 363.69 50.4374 363.653 50.6144C363.627 50.7358 363.645 50.6501 363.619 50.7718C363.614 50.7981 363.608 50.8244 363.603 50.8508C363.597 50.8772 363.592 50.9036 363.586 50.93C363.582 50.9522 363.524 51.2257 363.519 51.2489C363.486 51.4087 363.485 51.4102 363.451 51.571C363.423 51.7069 363.446 51.5971 363.417 51.7333C363.405 51.792 363.395 51.8374 363.383 51.8964C363.374 51.941 363.324 52.1792 363.314 52.2249C363.279 52.3895 363.279 52.3911 363.244 52.5568C363.21 52.719 363.243 52.5614 363.209 52.7239C363.199 52.7731 363.184 52.8423 363.174 52.8918C363.164 52.9377 363.112 53.1831 363.103 53.2301C363.072 53.3768 363.062 53.4239 363.031 53.5717C363.025 53.6003 363.019 53.6289 363.013 53.6576C363.007 53.6862 363.001 53.7149 362.995 53.7436C362.989 53.7724 362.983 53.8011 362.976 53.8299C362.97 53.8587 362.964 53.8876 362.958 53.9164C362.929 54.0548 362.914 54.125 362.885 54.2644C362.875 54.3132 362.822 54.5658 362.811 54.6157C362.805 54.6451 362.799 54.6745 362.793 54.704C362.786 54.7335 362.78 54.763 362.774 54.7925C362.768 54.8221 362.762 54.8516 362.755 54.8813C362.749 54.9109 362.743 54.9405 362.737 54.9702C362.701 55.1381 362.697 55.1589 362.661 55.3279C362.659 55.3389 362.588 55.6768 362.586 55.6889C362.579 55.7191 362.573 55.7493 362.567 55.7796C362.56 55.8099 362.554 55.8402 362.547 55.8706C362.541 55.9009 362.535 55.9313 362.528 55.9617C362.522 55.9921 362.515 56.0226 362.509 56.0531C362.47 56.2386 362.471 56.2338 362.432 56.4205C362.387 56.632 362.321 56.9492 362.275 57.1651C362.227 57.3962 362.245 57.31 362.196 57.5422C362.144 57.7879 362.168 57.6759 362.116 57.9226C362.109 57.9544 362.103 57.9863 362.096 58.0182C362.089 58.0501 362.082 58.082 362.076 58.114C362.069 58.146 362.062 58.178 362.056 58.21C362.049 58.242 362.042 58.2741 362.035 58.3062C361.983 58.557 362.007 58.4412 361.954 58.6931C361.901 58.9441 361.843 59.2211 361.789 59.4765C361.782 59.5094 361.775 59.5424 361.768 59.5753C361.762 59.6083 361.755 59.6413 361.748 59.6744C361.741 59.7074 361.734 59.7405 361.727 59.7736C361.72 59.8067 361.713 59.8399 361.706 59.8731C361.658 60.1025 361.67 60.0424 361.622 60.2729C361.549 60.6208 361.526 60.73 361.452 61.0822C361.417 61.2493 361.315 61.7331 361.279 61.9045L365.193 62.7275C365.195 62.7201 365.279 62.3211 365.28 62.3148C365.287 62.2805 365.294 62.2463 365.302 62.2121C365.309 62.1779 365.316 62.1437 365.323 62.1096C365.33 62.0755 365.337 62.0414 365.345 62.0073C365.352 61.9733 365.359 61.9392 365.366 61.9052C365.386 61.8108 365.389 61.7959 365.409 61.7017C365.416 61.6678 365.423 61.634 365.43 61.6002C365.437 61.5664 365.444 61.5327 365.451 61.499C365.454 61.485 365.533 61.1088 365.536 61.0959C365.538 61.0891 365.577 60.9021 365.578 60.8956C365.583 60.873 365.616 60.7185 365.62 60.6961C365.643 60.5897 365.64 60.6036 365.662 60.4974C365.669 60.4644 365.676 60.4314 365.683 60.3984C365.69 60.3654 365.697 60.3324 365.704 60.2995C365.707 60.2843 365.742 60.1175 365.745 60.1025C365.752 60.0697 365.759 60.0369 365.766 60.0042C365.773 59.9715 365.779 59.9388 365.786 59.9062C365.814 59.7757 365.8 59.8409 365.827 59.7108C365.834 59.6782 365.841 59.6458 365.848 59.6133C365.855 59.5809 365.862 59.5485 365.868 59.5161C365.875 59.4837 365.882 59.4514 365.889 59.4191C365.896 59.3868 365.902 59.3545 365.909 59.3223C365.935 59.1999 365.924 59.2514 365.95 59.1292C366.004 58.873 365.977 59.0008 366.03 58.7456C366.057 58.6184 366.044 58.682 366.07 58.555C366.077 58.5233 366.084 58.4917 366.09 58.46C366.097 58.4284 366.104 58.3968 366.11 58.3652C366.117 58.3337 366.124 58.3022 366.13 58.2707C366.137 58.2392 366.143 58.2077 366.15 58.1763C366.175 58.057 366.165 58.1071 366.19 57.9881C366.24 57.7507 366.219 57.8505 366.268 57.6142C366.294 57.4902 366.281 57.5521 366.307 57.4285C366.324 57.3473 366.329 57.3244 366.346 57.2435C366.352 57.2178 366.38 57.0849 366.385 57.0594C366.409 56.9431 366.399 56.9921 366.423 56.8761C366.475 56.6329 366.449 56.754 366.5 56.5119C366.525 56.3912 366.513 56.4515 366.538 56.331C366.552 56.2649 366.562 56.2167 366.576 56.1509C366.582 56.121 366.589 56.0911 366.595 56.0612C366.601 56.0313 366.607 56.0015 366.614 55.9717C366.639 55.8525 366.626 55.9121 366.651 55.7932C366.684 55.6381 366.768 55.2382 366.799 55.0875C366.806 55.0583 366.812 55.0292 366.818 55.0002C366.824 54.9711 366.83 54.9421 366.836 54.9131C366.861 54.7972 366.848 54.8551 366.873 54.7395C366.907 54.578 366.911 54.5551 366.945 54.3947C366.965 54.3003 366.961 54.3177 366.981 54.2235C366.987 54.1951 366.993 54.1666 366.999 54.1382C367.005 54.1098 367.011 54.0815 367.017 54.0532C367.023 54.0248 367.029 53.9965 367.035 53.9683C367.041 53.94 367.047 53.9118 367.053 53.8836C367.072 53.7905 367.069 53.8077 367.088 53.7149C367.259 52.9033 367.477 51.8675 367.633 51.125C367.839 50.1427 367.942 49.6556 368.134 48.7424C368.199 48.4299 368.187 48.4872 368.252 48.1791C368.288 48.01 368.275 48.0702 368.31 47.9023C368.326 47.8266 368.323 47.8405 368.339 47.7651C368.344 47.7423 368.349 47.7195 368.353 47.6968C368.358 47.6741 368.363 47.6514 368.368 47.6287C368.373 47.6061 368.377 47.5834 368.382 47.5608C368.387 47.5382 368.392 47.5157 368.396 47.4932C368.414 47.411 368.407 47.4403 368.425 47.3584C368.456 47.2108 368.45 47.2379 368.481 47.0913C368.488 47.0588 368.585 46.5951 368.591 46.5669C368.624 46.4097 368.612 46.4656 368.645 46.3095C368.661 46.2318 368.656 46.2595 368.672 46.1821C368.676 46.1609 368.681 46.1397 368.685 46.1186C368.69 46.0975 368.694 46.0764 368.699 46.0554C368.7 46.047 368.75 45.8118 368.751 45.8045C368.754 45.7896 368.8 45.5707 368.803 45.5569C368.81 45.5266 368.9 45.0972 368.905 45.0713C368.91 45.0513 368.914 45.0314 368.918 45.0115C368.922 44.9916 368.926 44.9717 368.931 44.9519C368.935 44.9321 368.939 44.9123 368.943 44.8925C368.947 44.8727 368.951 44.853 368.956 44.8333C368.957 44.8264 368.979 44.7222 368.98 44.7156C368.984 44.696 368.988 44.6765 368.993 44.657C368.997 44.6375 369.001 44.618 369.005 44.5986C369.013 44.5602 369.046 44.4045 369.054 44.3671C369.058 44.348 369.062 44.3289 369.066 44.3098C369.07 44.2907 369.074 44.2716 369.078 44.2526C369.082 44.2336 369.086 44.2146 369.09 44.1957C369.094 44.1767 369.098 44.1578 369.102 44.1389C369.115 44.0766 369.112 44.0881 369.125 44.026C369.129 44.0073 369.133 43.9885 369.137 43.9699C369.141 43.9512 369.145 43.9325 369.149 43.9139C369.169 43.8185 369.176 43.7865 369.195 43.6922C369.224 43.5586 369.214 43.6062 369.241 43.4736C369.251 43.4293 369.278 43.3017 369.287 43.2584C369.296 43.2132 369.3 43.1969 369.309 43.1519C369.321 43.0936 369.319 43.1044 369.331 43.0463C369.358 42.9187 369.349 42.9641 369.375 42.8375C369.631 41.6184 369.787 40.8798 369.985 39.9369C369.99 39.9137 370.045 39.6514 370.049 39.6326C370.087 39.4531 370.073 39.5164 370.11 39.3412C370.119 39.3008 370.22 38.8206 370.225 38.7974C370.231 38.7659 370.272 38.572 370.278 38.5448C370.28 38.5346 370.282 38.5244 370.284 38.5142C370.286 38.504 370.288 38.4939 370.291 38.4837C370.296 38.4583 370.298 38.4487 370.303 38.4234C370.305 38.4135 370.307 38.4035 370.31 38.3936C370.312 38.3837 370.314 38.3738 370.316 38.364C370.321 38.3407 370.323 38.3283 370.328 38.3053C370.34 38.2509 370.365 38.1287 370.376 38.0787C370.406 37.9341 370.391 38.0053 370.421 37.865C370.477 37.598 370.45 37.7263 370.502 37.4765C370.532 37.3377 370.511 37.4362 370.539 37.3017C370.551 37.2462 370.545 37.2737 370.556 37.2192C370.56 37.2041 370.57 37.1539 370.573 37.1399C370.591 37.056 370.619 36.9215 370.633 36.855C370.646 36.7921 370.672 36.6675 370.682 36.6219C370.732 36.3839 370.712 36.48 370.747 36.3111C370.755 36.2758 370.76 36.2515 370.764 36.2334C370.767 36.2182 370.766 36.2248 370.768 36.214C370.768 36.2114 370.768 36.2107 370.769 36.2091C370.769 36.2085 370.769 36.2083 370.769 36.2079C370.769 36.2078 370.769 36.2077 370.769 36.2076C370.769 36.2075 370.769 36.2075 368.812 35.796ZM361.275 61.9238C361.237 62.1151 360.921 62.8425 358.646 63.5293L359.802 67.3587C362.332 66.5948 364.691 65.2369 365.197 62.7082L361.275 61.9238ZM358.649 63.5283C357.019 64.0175 355.376 64.26 353.716 64.26V68.26C355.773 68.26 357.802 67.9585 359.799 67.3597L358.649 63.5283ZM352.68 60.2178L357.168 39.2058L353.256 38.3702L348.768 59.3822L352.68 60.2178ZM355.212 36.788H332.636V40.788H355.212V36.788ZM330.68 38.3702L326.192 59.3822L330.104 60.2178L334.592 39.2058L330.68 38.3702ZM328.148 61.8H350.724V57.8H328.148V61.8Z" fill="white"/>
<defs>
<filter id="filter0_f_186_2921" x="15.4641" y="15.528" width="363.348" height="67.532" filterUnits="userSpaceOnUse" color-interpolation-filters="sRGB">
<feFlood flood-opacity="0" result="BackgroundImageFix"/>
<feBlend mode="normal" in="SourceGraphic" in2="BackgroundImageFix" result="shape"/>
<feGaussianBlur stdDeviation="5" result="effect1_foregroundBlur_186_2921"/>
</filter>
<filter id="filter1_f_186_2921" x="5.46411" y="5.52802" width="383.348" height="87.532" filterUnits="userSpaceOnUse" color-interpolation-filters="sRGB">
<feFlood flood-opacity="0" result="BackgroundImageFix"/>
<feBlend mode="normal" in="SourceGraphic" in2="BackgroundImageFix" result="shape"/>
<feGaussianBlur stdDeviation="10" result="effect1_foregroundBlur_186_2921"/>
</filter>
<filter id="filter2_f_186_2921" x="0.464111" y="0.528015" width="393.348" height="97.532" filterUnits="userSpaceOnUse" color-interpolation-filters="sRGB">
<feFlood flood-opacity="0" result="BackgroundImageFix"/>
<feBlend mode="normal" in="SourceGraphic" in2="BackgroundImageFix" result="shape"/>
<feGaussianBlur stdDeviation="12.5" result="effect1_foregroundBlur_186_2921"/>
</filter>
<linearGradient id="paint0_linear_186_2921" x1="199" y1="16" x2="199" y2="84" gradientUnits="userSpaceOnUse">
<stop stop-color="#3BEDF9"/>
<stop offset="1" stop-color="#164FFF"/>
</linearGradient>
<linearGradient id="paint1_linear_186_2921" x1="199" y1="16" x2="199" y2="84" gradientUnits="userSpaceOnUse">
<stop stop-color="#3BEDF9"/>
<stop offset="1" stop-color="#164FFF"/>
</linearGradient>
<linearGradient id="paint2_linear_186_2921" x1="199" y1="16" x2="199" y2="84" gradientUnits="userSpaceOnUse">
<stop stop-color="#3BEDF9"/>
<stop offset="1" stop-color="#164FFF"/>
</linearGradient>
</defs>
</svg>
